<mxfile host="Electron" agent="Mozilla/5.0 (Macintosh; Intel Mac OS X 10_15_7) AppleWebKit/537.36 (KHTML, like Gecko) draw.io/28.0.6 Chrome/138.0.7204.100 Electron/37.2.3 Safari/537.36" version="28.0.6">
  <diagram name="Page-1" id="jQFPJm10OJXWEw3395xO">
    <mxGraphModel dx="1141" dy="687" grid="1" gridSize="10" guides="1" tooltips="1" connect="1" arrows="1" fold="1" page="1" pageScale="1" pageWidth="850" pageHeight="1100" math="0" shadow="0">
      <root>
        <mxCell id="0" />
        <mxCell id="1" parent="0" />
        <mxCell id="k7bk-jx3exmMxuGghewi-1" value="" style="rounded=1;whiteSpace=wrap;html=1;arcSize=4;fillColor=#d5e8d4;strokeColor=light-dark(#81b365, #ededed);dashed=1;fillStyle=hatch;" parent="1" vertex="1">
          <mxGeometry x="470" y="440" width="340" height="178" as="geometry" />
        </mxCell>
        <mxCell id="5ZmyMMEixGDpB4YJExST-12" value="" style="rounded=1;whiteSpace=wrap;html=1;arcSize=4;fillColor=#f5f5f5;fontColor=#333333;strokeColor=#666666;" parent="1" vertex="1">
          <mxGeometry x="196" y="180" width="490" height="190" as="geometry" />
        </mxCell>
        <mxCell id="5ZmyMMEixGDpB4YJExST-28" style="edgeStyle=orthogonalEdgeStyle;rounded=1;orthogonalLoop=1;jettySize=auto;html=1;exitX=0.5;exitY=1;exitDx=0;exitDy=0;entryX=0.5;entryY=0;entryDx=0;entryDy=0;curved=0;" parent="1" source="5ZmyMMEixGDpB4YJExST-11" target="5ZmyMMEixGDpB4YJExST-13" edge="1">
          <mxGeometry relative="1" as="geometry" />
        </mxCell>
        <mxCell id="5ZmyMMEixGDpB4YJExST-29" style="edgeStyle=orthogonalEdgeStyle;rounded=1;orthogonalLoop=1;jettySize=auto;html=1;exitX=0.5;exitY=1;exitDx=0;exitDy=0;entryX=0.5;entryY=0;entryDx=0;entryDy=0;curved=0;" parent="1" source="5ZmyMMEixGDpB4YJExST-11" target="5ZmyMMEixGDpB4YJExST-14" edge="1">
          <mxGeometry relative="1" as="geometry" />
        </mxCell>
        <mxCell id="5ZmyMMEixGDpB4YJExST-30" style="edgeStyle=orthogonalEdgeStyle;rounded=1;orthogonalLoop=1;jettySize=auto;html=1;exitX=0.5;exitY=1;exitDx=0;exitDy=0;entryX=0.5;entryY=0;entryDx=0;entryDy=0;curved=0;" parent="1" source="5ZmyMMEixGDpB4YJExST-11" target="5ZmyMMEixGDpB4YJExST-15" edge="1">
          <mxGeometry relative="1" as="geometry">
            <Array as="points">
              <mxPoint x="441" y="520" />
              <mxPoint x="573" y="520" />
            </Array>
          </mxGeometry>
        </mxCell>
        <mxCell id="5ZmyMMEixGDpB4YJExST-31" style="edgeStyle=orthogonalEdgeStyle;rounded=1;orthogonalLoop=1;jettySize=auto;html=1;exitX=0.5;exitY=1;exitDx=0;exitDy=0;entryX=0.5;entryY=0;entryDx=0;entryDy=0;curved=0;" parent="1" source="5ZmyMMEixGDpB4YJExST-11" target="5ZmyMMEixGDpB4YJExST-16" edge="1">
          <mxGeometry relative="1" as="geometry">
            <Array as="points">
              <mxPoint x="441" y="350" />
              <mxPoint x="441" y="520" />
              <mxPoint x="718" y="520" />
            </Array>
          </mxGeometry>
        </mxCell>
        <mxCell id="5ZmyMMEixGDpB4YJExST-11" value="" style="rounded=1;whiteSpace=wrap;html=1;arcSize=4;fillColor=#9D5DFF;strokeColor=#9673a6;" parent="1" vertex="1">
          <mxGeometry x="230" y="210" width="420" height="140" as="geometry" />
        </mxCell>
        <mxCell id="5ZmyMMEixGDpB4YJExST-26" style="edgeStyle=orthogonalEdgeStyle;rounded=1;orthogonalLoop=1;jettySize=auto;html=1;exitX=0.5;exitY=1;exitDx=0;exitDy=0;entryX=0.5;entryY=0;entryDx=0;entryDy=0;curved=0;" parent="1" source="5ZmyMMEixGDpB4YJExST-3" target="5ZmyMMEixGDpB4YJExST-11" edge="1">
          <mxGeometry relative="1" as="geometry" />
        </mxCell>
        <mxCell id="5ZmyMMEixGDpB4YJExST-3" value="Cloud Loadbalancer" style="rounded=1;whiteSpace=wrap;html=1;fillColor=#647687;fontColor=#ffffff;strokeColor=#314354;" parent="1" vertex="1">
          <mxGeometry x="270.47" y="150" width="341.06" height="40" as="geometry" />
        </mxCell>
        <mxCell id="5ZmyMMEixGDpB4YJExST-4" value="&amp;nbsp;Semantic Cache" style="rounded=1;whiteSpace=wrap;html=1;fillColor=#E5CCFF;strokeColor=#9673a6;dashed=1;" parent="1" vertex="1">
          <mxGeometry x="383.37494949494965" y="290" width="113.13131313131315" height="40" as="geometry" />
        </mxCell>
        <mxCell id="5ZmyMMEixGDpB4YJExST-5" value="MCP/A2A Support" style="rounded=1;whiteSpace=wrap;html=1;fillColor=#E5CCFF;strokeColor=#9673a6;dashed=1;" parent="1" vertex="1">
          <mxGeometry x="520.748686868687" y="290" width="113.13131313131315" height="40" as="geometry" />
        </mxCell>
        <mxCell id="5ZmyMMEixGDpB4YJExST-6" value="LLM Observability" style="rounded=1;whiteSpace=wrap;html=1;fillColor=#E5CCFF;strokeColor=#9673a6;" parent="1" vertex="1">
          <mxGeometry x="246" y="290" width="113.13131313131315" height="40" as="geometry" />
        </mxCell>
        <mxCell id="5ZmyMMEixGDpB4YJExST-7" value="Upstream Auth" style="rounded=1;whiteSpace=wrap;html=1;fillColor=#E5CCFF;strokeColor=#9673a6;" parent="1" vertex="1">
          <mxGeometry x="383.3774747474748" y="240" width="113.13131313131315" height="40" as="geometry" />
        </mxCell>
        <mxCell id="5ZmyMMEixGDpB4YJExST-8" value="Token-based Rate Limiting" style="rounded=1;whiteSpace=wrap;html=1;fillColor=#E5CCFF;strokeColor=#9673a6;" parent="1" vertex="1">
          <mxGeometry x="520.7512121212121" y="240" width="113.13131313131315" height="40" as="geometry" />
        </mxCell>
        <mxCell id="5ZmyMMEixGDpB4YJExST-9" value="Unified LLM Provider" style="rounded=1;whiteSpace=wrap;html=1;fillColor=#E5CCFF;strokeColor=#9673a6;" parent="1" vertex="1">
          <mxGeometry x="246.0037373737374" y="240" width="113.13131313131315" height="40" as="geometry" />
        </mxCell>
        <mxCell id="5ZmyMMEixGDpB4YJExST-13" value="AWS Bedrock" style="rounded=1;whiteSpace=wrap;html=1;fillColor=#f0a30a;fontColor=#000000;strokeColor=#BD7000;" parent="1" vertex="1">
          <mxGeometry x="516" y="460" width="113.13131313131315" height="40" as="geometry" />
        </mxCell>
        <mxCell id="5ZmyMMEixGDpB4YJExST-14" value="GCP Vertex" style="rounded=1;whiteSpace=wrap;html=1;fillColor=#dae8fc;strokeColor=#6c8ebf;" parent="1" vertex="1">
          <mxGeometry x="661.1300000000001" y="460" width="113.13131313131315" height="40" as="geometry" />
        </mxCell>
        <mxCell id="5ZmyMMEixGDpB4YJExST-15" value="Azure OpenAI" style="rounded=1;whiteSpace=wrap;html=1;fillColor=#1ba1e2;fontColor=#ffffff;strokeColor=#006EAF;" parent="1" vertex="1">
          <mxGeometry x="516" y="560" width="113.13131313131315" height="40" as="geometry" />
        </mxCell>
        <mxCell id="5ZmyMMEixGDpB4YJExST-16" value="&lt;i&gt;Other LLM Provider&lt;/i&gt;" style="rounded=1;whiteSpace=wrap;html=1;fillColor=#f5f5f5;fontColor=#333333;strokeColor=#666666;" parent="1" vertex="1">
          <mxGeometry x="661.1300000000001" y="560" width="113.13131313131315" height="40" as="geometry" />
        </mxCell>
        <mxCell id="5ZmyMMEixGDpB4YJExST-17" value="" style="rounded=1;whiteSpace=wrap;html=1;arcSize=4;fillColor=#d5e8d4;strokeColor=#82b366;" parent="1" vertex="1">
          <mxGeometry x="86" y="440" width="340" height="180" as="geometry" />
        </mxCell>
        <mxCell id="r69CpFzEZrANOwJ_eQuK-5" value="" style="rounded=1;whiteSpace=wrap;html=1;opacity=50;fillColor=#dae8fc;strokeColor=#6c8ebf;arcSize=7;" parent="1" vertex="1">
          <mxGeometry x="96" y="550" width="324" height="60" as="geometry" />
        </mxCell>
        <mxCell id="5ZmyMMEixGDpB4YJExST-32" style="edgeStyle=orthogonalEdgeStyle;rounded=1;orthogonalLoop=1;jettySize=auto;html=1;exitX=0.5;exitY=1;exitDx=0;exitDy=0;curved=0;" parent="1" source="5ZmyMMEixGDpB4YJExST-19" target="5ZmyMMEixGDpB4YJExST-20" edge="1">
          <mxGeometry relative="1" as="geometry" />
        </mxCell>
        <mxCell id="5ZmyMMEixGDpB4YJExST-19" value="&lt;b&gt;Tier 2 Envoy AI Gateway&lt;br&gt;&lt;/b&gt;" style="rounded=1;whiteSpace=wrap;html=1;fillColor=#9D5DFF;strokeColor=#3700CC;fontColor=#ffffff;verticalAlign=top;" parent="1" vertex="1">
          <mxGeometry x="128" y="450" width="260" height="80" as="geometry" />
        </mxCell>
        <mxCell id="5ZmyMMEixGDpB4YJExST-20" value="DeepSeek" style="rounded=1;whiteSpace=wrap;html=1;fillColor=#60a917;fontColor=#ffffff;strokeColor=#2D7600;" parent="1" vertex="1">
          <mxGeometry x="116" y="560" width="113.13131313131315" height="40" as="geometry" />
        </mxCell>
        <mxCell id="5ZmyMMEixGDpB4YJExST-21" value="" style="rounded=1;whiteSpace=wrap;html=1;fillColor=#60a917;strokeColor=#2D7600;fontColor=#ffffff;opacity=40;" parent="1" vertex="1">
          <mxGeometry x="276" y="550" width="113.13131313131315" height="40" as="geometry" />
        </mxCell>
        <mxCell id="5ZmyMMEixGDpB4YJExST-24" value="" style="group;fontSize=15;" parent="1" vertex="1" connectable="0">
          <mxGeometry x="296" y="30" width="270" height="80" as="geometry" />
        </mxCell>
        <mxCell id="5ZmyMMEixGDpB4YJExST-2" value="Client Applications" style="rounded=1;whiteSpace=wrap;html=1;fillColor=#FFFF66;fontColor=default;strokeColor=#d6b656;align=center;verticalAlign=middle;fontFamily=Helvetica;fontSize=12;" parent="5ZmyMMEixGDpB4YJExST-24" vertex="1">
          <mxGeometry width="250" height="60" as="geometry" />
        </mxCell>
        <mxCell id="5ZmyMMEixGDpB4YJExST-22" value="Client Applications" style="rounded=1;whiteSpace=wrap;html=1;fillColor=#FFFF66;fontColor=default;strokeColor=#d6b656;align=center;verticalAlign=middle;fontFamily=Helvetica;fontSize=12;" parent="5ZmyMMEixGDpB4YJExST-24" vertex="1">
          <mxGeometry x="10" y="10" width="250" height="60" as="geometry" />
        </mxCell>
        <mxCell id="5ZmyMMEixGDpB4YJExST-23" value="Client Applications" style="rounded=1;whiteSpace=wrap;html=1;fillColor=#FFFF66;strokeColor=#d6b656;" parent="5ZmyMMEixGDpB4YJExST-24" vertex="1">
          <mxGeometry x="20" y="20" width="250" height="60" as="geometry" />
        </mxCell>
        <mxCell id="5ZmyMMEixGDpB4YJExST-25" style="edgeStyle=orthogonalEdgeStyle;rounded=1;orthogonalLoop=1;jettySize=auto;html=1;exitX=0.5;exitY=1;exitDx=0;exitDy=0;curved=0;" parent="1" source="5ZmyMMEixGDpB4YJExST-23" target="5ZmyMMEixGDpB4YJExST-3" edge="1">
          <mxGeometry relative="1" as="geometry" />
        </mxCell>
        <mxCell id="5ZmyMMEixGDpB4YJExST-33" value="" style="rounded=1;whiteSpace=wrap;html=1;fillColor=#60a917;strokeColor=#2D7600;fontColor=#ffffff;opacity=40;" parent="1" vertex="1">
          <mxGeometry x="283" y="556" width="113.13131313131315" height="40" as="geometry" />
        </mxCell>
        <mxCell id="5ZmyMMEixGDpB4YJExST-34" value="&lt;i&gt;Other self-hosted solutions&lt;/i&gt;" style="rounded=1;whiteSpace=wrap;html=1;fillColor=#60a917;strokeColor=#2D7600;fontColor=#ffffff;opacity=40;" parent="1" vertex="1">
          <mxGeometry x="290" y="562" width="113.13131313131315" height="40" as="geometry" />
        </mxCell>
        <mxCell id="5ZmyMMEixGDpB4YJExST-35" style="edgeStyle=orthogonalEdgeStyle;rounded=1;orthogonalLoop=1;jettySize=auto;html=1;exitX=0.5;exitY=1;exitDx=0;exitDy=0;curved=0;" parent="1" source="5ZmyMMEixGDpB4YJExST-19" target="5ZmyMMEixGDpB4YJExST-34" edge="1">
          <mxGeometry relative="1" as="geometry" />
        </mxCell>
        <mxCell id="5ZmyMMEixGDpB4YJExST-37" value="" style="image;sketch=0;aspect=fixed;html=1;points=[];align=center;fontSize=12;image=img/lib/mscae/Kubernetes.svg;" parent="1" vertex="1">
          <mxGeometry x="184.75" y="170" width="31.25" height="30" as="geometry" />
        </mxCell>
        <mxCell id="5ZmyMMEixGDpB4YJExST-38" value="" style="image;sketch=0;aspect=fixed;html=1;points=[];align=center;fontSize=12;image=img/lib/mscae/Kubernetes.svg;" parent="1" vertex="1">
          <mxGeometry x="76" y="430" width="31.25" height="30" as="geometry" />
        </mxCell>
        <mxCell id="5ZmyMMEixGDpB4YJExST-39" value="&lt;b&gt;Tier 1&amp;nbsp;Envoy AI Gateway&lt;/b&gt;" style="text;html=1;align=center;verticalAlign=middle;whiteSpace=wrap;rounded=0;fontSize=15;fontColor=#FFFFFF;" parent="1" vertex="1">
          <mxGeometry x="314.94" y="208.58" width="250" height="30" as="geometry" />
        </mxCell>
        <mxCell id="r69CpFzEZrANOwJ_eQuK-3" value="" style="shape=image;verticalLabelPosition=bottom;labelBackgroundColor=default;verticalAlign=top;aspect=fixed;imageAspect=0;image=data:image/png,iVBORw0KGgoAAAANSUhEUgAAAjUAAAGvCAYAAACjACQgAAAAAXNSR0IArs4c6QAAAERlWElmTU0AKgAAAAgAAYdpAAQAAAABAAAAGgAAAAAAA6ABAAMAAAABAAEAAKACAAQAAAABAAACNaADAAQAAAABAAABrwAAAACyR4hnAABAAElEQVR4Aex9CXxdRfX/ue9l7763SUuBsi+lTdqyFGRRQBGRXVFQFkWgTVHEnwv+fhYR/bugQNIWkAZEBBRQAQWEslMQ2iSlUKC0UKBNuu9p0izv3f+cl942Td57uXNn7vq+8/kk9717Z86c+c68e7/3zJkzBiEBASAABDQicPj3Vg7Ob48dahAdQqZxKBl0qGEmE0TGRiNmbDJNcy0ZxnLqSCwvLKJlr/9hTIvG6iEKCACBHEZA3HeQgAAQAAJqCEyY1vBlwzDPFcTlGHFTOUhOmvkOmbH5pkGLRLmF9dWlC+XKIzcQAAJAoBMBkBqMBCAABBwhMOG76yYYHR2CyJjnihvJ4Y6EpC1kPCqsOw/UVZX+Pe1lnAQCQAAIZEAApCYDMDgNBIBAegTKpzWeQ4Z5ubh6Zvocms4axgKDjHu2UlPN8qoDWzVJhRggAAQijABITYQ7F00DAjoRKL9m5dcpFmMyc4pOuTZkvSumtmraOhI1b88Zu9lGfmQBAkAgRxEAqcnRjkezgYAtBGaasYpNqy83k8kr2F/GVhmXMgmrzYqkQTVkdtTUV+/T6FI1EAsEgECIEQCpCXHnQXUg4BYCh1+zrm9RvONysVKJLTNHuVWPE7km0Vrhx1MTM/Ln1laN+NCJDJQBAkAgmgiA1ESzX9EqIOAIgfFXrRmen5e83KQUmTnQkRDPChnbhENxjWEmamqrx7ztWbWoCAgAgcAiAFIT2K6BYkDAOwQmXLViXyOv8HKjk8yUeVezlpo6Oi038bkLq0a9qUUihAABIBBKBEBqQtltUBoI6EGg/LuNh5rtySsMg8Q0kzFIj1QfpRjmn2OmWbOwesyLPmqBqoEAEPAJAZAan4BHtUDATwTKZzRWUNIUlhkSU01U5KcubtRtGMYjSdMQDsWjnnJDPmQCASAQTARAaoLZL9AKCLiCQHll4wlMZoQvyqWuVBAwocI36EmemqqvHvNowFSDOkAACLiAAEiNC6BCJBAIGgLl0xtPTwXMM+nCoOnmiT6G8QKZVFNXXXq/J/WhEiAABHxBAKTGF9hRKRDwBoHyaStF9F+D/WXcjf6bsTlickuYhTr/+HPXT8KGsut76oIn/8w3RDU149aWzX34YUNssokEBIBAlBAAqYlSb6ItQGAXAhXTG79m8lYGJn3WG1D4VtJJWrypT7EWgxYbwuemqDm/Zn7NsO2K0lAcCACBgCAAUhOQjoAaQEAZAY7+u15E/+3cl+lYZXl+CfCUH5nLDYrNbe+I1Sy+Y+Q6v5qMeoEAENCDAEiNHhwhBQj4hoC30X+9njCyblGuW4EaTDJqzI7WmkV37Pexb52JioEAEFBCwLpjKAlBYSAABLxHYPxVy4fHUwHzUptMuh/9N2VB8ZrUCFxT9XqFryk2zDTmUtKoqZtd+p5XtaIeIAAE9CAAUqMHR0gBAp4hMHFa41iKiRgzSfMK4QTsfvRfUyyMFtH5/L9ZWBq4brXhvtwp/moo0VFTN2dsrWedi4qAABBQQsC6SygJQWEgAATcR6D8msZDU2RGRP8VPGOw+zUGuQbr1uUJwbnHEJab2tmlrwYZEegGBIBAp2EXOAABIBBgBKzov0JF3jE7ctF/VaH3cELsr0ZSbJ45e59nVHVGeSAABNxBwHrdcUc6pAIBIOAYgfLKT0X033jORP91DJQoyDcyMUm265OKJFtlH0+KQH6LZpU9Zis3MgEBIOAZAiA1nkGNioCAPQQqKhtPM5NJ9pfJzei/9mBKn6uT3aS/pv/sPDENOLd+VtlD+kVDIhAAAk4QAKlxghrKAAEXEBAB887eFTDvSy6IzzGRnllt2D40X/yrEeSmJsdARnOBQOAQAKkJXJdAoVxDwNPov95aMgLTlaYwqYidu93Wp16Qm7mFBcma1/8wpsXtyiAfCACBngi4/ivvWSXOAAEgQF5H//XOcBHMzvWWzL3Plps8sTv4m7NGbwwmINAKCEQTAZCaaPYrWhVQBMZfv6ZPvKX9CmE14E0mjwqomtFVy1NyZ3ximGZNe8ysWVw1elV0QUXLgEBwEACpCU5fQJMIIzCxcvUwouTlMVPEmCE6yP2mWj9tfoojZUbAE5az3hCWm0Q8f+6i24cvy6wLrgABIKCKgHXnU5WD8kAACKRBwIr+u4vMjE6TReMp8XNORf9FACqNoGoUZTQJ354aEUCxpr5q9FsaBUMUEAACuxAAqcFQAAIuIGBF/xV2gMvFj8yj6L/8c4ZlxnF3egdfUnDPGiMWn1tXNfK/jvVFQSAABHogAFLTAxKcAALOESi/+pMKiouAecQ+M25H//Vk6sQ5GCEu6RmyJv2FDLOmrnr08yGGC6oDgcAgAFITmK6AImFGoOLaxuPNhMlE5jLX25GyKFgWGfyEXcfbkwqMvwvn8ZraqlH/9qQ6VAIEIooA7ogR7Vg0yxsEUtF/zRSZ+Yr7NYLIuI9xmho4vo2YL/IkmfS0ISw3tdWjH/akPlQCBCKGAEhNxDoUzfEGgVT0XyYzBiH6rzeQ+19Lak6Kb5leEBzjJVNYbuqrRt3nf8OhARAIDwIgNeHpK2gaAAQ8jf4bgPZChcwIpDhO5st6rpjmAtOgmlhb2dzau4x2PUIhBQhEFwGQmuj2LVqmCwHTNCZWNopVTOYVwgH4WF1iM8rhqQ73Q/pnrB4X7CLgldWG9THeEf9qjLaWmtq7xm21qyHyAYFcQwCkJtd6HO21jUAq+u/OxOUxsSxb0IwJtgs6yujJe78jzVDIDgLWrZT70cVkmh+JKc+aeLJg7oLZw9e4WBNEA4FQImD9EkOpPJQGAm4gkIr+mxTRfw2vov+60QrIjDYCxmrRvpp4or1mwZyxH0W7rWgdELCPAEiNfayQM+IIWNF/hR8oB8xzN/ov//JSK2rwE4zesLL61GWrDQNnmluNWGxuR9KoeWvWqCXRwxItAgJyCFi/PrlSyA0EIoSAcP49xKTEFaYImGeQ4VH03wgBiKZkRiBFXlP/MufRc6VN+HzVJJLJmkWz91mgRySkAIHwIQBSE74+g8aaEKiY1lhuxsSybGGZESKLNYlNLwYuM+lxwVntCAhy/icxpmvqZ5W+rF04BAKBgCMAUhPwDoJ6+hGouEZE/2Uy40X0X/3qQ2LoEfCK4ZoPU1JswTB7zNOhhwwNAAI2EQCpsQkUsoUfAU+j/3r13Ap/t6AF7iPwLzKNmrpZpf9wvyrUAAT8RQCkxl/8UbsHCFRM//Rs0xSbTCL6rwdoowo5BLxkv+bzBsXm1laXPiCnI3IDgfAgAFITnr6CppIITKpsuCjZ6S/zOcmiDrPzz4kfUkhAwBkCphg/wlndWWH7pV43hOWmdtioGpppJO0XQ04gEHwEXP/1BB8CaBgtBET03+ki+q+IMSOeD8dFq21oDRDQiYD5lqBQcxNF8ZrFvxu5Q6dkyAICfiEAUuMX8qhXKwLeRv/VqjqEAYE0CAiLX2p38DSXNJ8SD4EPhEWzhmLNYgPNA9drFg9xQMBTBEBqPIUblelGYGLlsmGULGF/GQ6Yd5Bu+T3lWT8ZTDP1xAZnQo7ASqF/jREXU1O3lX4a8rZA/RxFwLpD52jz0eywIlBxbeM+ZsIUezKZVwgfBHej/6Z8HEBiwjpWoLc0Ahs5zk0sj+YuvK1sqXRpFAACPiIAUuMj+KhaHoFU9F9jd8C8IfISJEowj0n9QvgfSI0EcsgaDQSaRTNqxB5oNQuryuqj0SS0IuoIgNREvYcj0j5Po/+mCIz4aYDLRGT0oBnKCAjLTTJOcxfdXvaasiwIAAIuIgBS4yK4EK2OgD/Rf3ebaNQbAAlAIEIIiAfGg0lhuamvKpsXoWahKRFCAKQmQp0ZpaZMmtZwatIwrxDmkq+43y5ragk/B/exRg1RQEBsMP+YEaO5dVVlT0ShPWhDdBDAXTw6fRmJlkya0fDlZDK1weRZkWgQGgEE/EAgtRzcIuuuKvCMkF5TV132V1drgXAgYBMBkBqbQCGbuwhMFNF/DU+j/7rbHkgHArmFgPEKGcmauqrR9+ZWu9HaoCEAUhO0HskpfXZF/2UyY3gR/Re+Mjk1vNDYXQiI27x4Y/BoAV+tqK1mq1E6d3mV0YouAAJeIwBS4zXiqI8qrmwsSRYkrohRTMSZoQmABAgAAa8Q4Fu+F9NSxruGsNy0dSRq3p4zdrNXrUM9QACkBmPAMwQqvt841GwVMWY692U62JOKvbqHe9IYVAIENCGQMlp68OMw6WPTMGuICufWVw9r1KQ9xACBjAiA1GSEBhd0IWBF/xXyLhd/Y3TJhRwgAARUEPCA1OxST0T9XpukZI2RNGvqZo9ZrqI1ygKBbAiA1GRDB9eUEEhF/zV3WWaI3I3+a2nq3X3aqhFHIAAE7CJg0naKGXMNM1ZTWz3ybbvFkA8I2EUApMYuUshnG4GKaR+Xm7H8y8XUPVtmim0XREYgAAR8RGCXr40nu4MbHcSWG9OsqZ015g0fG42qI4YASE3EOtTP5kya3jBVRBu1yIwHqojhK6KAde7P5EF1qAII5BQCKccb91tsGH+OmUbNwupRL7pfGWqIOgIgNVHvYQ/a1xn9N2WV+aoH1aEKIAAEvESAnxK7jDjuVms+mhSWm0Wzxjzpbj2QHmUEQGqi3Lsut23CtIYvix18eYrJw+i/nt1hXUYP4oFAmBDwyGojIBFOxU8mRayb+urSR8OEEHQNBgIgNcHoh1Bp4Xn0X+9CvoeqH6AsEPAFgdSUr/uPDpPMFw2Kza2rLr3fl3ai0lAi4P7IDCUsUDodAoLMXC6WZF5BhnFcuut6z8EioxdPSAMCYUXAYEfimv5Dl9a8OPNk4WCMBAQyIwBSkxkbXBEIcPRfs1Asy+5cyTQRoAABIAAE9iDg3bSUcOx5my03RSX5NfN/M2z7Hh3wCQjsQQCkZg8W+NQFAUFmhpoFXkb/tYaiJx6JXVqKj0AACGhDwBsD63JDrJZqzdtZ885t+6/VpjsERQIB60kSicagEeoIeBv9d9fww7Js9Y6DBCCQcwiYjWy5SeQZNYtuHfVxzjUfDU6LAEhNWlhy7+SkaxsOTnaQ8JdJrWbyJvpvKsAMLDO5N9rQYiCgFYHNplgKTrFETX3V2He1Soaw0CEAUhO6LtOr8KTKhonJTn8ZXppdold6d2lezr93rxvfgQAQ8A0BftK4/P4iqtgpqhDkxqipu7201re2omJfEQCp8RV+/yr3Mvpv6n6W+gdS41+Po2YgEAAEvLoFmOa9Rl5sbu1tpa8GoNVQwUMEQGo8BDsIVYmAeafuCpjnUfRfr+5iQUAXOgABIBAwBP5qGEZNbVXpMwHTC+q4hABIjUvABk2sP9F/g4YC9AECQCBYCKRMuO6rZJpPxOLG3IW3lz3mfmWowU8EQGr8RN+DuidOa/gqW2aEveRUD6rr3FySjTNIQAAIAIHgITDPNMQWDFVlDwZPNWikAwGQGh0oBlAGR//lgHmig6d6oh5mmTyBGZUAgegi4JHVRgAoapqf7CQ3NdHFMzdbBlITsX6vqGw8TYR9uUEsNfhMxJqG5gABIJAzCHhEcAzjVUrGfl03a+S/cgbaiDcUpCYiHXz4FSsHF5UYN5imcV1EmoRmAAFHCPQvidHAPjEasOvP+lxcYFBzW5KaW01qFot/U8fW9N8dVYxC7iDgyYa25l3xRP6vF8wZ8ZE7jYBUrxAAqfEKaRfrYb8Z4eHP1pkjXKwGooFAYBDoU2TQhHGFNOWgAjpy34LdBIaJjPAhU06LV7SR9ff+ynZq2JhQlgkBThHYZbVxf4q7UdxHfy1WSt3uVFOU8x8BDT9//xuRyxqUT2/gOeHLchkDtD36CDCJGb9fQepvykGFgtAUeNroxk2JFMl579N2WrqqnZjobG9JeqoDKvMMgXmxOE1feFvZUs9qREXaEACp0Qal94LKp6/6s3B5u9j7mlEjEHAfgWMPLUxZYZjMVBxYQAV5wbldtSdMelcQnFfe2UkvvLWTPl7b4T4gqGEXAp3LKw3h7uviQst6I26cLYL3fQrYw4VAcO4S4cLNd22FheYuocS3dSvCA8L0ZA5bt+aQFwUEhg2I02nlxXRqeVGK0ISlTUxsXly8k55/qyXlqxMWvUOtZ+pmxS1wZ15KSJ2f6Gg5d/EdB6wLNU45pjxITQg7vHx6463ih3ytXtXFUMBu2XohhTTbCFQcWCjITFGK0LCjb1jTui2JFLl5QRCcN5e2hrUZ0HsXAuKu+GxRc8F582uGbQco4UAApCYc/bRby4nTG34lOu1Hu09o+8BDwUVjrjY9ISgqCPQtju0mMpOFn0zU0pJP2ojJDaanvOxZV6w2j/cfWnreizMNzDF62ZUO6wKpcQicH8VEDJoZpmnepqdukBg9OEKKLAIHj86nMybzFFMxjRgYly0eyvyPvLqDHn21mT5oaA+l/lCa7qmrLrscOAQfAZCa4PdRSsOK6Y2HmGS+JL4MD4nKUBMI7IVAQb5B3/xcX7pU/BWJmDG5ljqEc/EjgtgwwVmxBi/9Yet/MTt/Uf2ssofCpneu6Zt7d5aQ9rCWlU7c25hhCukICLfan5tYnCI0h+2TH+6GaNC+pc0UVpsdKYKzcj3IjQZIPRJhvNPakjhxydwxmzyqENU4QCA3bL8OgAlSEeEYfLHQZ6aaTq7MNauphNKRR2DcqDz63jkD6Joz+xGvbEIiyo93xtz54pRi6lsUo08FsWkSEY6RAo/A8PwCyl/95u+fCbymOawgLDUB7/zxV60ZnpeXeEmoeUjAVYV6QGA3AjGxgMmaamKHYKTMCGzankxZbu57rgnLwTPDFJgrIurw6SLqMIhNYHpkb0Xy9v6Kb0FDIB5PiO0PQGiC1i/QJzMCJ40vShEaDpqH1DsCg/vF6Ntf6EfHHVZI1U9sx1Lw3iHzNUfnhsEEUuNrL2SuHJaazNj4fuWoq1aWxeOx90TgzH6+KwMFgEAvCPDDefpZ/enLx5T0khOXsyFQ/cQ2uueZpmxZcM1vBMzkuXWzxvzDbzVQf08EYBfuiUlgzghCczYITWC6A4pkQYDjzFRfMwSEJgtGdi9N/1J/+t23BtO+I2BIt4uZ1/kMI36213WiPnsIgNTYw8mfXDE6x5+KUSsQsI/AV0/sQ7OmDSGOP4OkB4GTjyqiOdOH0JlTYPXSg6heKSJe2DlsSdcrFdJ0IIDlCDpQdEHGpMqVU0zT+KUT0SKejTDwYGbRCXYoI4fATy8aSFec3o9iGG5ywNnI3UesjGJyM6hvjOo/bKP2hI1CyOIAAQeD16DCmGF8tHrB7xc4qBBFXEQA9k0XwVURnTDjZzvbgxZ0RgV3lLWHQEmhkbLOBNEZ+MPVHbSssZ3eE7tov7eyXezuTakdvnkpdb71WQQC3H1e7P49dngeHVSWT/uNzAscQbvwM33o8LH5cCK2NzQd5EqKMg6ITaclfZaDClHERQQc9KSL2kD0bgTELtzviS8OlnEjHs1uEPHBFQSmHFxIt3x7MDGx8TNxELsPBXlZLkjMh6vbaemqDkFk2pSWRecJ4nPw6LzUVNq4UZ0kZ39BdIISY2fm/VvoiTea/YQ9knXzqyBbuGVTzEgevbBqzJuy5ZDfPQRgqXEPW8eSJ1zz6WRR2AGh4Sr9fdA4bjQKhgKBy07rS+zI6ldKiufOy2/vpJd2/W3dwW/Z+hJvZbDkk/bUX1ep+wzLo6P2L0jtVzVVLL32K828eCD1KzHogRd2+KVCJOt1QmgYCJPix4gDSE2ARgVITYA6w1IlHs+fZJp6b9aWbByBgFMEeEUO+3j4keqWt6WIDBMajsDrdeI6+Y+tJEfuy+SmiE4VWz8M92FDzu+fO4D6i4CGdzy53WsYUF83BMR9ml9AkQKEAEhNgDrDUgU/FAsJHIOCwFM3jfD8Ac6+MZZF5p2P24ICBb0tdOG/Pz7VtJvc8JScl4mD9fUridFvH9nqZbWoqwcCsUk9TuGErwhgrsJX+NNXLjavfFtMIx2R/irOAgFvEXj5t6OoT5F3t4o3l7bSQy/tSBEab1vqvLbyA4T1RlhuTi0vTq1Wci5JruS/32yh//vzZrlCyK0VAeGPc2htden7WoVCmGMEvLtTOVYxtwpWVH46zjTjy3Or1WhtUBF45IbhqRVBXujHlpkHXmyif74WXkfYEYPiqS0iviJWLHmVXnhrJ11/NzaO9grvnvUYl9RVl97f8zzO+IEAgu/5gXqWOgWhcWDOlPfaz6ICLgGBFAKzRUA9XuLsduINHWeJrQG++bv1oSY0jNPazQn6zcNb6ZpZG+mN91vdhi4ln/2cbr96iCd1oZKeCJiGCb+anrD4dgakxjfo01csAu45+IHA4JYeTZx1igCvsjn6EPf9RB58cQddest6qhF7HfES7agkJjRMbJjgMNFxO/GKrDtngNjowVnufmqY5OCerUdTSOmJgFzv9SyPM5oRKJ/e+KJYKHiifbH8IEA32scLOXtD4Ooz+9G3RJRgN9PTtS3EhCZIDsButdfLKal7n22iqse3udUUyE2PQEdHR7xs8R0j16W/jLNeIoBtErxEu5e6Jnx380Aj2X6LyGZ/Ex0DxrZeYMVlCQQuPbUvXf1F9+LQrN2SoBtFALm5/2mideJzLqQdO02a/24rvbWijYb2j9Pooe5N6U0YV0DvfNJGK9fnBrYBGT+xeDz50uo3f78sIPrktBp4Igao+/Pam9mMKbeDnRkdk32AuiInVbnopD5UeZZ7hGbBB61UOXsjPS8cW3MxWVNStz/mriWlSvjXcLBAJKcIyFu+nbkNONUP5bIhAFKTDR2PryVjcDjzGHJUtwuBc6eW0PXnDXANj0fn76AZczaJ7Qy8D5znWqMcCv7TvCb6/h83UVOLewE27/7u0NR+Vw5VzPFi8i+KYtdu+NUEZNSA1ASkI1JqmJKBnORfKILUWugSEAS+OKWYbvjqQNe0+cM/ttEvH9pKbR3yDwvXlPJZ8IuLd9I3b9mQCuLnhipD+seInb2RvEHAMGKTLrjAhDuHN3BnrQWkJis83l4U+4/IsX08I7ztoAjWxsuBf37JINda9t07N9H9zze5Jj/Mgj9e20GX/X4DPfZfd+LynF5RTFeKyMNIDhCQfmE0hy8b1ni0g5pQRDMCIDWaAXUqrnxGY4X4HY2WKw9WI4cXcndFgB1Wv3u2ez405960jl55Jzf9Z7rinO0zu8T9/C9biK1ZbqTvnNGPzjpGzk3PDT1CJ9PBrTUeNxzEGAsdMoFXGKQmIF1kJp1sjIbuC0j3hVINJjRurMT5ZF0HTZrRSHxEsocAW7NmzNloL7Nkrp99fSB5vTeVpIqRyI49+4LRjXgqBqMfKEayLJ/tow5eJwLSXqjhLwL8Bu/Gjtscd4YtNFiUJ9+/vOz7zJ+tlS9oo8SPLhxAZUPg8mEDKudZHAVOdV4dSqZHAKQmPS6enxUPATl/GhAaz/soKhUymXHD12LVho6U82tUcPKjHas3JWjq91drr3rs8Dy65kz3phq1KxxGgQYdXDG98ZAwqh4lnUFqAtCb46d/vJ8ICjxeShW8CkvBhcydCLjlR7NGbAXw5RsRUFXHONsptou45LfrdYjaS8bnJxXTV0/0bqPNvSoP4xcH99ik6cSNIIzgBFdnkJoA9E0+Fco7mBnS7vkBaClU8BsBN/xoNmxL0NkgNFq79t1P2+lnf96iVSYLY2vNYfvYD1iuXYEwCXQQrT1mONm7L0ygBF9XkJoA9JETBzN40wSg40KmAk856faj2dKUFLtrb6D2BEak7uHwrzebifdy0pn6FBmYhrINqBjTksNaZJd/QbWtDzLaQQCkxg5KLudxsnU97DQud0rExDOZYedgnYn3NLpWxKHhqSckdxDgzSn/+ZreODbHHlqofSy40/oASJW+0RqTJ1auHhYAzXNWBZAan7u+4soPBxhkSAZtkv6l+dxKVO8nAm740bS2m/TjezfnxC7bfvYd133Tg1to3qIWrWqw1Y7JDZJuBMw88VCdolsq5NlHAKTGPlau5Ezmp/xpiuWES9pE5YQjd8QQ0O1HkxBbFv1EEJr5SxBYz6uh8sO5m+mNpa1aq2P/Gp6OQtKLgBN3Ar0a5LY0kBqf+z9mxCSXcguFHXjl+9xMVO8TAm7Eo2FCw3sXIXmLwMz7txA7EOtK7DCMZd660NwjR3q7mz1F8UkDAtifXgOIKiJM4iWAMm9LwkqDlU8qkGsry7E/9h3R+ZcU3bJd7Lrc1Gymjvx5e8uuz81JYuuG14mDrV1wgt4lvOy4Oq9e71SI17iEtb51WxL0CzEVdUflEOpfoud9lJd4vy0CJj69EH2aeVywZdz+PVq4E4h7uikKGDCpZwbVtSsgNa5Ba1ew7BJAvpnht2IXXR35mLgcMbaAxu4iMBaRidm/z9HiFW30stgH6b/vtdJ7K/W9bWdrHxOaQX31PPy4ngUftFL1E+7sUZStHbi2B4Glq9rpzie30w/OH7DnpOInttbULmuj9Vvh8J0eSokfeqeAYRNmNB676HZ6Lb08nHUTAZAaN9HtRfakyoaJ4g1/TC/Zul0GoekGiCtfRwyK00lHFtEXp5TQ4WPV43qM36+A+G/6l4gaRdTYVwXBqfuwTTxMWmnTdv1mnHGj8ujCz+iz0rSIgHCzntiOmU9XRpuc0Ide2kHlBxTSZycUyRXMkJsteuefUEJz/rU9Qw6clkUg3rmXH0iNLHAa8oPUaADRqYikaUpOPXFNcqZQp7rlYrnB/WJ0/OFFdKIgMyeN1/PASIdj6eB4inAw6eD4Lmy9eeKNZnpukT4/FZZdmC/9hplO3dS5arG0mKcpkIKBwJ1PbhPEpkCbJe5CYdV7/L/N1LAB1pqePcy/I7mXSZPiiFfTE0hPzoDUeAJzpkpiYuDL/Vhk5nYz1YrzeyMwVRCZM0QI+RMFkSku0EcE9q4l/bf8uEEnHFGU+qtb3pZ6sDDBUUlH7ltA5x+vz0rD/hZsHUAKDgIfru6gO8Q01I/FRpU6EvvoXCDGzK3/xPRiTzytF0mJe7XBL6xIfiCgb8LdD+1DXqdBGPh+duFR+xfQLy8dRLdfNZh4XxyvCU33tvOb98yLB9IDPxyW2qPH6XJbndNOK9d3wI+me0cF5Psjr+yg/9Tqc/A9X1hr9h+J99z03StBaFiAic0t0+Po/lnsRe8+xmlrmDitcaxwqP9/aS9mOGm9L2S4jNM2ETigNJ+u/mJ/+pF4y+XPQUtD+8dp6mFFdFp5iYgjEqNljR3U1mHvpnr0wYX03XP07cb8y79uTTk5Bw0j6NOJwHIxNk4RvjU8TlQTWw15lM1/V288HFW9glFe/u5rmsabaxbcsjgY+ueOFuq/hNzBSm9LHezmKpYK6tUhx6SNEr4s157dn+67fiidO7Uk8K0vGxqnq8/sR3fOGGLbx0enleb+57F8O+iD5JN1ndNQuvTkKahDxgSP6Otqn3M58vfeGKagnMOtUBKkRgE8laKxuOHAkcze27qKXlEte97UPoLMDKNvfLavVgdaL/A6eHQ+3fLtwfT9cwdQv+LMP1l2btbl4FwvVmZVP47VMF70r2odvDfUv9/UMw0VE8OLiQ2SOgIIwqeOoRMJme+QTqShjG0ERFBgOJLZRkstI8f0+MlXBxCvbgpz+trJfbJabXRaae4RQfaw83Z4RguvhlotQgXoSGcfV5IKP6BDVrRkSL5UGrFJU6atGhItDILfmnDf5YOPb1oNp16+nrdLPjbtxYwnJX9QGeXk1oU504eknG6j0upMVpszJhcT+9PoSOx8in2ddCDpnYyGjQma+x99ljXdkai9Q8LNmiQfl6aZ1yF9n3dT/9yQLdlLuQGK261sKWllK43kJpbyc7putyPI8nkVx39uHkFTND3og9ZWy2pjrVbRaaX5m1hVgxQ+BP4hpqEWiWlDHYlJ8qQD9ZBkHfoEQoaTXQ8MJ24GgWhtaJUAqfGl6zDQ3YT9cxOL6eEbhhOvIopyYqvNrGlD6EtHlxDHptGR/j5f34NRhz6QIYfAX1/WR0gvEFGGkbog4MBY3rkPVBcZ+Og6AiA1rkPcswIzFUm453mcUUeAd6X+9eWD1AWFRMLwgXH66UV6ArC1tZsEK01IOj6Dms/U6Zs65JeDqYfBWpMBalun4SxsCyatmUBqtMJpU5hhHGMzJ7JJIMA34Su/wO5KuZXyRHwRHYnf8pc1eLPZpg59ISM9An99RS0idVepHJAPSQkBsbllw3FKElBYCgGQGim41DNPrFx7lHgEjVaXBAldEeDNInPJQtO17To+86aaf9M4daFDJ8hwhgA7ebPFRkf6jNjCg6c5kZwjEE8aWOnqHD7pkiA10pCpFYglEw4GuIPJXDU1Q1Wad6S+57qhodI5aMqylYZ3D0eKBgI6fWtOOcq9zV2jgXb2VsDdIDs+uq9iow/diPYizzSSgtTYny4QPwgyDPv5e6k+cpdHDoqL2C3eE5qWNpPeEbtW83Fn1z/hl8LfD98nnw4syyf2eQl64v2dYKUJei/J6ceroHg11Dki5oxqOvmoYprzb33LxVX1CVt5E5GFPe0ykBpP4WY6Y0yRsbsYBhvTZEp43CAfq+OdhX9+yUAa1Ncbg+OST9qII+2+uqSVFnxgb3+cUrE1w2FjC+jA0jwaNyqfTg7gWy+/1W9rTvrYk6jaDQSYqH5xSjEV5Km9FLEllCNVv7h4pxtqhk+meNEUb5q29Rb3/IOOmrbqoLdmjf7AdiFkdIwASI1j6OQLTr6mYYww8E+QKwlCkw4vDud+oyA0FS7H0nhjaSs9vbCF6pa30aoNIpSWZOIpncZNLTSvvrPgUcL358IT+9DnKyTDFEnWazf7+yvbYaWxC1bI8n0gnL6Z2Fx8Sl9lzU8R1hqQmk4Y2XIue1cW9yteHAJSozwSexcAUtM7RtpyJOLCYYxZPpIyAt87ewCxE6NbiR1n73l2Oz3wgr64H6zrWyvaUn9PvtlMXzmxr+9LZtmhNAEjjVvDyHe5vET/zCklNFDRmskWxhH/itPazfC7cnIHj5mp2GT3+T4gckABb+z2OQCknSY6cRhz8gOyo0uY87ApnCPqupUe+28zXfGHDdoJTVd957/bSjPmbKQb7t2cIjldr3n1uVX4/8yr17NKxiudUY8cAg0bEqTDabik0CA4DHfBXvLGLLI7WCDSpT58tI0ASI1tqNQzCqul9MC2P3Orrl8YJPAu1W7FolnySTv94O5N9PO/bKFPhfOsF+lpsc/S5b/fQLc/ts2L6vaqY179TuI9g5CijcBzi/QQV56CQtqFgPyNefKRV2/JnaigPg4UkBqPwB9//Zo+lDSnelRdZKthQuNG3Iy7ntpO37p1Az3/lj/OkH+a10TX3bWJkh5OBel62EV2sEWkYR+u7qDnFqmP6/IDCmjCOD3bcUQEWplmxPNjTbj/yyDmMC9IjUPgZIsV7GyfLDzm5ZxA5N8GZNUKVX63pp2qHt9Gdz65ndo6JG3KmtF76e2ddP7N6+iTde5biZauaieuDyk3ENBFYDEF1TlenNwpzBiC8HnxawOp8QJlUYdJeZOkq3Lyy5GuJBwF3Jp2+t2jW+neZ5sCAwITmnNvWkccFdbNBF8aN9ENnuxnhe+UDrLMU1BFBXjbcoKAgT3/PPlhgNR4ArMgNamgex5VFsFq3Jh2+uVDW+nBF/WubtIF/Yw7NtFDL7mjG6920jEdoautkOM+AjytqYPIjhJxl04WjvpIThBIrYByUhBlJBAAqZEASyWrYZLkpmYw01h4nyCWbute7fSz+7fQo/PdIQ2W3qrH3z6y1RXyoeutXbV9KO8tArqI7CkT4DDssOeGlVeuOsZhWRSziQBIjU2gVLKVX71yvKAokptYOjFwqmgZ3LJfPkY91HvX1v1ELKP+1xv6djLuKlv35/+Zu4m2NOn1Hn4Oy7h1d1Mo5LEflY4AeuxXw9uTIMkjYJixo+VLoYQMAiA1Mmg5zGvmxeT9aRzWFbViUw4u1Lq1wB/FKqf/iGXUYUrTZm/Upi6vhPFrhZe2RkCQYwR0OQxjFZSzLsA+UM5wkykFUiODlsO8IpqkdHwa6TjcDnULejGdVhre5O+up8O3MR9vZVDzjB5nZp56QspdBOaJpd0ckE81TcTSbkcQCjcE+WeBo5pytxBIjQd9b1LyWOlqMPtE48U+SZ+fpG/+/o+C0HgZB0a6z7MUmPXENi0WFkw9ZQE5By61iSjSOojtxHGFOYCW/iYKN4SDyq9ZeYB+yZBoIQBSYyHh0nF85SrhS2Mc5ZL4SIv98rH6fGl42fZ/37e3s3ZQQb3pgS20Yo3zGDavia0ZPlIoH1RcoJccAjqmoHjn7v1HYutAOeQ7c5txQ3LRiJNacrcMSI3LfZ9vOvCnwaaXqajBuqaeePsDttKEPW1rTtItf9/quBmvvedu7BvHiqGgpwi8+2k7vf6eOsGvOBDWGvHCKt13hhN3BOlacrcASI3LfW+aSfk5VLFJVK6ns8SKJ10wMKHZ2RaNJfL8MLrbAUHjaTe21CABAUZg0UdtykDAr4Yh5PuK9P0aC0eUR19mAbAfZsZGz5WYcbSc0y//QKLxAHYK4NjheaRr6ukvLzTRK+9Ey0LBWzrwqjD2ObKbFnzQqiWirN36gpSvbGicjhZ4bWvu/F2xX8nG7UnasqPTYbal1dy9bD6ZIz+9xSvUSQ1WQFmjXHrQTJ7w3RUDF9263xZLAo76EACp0YdlD0nHfm9lcWs7yW1ixlNP0sS/R9WhPsGEplhDKPb1WxN037xgB9hz0lH84GVrze1XD7Fd/DUN0w22KwtYxg7hhjRh/0I6raIzEm48ZlB7l32+WgXJadllydsgxkxTi0mt4vp2QYJ4DPEf7wvGpGjjtgTt2Gnu+t4ZP6hDcCOW0ZEwKSbMi0nxG+aozUFObKnZ3pIk3n7EaRoxME6Hjsmn98TqvJxO8u+h8bz2IvareTKncXOp8SA1LgHLYne2xScbhikVU5ynXKR5v4tt8Fr0CBHUS5cvzT9ea6YN4iEUxTRfTCXd/3wTXXxK316b1y4etq+9Gy1rVa+N7pJh7ZYE3frPrdSvxEhZbPJF3LjC/D1vDvy5/y6fdH5Q20lMYvgvL26kyMHWHckUUWoTBIrJAhMiPvK0J5Mi/ixecHaTIq5jR2uSNguLEefJzzNS8uzUrSMPW6tql7URbxKrkiYfVAhS4+CGnYglOQgfSI3K4MtQFqQmAzBaTseEP4255+ZpR6aD34cdsaHJc7aw0gzs6/zt0WooP0gefTUcUYMtnWWPVY9vTz2kDyzLz1qUH165vuppkyAPvHrshxcMEMEciymuOMSYCFnEqKQwTnbIEFvYLAtRTNTfLggQExomnWxN4ukwixQ1bkykrrGFiAkTf2dixNdXb+ogbo9qYmuNKqmZJEjNfc/piaGk2h5/y8uZa7C5pXu9BVLjHrZkJGlKrk8lycLLb346UpStNBY+PN1xh/CvueXbg61TaY9vhHwpe9pGOTjJRODXD3euHtNBbGRVELNeu4kQl2WLUUnhnpce9v2xk7g/rxUbnjIZUkmL4SysAl+3spJ9gRVQ3fDT91XxfUWfIhGVJOdPE1EQ7DZrzLA80rGiIhesNBamvJdPto05eYokl/1pLJyso0VsXnirJfB+L5bO3Y/7ivgwg/up37rfEs7CbP1RSUzKjtrfvsO6Sl2RKmvQ0EmVq6dEqk0BaYz6LyMgDQmaGpNmfHqEWJNcFjS9gqwPr1DRkXLBStMVp1se3UYr14t5iTRpoZh6Wt6Y446c3XAJO7Fh5948TTZ2nppUTbqsq6p6+Fte0lIjlE0mE+wsjKQZAZAazYBa4pLJuHx8Gqtwjh4nH6T+xpdLVhprmLA1plr416RLtcsQmyYdLmEmNuwPlC8clHWk2uXq42OKht+tjrb4K8PBozTmIDCrv40MRe0OeiIU7QqCkgiwJNkLOt74cs1KY0E8b1ELPfHG3o7RzSL+Sti3hrDa58YxzMSmQKyW0pF0WGr2G5ndUV2HnsGXYUqvWoWzsDu9ClLjDq4sVdKfRt586Z7q3kueelghDeijNhybhH9A1Fc8ZeuZ3wgn2K5L2NlKs3QVpp6yYRZGYsPLvwdp8KlhXHh8qPrVsH+PjhWL2fopDNdkaaa44x80+epP9g9D28Kko9pTJEwt9VDXidM/LRXVSW5imdtdcdxhavEyuHvrP2zb66HuYZcHoiq2zLB/jZXYnwapdwTCRmxSq6g0WWoYHR3WGmxu2fs4S5ejIxaXfPlNJwXnuiKQ20/Srkho/RyXn3rK8U0sdUw9ManJ9fRMXQv9+80WERU3SQvhT2N7OISN2HAgQV1Jx5YJ+43AFJT0/JPoQMMwsAJK10DeJUeTD71mrUIuToRKn2xKkxSeftJ3owoThLyUe9wo9aG4CKQm1e2/fWQr9SkaSO/nevh6yR+BRWy4mB9xbGTUHT1U/fdi1ffJuvQr56zrdo77a/j92qkn0Hn49s1/Up4EJhaUaO5UWGo0A8rixM7cUkv1UlRG15bULrTHbZHsT6Oa+IHEcTeQOsP0z6tvARQOELCITdDj2PQv0Xfr1kFq9hOxc5AEAtIvs8bkoyuX9Qd2+hDQ98vQp1OoJZ106YoigwwpUiNF7EONTnrldfjT8C7USHsQeGohSM0eNOQ+hYHY6Fr9xMh8slaDpQakZtcgk7a2x9qNPlLPC7nRnHu5QWo09/n2AYWTBElR93rVrFeQxemw1IDUBLmHw6db0IlNf40+NbwnVabgjXZ7btiAuNKO33briWI+Myln2Y8iBjrbBFKjE00hy0yITSyRbCMwarC9/W56E1i3HFNPvWGE63IIBJnY8O+GV0HpSpiC0oWkvGekQQjCpw99IpAanWiyLMM4Rk6kxjuTXMWByF2qgdSs3ZwgHTflQAACJQKFQFCJzVBhGdGZdPx+sKy7s0ekw/AZcBbWOZZBanSiybJMBN2TgXTUYHUHQ0w9ySCOvLIIdCU2smXdyt+h7gazl2qfrE3s9d3JFzgLW6hJvqiaNHTi9Eb5MCBWdTjuhQBIzV5wqH2ZWLn6MCGhTEaK5PCXER2KvKOGqL9xLm1A1NxQdHaIlWRi89BLO+hjDU61OmDgiMJFBfruHnosNYhV47RvY5RAED6n4HUrp/6a3E1gLn+NJROTTcml2Z2mSn03p7Dgf1BZPvUTy1J1+NQ0blR/ywwLbtDTHwR4CfXBo/Np3xHBuGXyppbtGq01WkgNYtXsGZy8pFXitp6kGILw7UFP6VMwfqFKTQhO4STR0RLjODiKe6AJPxDG71dAk8SOvlMOKiSdcTZWbwKp8aALc7YK3tvotPJi+sH5AwKDQUyQGtZr7RY9Y593t+dtNkoKnd/BRg6KU7GwHrW05XqQCjFMDDlWYxD8anT9uEBqdCHJ49iQi0/TWbXzm4hG1bWLOmLfAjpy33ziY8UBBcRLPt1KsNS4hSzkBpHQcK/ExdIndhbWRWpYJltrDh2jNoXEkYWXfILpYMZTLhkHTrhq9b6L7hj1sVw55O6OAEhNd0Qcfp98zbqRCWqX28SS+UzEXmrOnVpC507to3xztNsNvMOw6i7DdutCvtxCIKiExuqFAs13bx2kpl8x3DQ7+4dxkLu5x2Id7FfzcWd5/HeKgOafhVM1wl9OEBr5+DRyYz7QIHlNZiwwYKWxkMBRJwJBJzQcjb8gX6+V91MNe0DpdF7W2Z/ey3Jwc4/FOBzIX7zXNVo1gtRo6k8zZkwW86KapIVHjF9kxkII/jQWEjjqQiDohIbbyY7CQ/vrtYrs2Kl+/9K5fYOu/gyPHEP+xTg8jfNMU5AaTVALQiO5JI9vIHrftDQ1xZYYv8mMpSQsNRYSOOpAIAyExmqnbj+1pp1iqYNigqVGBUBz8uHXLOm7ZPbhTSpScr0sSI2GEXD4zCUFtEE26J78nKsGVZVF8D5NV5/Z3zOfmd4UXr1Z47rW3irD9UgjECZCwx1RqHn6qVmDpUa3TpEecD0bFyuKD+LNLZ/peQln7CIAUmMXqSz58jcMZLNhYZYsPS+Z4q1IMqZNTyHenvn2F/rRVWf087bSXmqDpaYXgHDZFgJhIzTcKJ1hEVjeDlhqGAZfU7LT4g9So9ALIDUK4FlF42SInbnV56MteUE78vz9Ld8eTCccEbzNxznSKxIQUEEgjISG26vbp6ZJk6WGAxTyrt8J/DSlh6WRJAThk0Zt7wIgNXvj4eibaZjHSXOakFhpphxcSDd/c1Aq0JcjcFwu1CSWdCMBAacIhJXQcHt1r37i4Huq6eov9iP+45cNduLn6eHVIuL3x2JlFW8xwX9bmvCbzYhzjLAHVEZw7F0AqbGHU/Zc0ptYZhcXlKt8c/rW54M13dQdGx0rNrrLxPfcQCDMhIZ7iGPCsBVVl0Vkh8YXBMaW/w4f2zOY39JV7fSvN5vpmdqdtGGbnojIkRmxYnPLimmN5bWzSusi0yaPGwJSowh4xfTGQ8TUU5mMmDDE3Lvr2qGpSMAy7fIjr44VG37ojTr9RSDshIbR61NkUF7cEKRG3cLC8nRMP7Gc3hJvmXLw6AH0/XMH0IuLd9KzdS308js7U9s09FY2F64njdRKWpAah50NUuMQOKuYuJ9Mlp1J0nMLsjTQf6ytKtUv1AWJbe2mcG4MOpouNBwilRCIAqFhADgmDFtqdCUd00+yupw0voj4j6OCP1u3M0VuXhEEJ8cTB+GrynEMHDcfpMYxdLsLHrv7k60PwbbTPP6zEbZaEYRMXr1ZBqGt0EEPAlEhNIxGvrDS6EwdCZNaxYuCH8uyeSqtM/ZVCS36sI3unddEkSE3HP5Z4s1X9CqC8CkMbI08X0GLEBeVDrrHAzygafb0IVQ21L2NJ3U3G3s+6UY02vKiRGi4p4rFjtq691oKguVzwrgCuvU7g+nHXxlAowaH536U8dcjQWh2yTiw4trGfTLKw4WsCIDUZIUn+8XxV60ZLoICj8+eq9vV1Jb03c4F4OsNXx1IR4uVTmFKTS3BJYhhwjEXdI0aoeE+Y58aJjY6k45YNbr0Of/4PjT3e0Ppws/00SXSHzkOblPJpGyEen+aFsRaMf2k0Cv5+R2TTVPvTUVBHcdFeYUTm369TGzqXrisjV54aycta2ynnW1m558wf7MJ3PreV5il+xUbtPtYJL6XiO98xI7AXnZZaOsKGqHZ1pykD1d30ERhkVBJMfFKqnuvpSBYarpiMmJgnH54wQA64fAiuvfZ7VS7vK3r5XB8dvCIEO++x4nGPRiOBgZLS5Aalf4wY0fLbi8ftP2eLj6lbyquhAoMdss2irgVCz9oFWSmNUVm7DgmchyaphauAUs/7eKMfHsQCBqh+aChnb7x2w00fFCMZpzVn04+qljJ2TdfOAvrTEGy1HRt13Fiexb++/NzTVT1+DZty9i71hGsz9jc0ml/gNQ4RU6UE0u5JTexVKjMhaLnTe1D3zunvwuS9xb51oo2euy1Znrsv817X8A3IOAiAkEkNNNmbaR2YaVs2JCgXz+8NdV6p8SGHYX7CitmLqVLPtuXDijNp//78+ZUgL/ott2cXHFlY0ntXaW4aUp2MnxqJAGzsp8002RCGFpSc8bkYvrJVwdYzXHl+ObSVrrh3s10+e83gNC4gjCEZkIgqISm67Ye/JmJzQtvtTi2PBRqttRkwjNI5489tJBmTRtCvB1DhFMsWSgi1SNJIxDpUSGNhkSBresbRHwaI1yetbvaN+nAQrrpG4MkWiuXlZdislWG/WWQgIDXCISB0FiYWMSGvzux2AwdkJvvpQeV5dNdM4bS9XdvosXCEhzFJPxq+KV5XhTb5mabcvMXoQHRmBEL5cZjHIGUtz9wK9399Hb67p2bQGjcAhhysyIQJkJjNcQiNk4sNmVDcve9dEj/GN1z3VA6XjgRRzIZxEH4kCQRAKmRBMzKblIylFNPTGg4DoQb6Uf3bKY5/97uhmjIBAK9IhBGQmM1yimxKSrILZ8aC6+ux9uuGkw8nR65JKLVR65NHjQIpMY5yJKkxv+bzwlHFNGlp/Z13uIMJXn59QU3r0vt4ZIhC04DAVcRCDOhsYBxQmx0L+m2dAnbkafTv3piyOPZ9AR9yIRrVk3oeRpnsiEAUpMNnQzXJl3dcLBYml2a4XKG08kM5705zTFd3Jh24h13p35/NX20psObhqAWINANgSgQGqtJssQmV31qLLy6Hn9w/gD6zhnuTa13rcvZZ/kofDHDkHx5dqZZlErl7oSsQi8m84xJJL3dgb+WmqvEtBPvjqszfby2g7726/U6RUIWEJBCIEqExmq4RWz4e2/Ow0P6xSgmbi2aNuq2VMh45HpWiBeYDdsSu4NkcrDMVg6euStw5shBeTTpoALiwHlepyu/0C8VCyuYQfrYhiBHbERsVyY1s7zGMcz1gdQ46D0xLKf6S1HklD6tvFi7aXbt5gSd94t1coogNxDQiEAUCY0Fj11i00dE1nYjMVFh8rJCvLh8tLo9FQGZoyCv2mDfIjtuVB4dc0gRjd8vn47czzuSc9e1Q+n0G9amiJcb2DiXKZ4cvA+UxAuxyD3JeX25WTJMz+bA9FB5ZcNbgnDL7fnkk/bDxdvSHZVDaOxwffyVb7jn3rSOsKGkT52KainKhKZr93I7eZuATBYbDuJ3zk1rHce56VoXf95/ZJ5rU8njBbE557gSOusY97dkYfL15Ruj8dLVYZhjFleNXtW9r/A9PQLe2wfT6xGasxMrlw0zzPzfhUXh7583QOtGlbw3TOWcjeKNDdsWhGUMRE3PXCE03G8tYlqnTux3VDYkTmNH5Kemmrr2Z2G+QQ+8sENEKe561vnnzU3u+f6t3ZKgl97eSfUftonNOGO0nyBQbqX+JbHU9NfLImZW2FOMjDdXv/n7JWFvh1f6u2O79Ep7P+ox+4bGHMirnb6s8a2Iw7vf8KfNtOSTdj+QR51AIGcsNF272pqKchLHpqucoHxeIPZ/46B5/Mef3UpnC6vQN8S2CmFPIsgrIgtLdCJIjQRYnDVmJkIzwHTvvP3Te7cQRwtGAgJ+IJBLFpru+GYiNrxT9yAxRRXGxBHHr6raSDf+ZQstb3TnRenas/vT6RXhjmGTNJMIwicxwMP5a5BooO6s7CSsW6Yb8thK8xnxpyuxiXveotR22bpEQg4QsI1ALhMaC6R0xCYulj4NHxBuL4LHxZYq196xiV5d4s4L08yLB9JR+7sTcNTqGzePhmlMPunSFfpu5m4qGwDZIDUynTDTFNObsqRGbgmfjDrZ8uq00nAsmrueQqTgbHjjmnsIgNDswbYrseHp4IRYY10g/GrCntaI1ZRMbB55ZYf2pnCAQna2Zv+jUCaDjG19i0MzQ+A3xiA1Ej1QsX6VCFttBJ7y67bSMKHBSieJgYKs2hAAoekJpUVsXn+vVTgOGxSlnbp/9betNOuJbT0brXiGY3RdEhT/GgfcyqCOUMwQKHaTluIgNTIwGnEHc5sORrCMTmny6rTS8LTTi4vdMQunUR2ngMBuBEBodkPR4wMTm5se2EJPL2yhfiXe32N6KKTxRM0zTXTTg1s0SuwUxU7DHDvH9+TAeG8aMVhqbHYcSI1NoDhbGPxpdFppMO0kMTiQVSsCIDS9w8nE5tZ/bqVnaqP30vHP15rpurs29Q6CRI4+RUZwrDUSeqeymqaYJUCygwBIjR2Uducx5UyAPrxA6bTSYNppd8fjg4cIgNDYB5uJDfvWRDFxTJv/+/NmrU370tEldOKRQfC5lX44DCm/dm0oAr5q7TAHwkBqbII2YcbKA0XWUpvZO7N5fK/RaaXBtJNUTytn/tbn+0XC4VMVCBAaVQSjVf7fb7bQc4v0WqKC4Vsj/3AwOtrlXqqjNRRstwakxiZUsSQdbTOrb9l0rwWl5AAAQABJREFUWWkw7eRtF/74KwNSO6jfeuXgnCY2IDTejruw1PY/czfRyvX295zqrV0TxxXQ10/2OSifPKcR7g/Ysbu3vuXrIDV2UBJ5xKo6OZacsi46GLk29emejfd20hWXBtNO3dF17/uPLhxA5x/fJ1XB0YcU0m3fyU1iA0Lj3hiLguRpszdqbcYln+1DpYN9jO+Tej5ITkEZZuBfrLV2kkNhIDU2gRP0RI7UiD3jmQp5lY4/XM88Me8zg9VO3vQax8644IROQmPVOOXgQso1iw0IjdX7OGZCgDfu/O0jWzNdlj4/TAQs9H8aSval1zhg4vRP5VwgpJEJfwGQGht9OGXaqiGCoBxpI2uXLO5tDNelkt0fpx5euPuzyoenFjarFEdZmwj89KKBdOFn9iY0VlG22Nx+VW5YbEBorF7HsTcEHnppB/GfrsS7hfNGob4lWU4jFI1RTO7l2rfG+VcxSI0N7DviMQfL6byz0nDshaPFG75qWrWhg55agK0QVHHsrTwTmnPEZnvZ0uSDok9sQGiyjQBcS4cAW2vmv6tnE8yiAoNOLfdxXygHjwjEq0k3KvY+B1KzNx5pvxmm5NRTWinundQ19cSEpqXNweuDe02LlGQR/JXsEBqr0VEmNiA0Vi/jKIsAE5t1WxKyxdLmP3Wij6QmpZEcszFNQhC+tD255yRIzR4sMn6S9qfJKMmdCzpITVu7SU+J6KRI7iDAhIY31uvNQtO99igSGxCa7r2M7zII8EqohzXtEXXImHw6abwef0SZNuzJK/cSaZA5+fALlgR+q5497fP+E0hNr5gLj19TMuherzL1ZeA9TcoPUB/jTwpC88k6fcsm9bUw/JIsQnPmlOxTTplaGiViA0KTqZdxXgaBv73SrO1+5b+1RqblZBQNGwC/miyQgdRkAYcvTbh2zSRxUGcNvdTj9PIJmlY9PQlfGqddkLWcKqGxhEeB2IDQWL2JoyoCTS1J+tvLepyG2a+GQ2KEJZkx7AOVra9AarKhI67FOhIOWLGcSbEXFbJe1rHq6TXheFe7TI/zXVZlc+yiLkJjwRZmYgNCY/UijroQ+JuYgnp/ZbuyuLh4CvrqMCzdgqSDZ5J0JaEtAFLTS9fJ+tN00hk5569eVMh4+fCxBTR+P3Uj0pMLsIw7I8gOL+gmNJYaYSQ2IDRW7+GoE4GkiJqhy1pzmp+roKTfgY0pOnGMmiyQml561DAMKW9z4YDTi0R9lw/bJ19ZGK8igIOwMox7CXCL0FiVhInYgNBYvYajGwg89t9m4oChqonDYnzOr5VQ8u/AQybNWHOEapujWh6kJkvPVlSuHScuy0Vw5CeaR4mdhFXTkk/UzbeqOkSpvNuExsLKIjb5ce/Gm1W33SMIjV2kkE8FAZ6G0pGO1xTAVF4X+RfhpIkpqEw4g9RkQkacN83EsVku+35JB6l55xP1txzfgQiIAl4RGqu5TGx+LzbBDCKxAaGxeglHtxF4tq6F5i9R38m7/AD1AKbO2urgxSQJUpMJa5CaTMiI82KoBdYhq6TQIC2k5mNYarIMAduXvCY0lmLHHRY8YgNCY/UOjl4h8B9BbFQTb5nAO3iHIhlGoF+4/cQQpCYL+sIoKE9q5C2JWTTIfOnQfQqIvfZVUnvCpCWw1KhAmCrrF6GxFA8SsQGhsXoFRy8ReP29VuL7mWqqONAva4205gdMvmbdSOlSOVBA8bEYXYSOvPqTQWICSnITS+/wOFREwlRNiz9qw7YIiiD6TWgs9YNAbEBorN7A0WsENm1P0qvvqIelqNAQyNRZ2+UJWUesVf6l25lyoSoFUpOhu/LisWMyXMp42vRw5ZMOUvPWCkw9ZexMGxeCQmgsVf0kNiA0Vi/g6BcC/31fA6kRlppisdGl90m+zpgRl1qZ632b/KkRpCYD7gYZ0ixYflhmqNzG6YM0rHxavAJOwjagTpslaITGUtIPYgNCY6GPo58I6CA1PKV/9CHhmIISm1tKP6P87B+v6gapyYS04SQUtTe0hp2E9x+pHtYb/jSZOj/7+aASGktrL4kNCI2FOo5+I7BqQwfpeFE7+mC/SI3sFJQ55aSZL6g/CPzuOM31g9RkBDS4m1iyk7BqWrGmg3geGkkOgaATGqs1XhAbEBoLbRyDgsDL76gv7fbPUiP9Umxs3XgArDXdBh9ITTdA+OuEa1dPFu4x6swhjWwdp/T402DqSbYvwkJorHa5SWxAaCyUcQwSAq8uUfer4c0tRw6KB6lZGXWJJeFX0x0ckJruiIjvsY7gWmlYXR0/OLbUINlHIGyExmqZG8QGhMZCF8egIbCsoZ0aNyWU1TpUwxY0TpSQnoAy4FfTHWeQmu6IiO/CCBhok96gvurdtn6r+g8/DXSRPBVWQmN1hk5iA0JjoYpjUBF4RcMU1Oih/riqyO4dKFbcIghft4Go/nTsJjAKX00j2CGoB/VT7zbeyBKpdwTCTmisFuogNiA0Fpo4BhmB9z5tV1Zv9FC/pp/k/GpE7sETK1cfptzgCAlQfzpGCAxuyuSrP9lf2GpGyTVL1mgoJ7177sFaLDVwEu6Oa/fvUSE0VrtUiA0IjYUijkFHYMVa9al1vyw1TrAV1p1Azyw4aZNKGZCabuh1xOKBHyCD+6m/RazD9FO3nt/7a9QIjdU6J8QGhMZCD8cwIPDR6jBbahhhuZdkEzt27zUsQWr2gkM4CTuKT9NNiMtfVX1qtu5IUlu73A/H5SYFSnxUCY0FsgyxAaGxUMMxLAg0t5q0VnF63V9LjeQUlGEgsnCXwQlS0wUM/ige9XKWmtT4kxuE3aqU+jqgT4xiir0GJ+HMkEed0Fgtt0NsQGgstHAMGwI6Vnf6S2wkEDfpwPFXrRkuUSLSWRUfj9HCpuLKTQOCvIklo80PGtW0bgv8aTJh+LOvD6Qzp5Rkuhyp80xsbvm22Lc1TQKhSQMKToUGAT2kRn2a3xlg8lb0vHiwF7c4w8FZKfUnpLN6A1kqWdAaeDOe6tQTA79+G1Y+dR+AbKH55aWD6EtH5wahsdo/9fAiqrp6COXH91gbQWgsdHAMKwIfrdHhV+PPsu5UUBFJ4E0CqbEgA6mxkBBHR17k8qS6S43yHwf3VX97WK843yyvdfBL3HjxIDq9ojj4irqgYcpic+XglGQQGhcAhkjPEQi3pUYeLgN+NbtBA6nZDQX70wSf7eqIUbN+K6afunQ7zbx4IH1xSm4SGguHqWIqas70IXRaeTH94HwxCxuA9IGIDjtt1kbsURaAvgibCh9piJgeGp+azs45lmaaeJ4LLABCl1+rMMDLOQlLLr3rUpXjj3p8ajD9ZHXAzy/xZ8qJN967++ntlhqBOE4RuxOD0ASiK6CEIgK8wlN1w97B/cP1eCzfuFLy+aUIckCL+zVpGDg4JlWunJI0jfzAKdZNoRaxXFE1tXaoy1DVwe/y7ENz8zf9mXJ67d1W+p+7N1N7wqSWNpMqz+rvNxyBqh8WmkB1R2iVWSH8agb3K3Ssf0nBHj8zx0I8LGhSanPLVzysMpBVhYuKughhsnNASNbg/aDnh6BqKg7Zj1W1vd3L+01orrtrU4rQsF73PttEVY9v665izn4HocnZrtfe8HZFg3Rxoff3dxUQjKTsTINKbcEtC1Kzq2/E8A2F6U4HqSnKYVITJEJj3RZAbDqRAKGxRgSOOhDoEJZQlVRS6O/jke9VMsnEjt0puPztNZkeczmvGP6hIDU7NUw/5aqlJoiExhrWuU5sQGiskYCjLgTaFbeA8vvlT5aSCQ40uGJ64yG68AurHJAa0XOTr167P5mm5CaW/nR5S5v6yqWwmVV1IB1kQmO1L1eJDQiNNQJw1IkA+6yppBK/p58cqJ/E5pZY/cSDviOWCIWVhnXVMv2UL2nX5IpDnMJAaCx4c43YgNBYPY+jbgRULTWsj+/ERnKFbVjcKHT3dVd5sNQINIwQxKexOm2nDkdhn+eKrbZ4cQwTobHwyBViA0Jj9TiObiCgaqlhnfyegpKNLmzCUgNLTerHFCIHK1hq7N/+wkhorNYxsbnrqWDFsbF003EEodGBImRkQ0DVUZhl++0snK196a4ZZBxU8f3Goemu5cq5nLfUVFz5oQifahwRlg7XEacmF3xqwkxorLF455PbU0u+re9ROYLQRKUng92ODsUl3dy6MN4rEzvN0LhTuDGCcp7UJAtKAr+JZdeO12GpifrqpygQGqvPOYYNW22ikkBootKTwW9Hu4Ygo2ELwMe9Ih7qIDXBH57uaehoE0v31OlVsg5S4/88ca/NdJwhSoTGAiEqxAaExupRHL1AQDX4Huuowy/Hi7Z2rUPEqwnVi3pX3XV8znlLTVji01id3dZuUqv4U0lRtdREkdBY/Rx2YgNCY/Ukjl4hoMOnZsM29RAa6u2Vu9/n+gqonCc1wlKzv/qg81bCqg1qk8XDB8a9VdiD2qJMaCz4wkpsQGisHsTRSwTGDFPf2nDDNrV7rZ72yofgqLgyd52Fc5rUXHDB3/jpvo+egeedlIaNaqEy9xuZRwV58j8U71ooV1MuEBoLkbARGxAaq+dw9BqBMUPVXt42NyUpGQRDjQPgjGJziINikSiS06Tmw2HH7ifdi3KWQGnxdgo0KFpquI79R6m/xdjR1e08uURoLCzDQmxAaKwew9EPBPYZrnaP27A1CFYaEuH3HDx0EpSzy7pzmtTEjJg0qeGHqN9p1QY1Sw3rf0Bpvt/N0FL/zy8ZRKdXFGuRJSPk5Xd2UuWcjb45Egad2IDQyIwm5NWNQP+SGPGfStq4PRhmGhF7RroZgo7BUiONWgQKJE15fxoHnFk7Ug0b1d8gDixVe4vR3igHAm/+5iA6Y7I/hOZ7d25yoLHeIkxs7nsueMu92Q9h2qyNtCkgDwW9qENaGBBQtdJwG4PhT8OaOHjqGLDUMHK5l+Ixh2zWwSDTiG6DBkvNgSG31PzqskH0+UneE5pXhIUmCITGGk63/XMb/TlAxGbHTpMu+n/rQWisDsLRFwRU/WlY6Y2BWPnEmshbagwzd0lN+F/Xuc8dJiNJ68SafgfJUSEH9aQvskqDpSas008xYVH+zeWD6eSjitKD4+LZ195tpR/cvdnFGpyJvlUQm3jMoK+d3MeZAE2lmltNOv/mdSA0mvCEGOcIRGflk0MMDKPNYcnQF1ObdAx585OGuS6MTeBYNesVndiG9I9RmeLqAK+x85vQXHfXJt98aHrD+pa/b6UHXtjRWzbXrjOhuUAQmnVb1KdGXVMSgnMGAR3TT8Gw1Dh9gU58mjOd3a2hOU1qYmZ8bTc8bH31d/KpU0UdK6DGjQyPszAITe9D0y9iYxGaNZtBaHrvJeTwAgEd009hDLy3G1sj/snuzzn2IadJTdwgR5Yap9xZ59hapRirhnUZFxJnYRAa+yPHa2IDQmO/b5DTOwR0WGqWrmr3TuGMNTl7hTbyCaQmI6YRvrCzyBmpYUicDTV9YDZq8KsZNyr4lhoQGvkx4xWx4X3IeMoJFhr5PkIJ9xDgaXXV5dwcNqOpJQhLuh29QjfX3lK6wT2Egy05py01i383UjghmMuddJGjoeakogxl2GlVNY3ft4DyhLkqqAmExnnPMLF55BX3fGxAaJz3DUq6i8AxB6svIvigQT0WmLutzCo9Z600jEpOkxoGQAQ2eoqPYUtvf9xGW3eovUnwG81JR6rfANzADoRGHdVf/c0dYmMRmtWb4EOj3kuQoBuBKYcUKItcujIIU09Om2G+67RkFMrlPKkRtGCes44UE1A+z0G9uVTdWnPi+OCRGhAaZyMyXSndxGbnriknEJp0aONcEBA4+uBCZTWWNoSX1Jhm7DFlAEIsIOdJTazNeM1Z/4lpG59nbl5/T53UnCRIzbABahu/OcMvfSkQmvS4qJzVRWzaOky68JfrCIRGpTdQ1k0EJowroH7F6o+1YDgJO0Mq1t7yuLOS0Sil3vshx6H2rtINgps866wZbKrxz1zz+vvqpKak0KCgWGtAaJyNQjulVInNp+s76Av/u5Z0bNFhR1/kAQJOEKg4QN1Kw07C4Y23ZDxVe9e4rU6wi0qZnCc13JEmJZ1ba3w01/APb/EK9cCRQfCrAaFx/5bilNi8I/y3vv7r9bSlSc2Hy/0WooZcR2DKwer+NMtC7CQsdvQOpY+oznELUiPQ7OhonS0OofQYX7hMndQce2ghHVTm3/JuEBqdP+nssmSJzfvCYfLq6o3E8WiQgECQEeBp9EkHqltqljWG158mLz/v30HuIy90A6kRKC++4wAOwsfExmHyz7lm4QfqU1DcaL+moEBoHA45hWJ2iQ0Tmu9UgdAoQI2iHiJQcYC6lYbV/SCkTsKmSY8t+MOIjzyEPJBVgdTs6pbWZD6Tmvec9ZJ/b7FviBVQOoKf+TUF9ctvDvJlc8qXxW7blXM2BnYvJ2fj0H4pJjZ/ezlzHJv3dhGaYAQgs98u5MxdBMoPVCc125qTVKvB+u1DL7SYZuJmH+oNXJUgNbu6ZMns4U3CPUbBWiME+cRtdFhrDhmTTzqWQsqM8F9fPohOLS+WKaIl7/wlO+l7d27SIivMQn798Fb6x2vNPZrAFpqrhIUGhKYHNDgRUAR4g97PHKEenmK+CGrKxMaPJCwtCsm4edHsfRYoCIhMUZCaLl1ZN6R0NhlGbZdTch9Ts1BKI1Ouvl25X1miZwrqtArvCAYTms9N9K4+C9hXhIVmxh0gNBYev3hwCz06f4/FhpeygtBY6OAYFgTOPraPltAU/MLjedr1yDAcezEYL9dVl8JKs6vjQGq6juCZRpLM2P8Ik4uCp5jhucFmXn0LfbhaPaz32ceW0NTD1B3tukLa/TP70PzuW4N9ITS8tcQP7t7cXaWc//6rv26lx/7bTMuFgyQTmu2B2PMm57sFANhEgPd5Ovu4Epu5M2djCw1bajxPjslMp6aCDIHQdOk0kJouYPDHuuqRz5NpfK/baamvimNUqi4r83OLWqyPSsevn9JXqXxvhX91qT8+NGyhyWUfmmz9wmbvn/9lC11x60bfTO/Z9MM1IJANgXMEoSkdrB5A1JepJ0XDvmGYv6+tKn0mGz65dg2kJk2P180qmyWISVWaS4E99WydHlLDfjXnH99HezthodEOqXaB8KHRDikEuowABw/VYaVhNX2ZelJ4AxYxaV4syDN/6jLEoRMPUpOhy2qry2aIaajQBDL6aE0H8TSUjnTxKX1oUF99QwPLtnX0CmQAASDQHQEmNPsMy+t+Wvq7H1NPpppn8Mp4LK/y9T+M0XPTl0YsuAX0PbmC20bnmiVNJjbLnAtQtC1KVvxsvR4ntzHiJnGxpmmouBhhv7l8sC/LttmH5rq7NuXssm3J4YPsQCBUCBTkCSuNcBDWkbydeup8LhjOPYNJvChWLrx95Ds62h41GSA1WXq0bvaY5cTERtj5smTLcknBtphFaqZLuhyGWT5baw7bRy3KMBOa318JQpOpv3AeCAAB5wiwlWbcKHUrDWvg7dST2nNB+NFcv/D2spzeiTvbqAGpyYaOuCaIzdMUI2GxcZ4UCLl0pbochvPihpK1xiI0xx+uHjtCFgRYaGQRQ34gEC4E+J7KqzV1JN5Dz5dVTw6UNw1jTm3V6FscFM2ZIiA1Nrq6rqqsWkxD3WYja9osalOnaUVmPKnLYZgrOF3ErfnsBHlSAkKTsXtwAQgAAQ0IXHRSHzp4tJol2VLj4Vd2hGPVn0HPDBiyVOkF22pzlI8gNTZ7t6569HeJDMXNwhzOYtnUkbPpdBhmebK+NSA0jBoSEAACbiHAZObKL/TTIv6TdR30t1d6RtXWIryHEIVpJ9P8KNZBM16cebJ6QLIeekXrBEiNRH/GE+3sX7NUoki3rAqDupukbF//nib0fbb82a6N36+AfnzhgGxZdl8DodkNBT4AASDgEgJMaPoV63l0sZXG/VAGfN/nF1rnL7UxilcunFOm8OxxqTMCKFbPyAhgw9xQacGcsR8ZMYPNfwk35OuS+cb7rcQ/Vl3p/BP60KWnZg/KB0KjC23IAQJAIBMCXzu5D500Xn5KPJ083hIk26au6co4O8dkxvkLrWkmr104a9STzurOvVIgNZJ9ztEbxfAM/LzmffOaiB3gdKXKs/pn3EIBhEYXypADBIBAJgR0TjtxHUxoEq7vXemczLCOwh/z9vpZY27nz0j2EACpsYfTXrlEYL7Zgnn/Ya+TAfvSuClBf36+SatWvxRbHHRPIDTdEcF3IAAE3EBA57TTog/b6J+vu+1LozblxD6c9bPKrnUDyyjLBKlx2LtiV9TrxBTpEw6Le1LsgRd2UO0yfRu09RXz2H/98bDduoPQ7IYCH4AAEHARAZ3TTqzm3zROz2dutoKVRvhupnw4MwvHlQwIgNRkAMbO6WR+jKeh3rOTN1MehWGfSeRe5//0nD7fGhZ8QGk+/eD8AQRCsxfM+AIEgIBLCOiednr9vVb6T22wdxcQD+ZK9uF0CdJIi3X7mRpp8LhxEysbPmeYhnDiMhWCJnA3OPeM7w3kn140kHgnW53p0/UdWvZckdUJgfVkEUN+IBBeBJjQ/OqyQTR2uJ7IwYzE9+7cRC+/o2dLmfTIKjoGk3F1fXXpHell42xvCMBS0xtCvVyvryqbJ4ZwoB2H2Wl4c5Nejzgdm8j1Am2PyyA0PSDBCSAQWQSO3LeAbvn2YK2E5qGXdrhMaLg7nNsKxCaXt4DQqA1pkBo1/FKleRAKa41C6Gr3rDSsIFtVmNiEOYHQhLn3oDsQkEOg4sDCFKEZNTguVzBL7g9Xd9BdT23PkkP1knMys6vmf9bPGn29qha5Xh6kRtMIqJ1Ver3YjySwm4zd91wTveKqyVUTkGnEgNCkAQWngEBEETj20EL63bcG0ZD+eh9PTGi27tBrsd67C1ReTo2348lgW/z3bmtwv+kdNcFtpyeaxRJUaZCxxJPKHFRy80Nb6f2V7Q5K+lcEhMY/7FEzEPAaAQ6s97tvDab+JXofTY+8uoPm1bvjHKxCZSx8Y5SYsWB22UrrO47OEdA7cpzrEYmSPChNSq2I0reOWiMy67cm6Jd/3aJRorui5i/ZSZVzNlJ7Qsdtw11dIR0IAAE1BHjX7d9eMZiKCpSncfZShPd3+uNT7k2/q2or7m7fWlg95sW9lMYXxwiA1DiGLn3BuuqRz1PSDGzApCWftNP3/7gpvfIBOsuEZsYdwdczQJBBFSAQSgSOPqSQqq4eQv/7tYEUc+GJxNNOG7bpi66+N8hqlEYQmv9XX102d2+Z+KaCgFqPqNQc8bLl01f+ligWWKcv3s/J7kaVXncVppy8Rhz1AQHvEeBl2l8/pQ+dN7WPa5Vz1OCbHnDJOs1PTyUjsvGwCOJ6oWuNz1HBLvDiHEWyW7Prqsf8QJz6Z7fTgfn6iIioyX9BSyA0QesR6AME9CJQkG/Q5af1pXuuG+oqoWnYmBDTTi6udlIiNFSXH49X6kUW0hgBfRGNgGcPBEyj+UrDLD5AxC04osdF2yeUXwcy1vSrv22lo/YvoAPLFOIGZpQufwGERh4zlAACYUGAl2kffXABHX94EXFQPbdT1ePbaM1ml6adFG/Lwpow443bRqx1G4NclI/pJ5d7veKaVSebMY44TEUuV+VIfF7coDduHeWorM5CCz5opcrZm+AUrBNUyAICPiPARObUiUU05eBCrUH0emvW/963mZ5c4M5qJ946m0T8DqfJNMxv1leNvs9peZTLjoDznskuF1e7IFBe2fht8UO4q8spqY9s5XSzo/YfmUcP3zBcSic3Mm/anqQVa8K15NwNHCATCEQBgf1H5dOgvt57OPz8L1vosf82uwOh4s3YNOjnIgr9z9xRDlIZATeflUC4CwLl0xt+Lb7+T5dTUh9F+GzxcuBedx0+Np/uu36YlE7IDASAABAIEgK/+utW4pg07iS+/zKrcZZEyQfESqevOyuNUnYR8J5G29UsYvnqqst+KH4Qf3faLDcJDevES72/fOM6am13/qN12jaUAwJAAAioIvCHf2xzj9DwlJMCoRH2gzeK8pNwDFbtZBvlQWpsgKQry47mpkuFbWyxLnm65aza0EGf/+la4lUDSEAACACBsCDw4Is76P7n3Quwp+JDIzA0k3Gj8vU/jEHgLQ8GFEiNByBbVSytOWT7rojDLk34WjU5P25rTtJZM9fS2x+3OReCkkAACAABjxB4/q2d9LtHt7pYm9q0v/Cj+fqi20YtcFFBiO6CAEhNFzC8+FhfNeolYcicoVSX2m/MVtWX3rKBXly801ZeZAICQAAI+IHAs3Ut9IO73TSAqE07iZVO/yscgx/0A5tcrdODx2OuQpu93ROnN/xKgP+j7Ln8v/rjrwyg8493L+Kn/y2EBkAACIQRgd8+spUeesktp2ANiBh0b11V2WUaJEGEBAIgNRJg6c5aUdn4sFjVdL5zudx97jv2fueMfnSZiACaL2LaIAEBIAAE/ERg3ZYEXXfXJnpvpZvhHxTvrQa9Wryj4Iz5NcNcDGnsZy8Et248pXzsm5NmmnnbNzQuELRkgo9q2Kr6iH0L6LJT+9JJ4wMZQ9BWG5AJCACBcCPAU+Lub8jLL4oKj0bD6EgmkpMXzR69KNxoh1N7hZ4LZ4ODpvWk6Q1Tk0RPC736OtKNlxrGRDe6b7BJqcebz11+el8aOSjuSF0UAgJAAAg4QWDOv7bT3f8JvuHDTJoX1M8e/YiTNqKMOgIgNeoYKksQgfkuE0JqnAvibvSI1YiamNAwsXFzd13nWKAkEAACUUKAp5nm/GsbzX+3NfDNEu+YP6qfVcaBVpF8QgCkxifgu1dbPq3xZjLMn3Q/H+TvPBXFU1I8NYUEBIAAENCJAJOZv8/fIf4CGwGjW3ONP9ZVl17Z7SS+eowASI3HgGerrryy4a/C4HJhtjxZrylOBWeVneEiOw+zE/GJRxbRIWPc33k3gxo4DQSAQEQQCB+ZSQH/cv+mttNfvHc/xMHweRyC1PjcAd2rF1NRdeLcxO7nw/Cdd+JlcnPG5GLqX4IQSGHoM+gIBIKCQEjJjIDPbEuY8fK3Zo1aEhQsc1kPkJqA9X75jMYKSpgvCOf7fs5U88Fc003RgjyDPiPIzRenFNNnjsBqqW7w4CsQAAJdEFi8oo2eeKM5RNNMXZQXH8Ud98tio8rH9z6Lb34hAFLjF/JZ6i2/ZtWlYkXTPVmy9HLJ6lYmOP6mof3jKXJzylFFVDokjwb3gwXH3x5B7UDAXwSWrmqnhctaafGKdnpbEJq1Iu5MWJOIM/b9+lmjfx9W/aOot/X0i2LbQt2m8umrfiFiJdzguBHcs/5zmh7qlxQaKXIzemhcHONUJohOGR+H5tFocSzIx5DsARpOAIEQI9CwIUFvftBKbywVROajcJOYbt0wu666bFq3c/jqMwJ4gvjcAdmqF/41D4nrX8mWB9eAABAAAkDAYwRM44Vx61499eGHLwyvmcljyLyqDqTGK6Qd1iOIzUJRtMJhcRQDAkAACAABvQi0JExzwluzRn+gVyyk6UAADg46UHRRRsKMfVPMI21VqiKA01BK7UFhIAAEgIBPCJgUOw+ExifwbVQLUmMDJD+z8DJB06AZSjqk7HFgNkoYojAQAAI5j4BJyRn11aOeynkgAgwASE2AO8dSrb5q9H0mGTdZ350dMdPoDDeUAgJAAAgwAuZt9dVjqoBFsBHAky7Y/bOXdhXTGx4Q9paL9jqJL0AACAABIOA2AvPESqdT3a4E8tURgKVGHUPPJNRWl31N7A+1wLMKUREQAAJAIAoIKL2+G00d1I49nUIyDkBqQtJRlpoG5bOlZrP1HUcgAASAABDoBQEFl0LTMM9ZXL3vil5qwOWAIABSE5COsKtGbdWIDw0yptvNnzaf0ltLWok4CQSAABAIHgKq9zrDuKq+qmxe8BoGjTIhAFKTCZkAn6+tLn1AqHejYxVTby2qv3bHtaMgEAACQMB9BPgWp2ChEaV/V1dVeqf7iqIGnQjgyaYTTY9llVc23C9+tF93XK36j95x1SgIBIAAEHAPAeWb2zPCMfh09/SDZLcQgKXGLWQ9kFtXVXax2B/qDcdVwWLjGDoUBAJAIKgI8I1NyUSzrcMwrwhq66BXdgRAarLjE/iriY7EeULJjc4VVfrxO68WJYEAEAACbiCgeEszjeRZi6tGr3JDNch0HwGQGvcxdrWGt+4Y00CGobTcMDUHqXgjcLWREA4EgAAQsIuA4dyrQkRvv6K+asxLdqtCvuAhAFITvD6R1kg4s/3dMGI/ky64q0CKzzi/DzitFuWAABAAAsFBwDB+KVY61QRHIWjiBAE8ypygFtAy5dNX/Vn42Ag/GyQgAASAABCwj4D5VF316DPs50fOoCIAS01Qe8aBXuJHeYlwkPuvg6IoAgSAABDIVQQ2d3TkXZqrjY9au0FqItajeSadKRz/N0SsWWgOEAACQCADAmoTDskknbn4jpHrMgjH6ZAhAFITsg7rTd03Z43emKTkN3vLl/262k0iu2xcBQJAAAjoRMD5KgfTNL+xaHbZazq1gSx/EQCp8Rd/V2pfNGvMkyaZ/+dcuPObhPM6URIIAAEg4CkCN9bPGi38EJGihABeyaPUm93aUjF91Z9MMr7R7bTtrzw4QG9sw4WMQAAIhAeBf4mIwV8Kj7rQ1C4CsNTYRSqE+WqrR39TsBLHplUQmhB2OlQGAkAgOwIGbWhPdDh+2csuHFf9RgCkxu8ecLn+juL4aaIKRSc40BuXuwnigQAQ8AgB0zS+8PacsZs9qg7VeIwApp88BtyP6kT8mlNE/JrnnNeNiSjn2DkvOWJgnD4/qZgmjiug/Ufm06B+MSrMNyje5VXEFHyztd2ktg6T1m5O0LLGDpr/7k56emGL84pREghEFAHxe7moflbZQxFtHpolEACpyZFhUDFt1Y9NETHTcXMDymsmH1RIP79kIA0XBKB7+mhNB11ws6KRqrvQXd+v/EI/uuSzfamkMP1PiMnGG0tb6Qd3b6LmVjlL18Wn9KWzjimhfUfk7UVgMqiS9jTX+fbHbfTwKzvohbd2ps2Dk0AgtxAwflpXXXpzbrU591qbl3tNzs0W184a/avyaQ0HCRp7qSME5J7LjqoIS6HeCI2Ie0GvvbeTfnzPZilCc/axJXTZaX2pbEie2M5LDQ0mW0cfXEhTBOlbuqqdqp/YRq+/16omFKWBQHgReByEJrydJ6N5F0O2TDHkDSMCdbPKLhOk5tUw6h4Una8+sx9dempmCw0TmhcWyxEaJiC/vnwQ/eSrA2n0UHVC0xUrJkeHjMmnW749mH5w/oCul/AZCOQKAutak/lfz5XG5no7QWpybASMW1N6kph1XJNjzdbSXCY0l4ipIfZrSZeY0PynroVm3m/fQrP/yDy6/eoh9NkJxY6nmtLp0v0c63zhCX3otqsGZ5wy614G34GA/wiwiTj9782ubqZhnrZk9vAmu/mRL9wIgNSEu/+ktX/4YSORTJrnSRfsVsBQnR/pJi/oX6d9qT99IwuhSQhC8+SCZvrpn+wTGrbQXC+sJxP2L+h1uol9dFrahDPwFuEM3NC+++/D1R20pSmZchbuDcOY+LUfd2gR/fBCWGx6wwrXg4SA87lvk5Ln11eNfitIrYEu7iIAnxp38Q2kdA4LLlZEXSfegH7vVEF+yOZKYkJz8cl9qCCDhaY9YdK/32ihmx7cIgXJZaf1o4lZCA0TJSYwz9a30Mtv7yR2fM6Wph5WKFZLlQjiUkgD+6Z/X2Fic9rEYmrcmKA7n9yeTRyuAYEAIKBkpflhffWYRwPQCKjgIQIgNR6CHaSqxI7efyivbDhCBOe73JleucFqZny5P110YmZC0yaWUz/40g66/bFtUjAeuW8BnV5RnJEoNWxIUM0z2+mfrzfbljv/3VaxnLuVeCk4T5WdXp5ePpOzL04poddEXl4hhQQEgoYAUxnFO8w/RMTg3wStXdDHfQTSv865Xy9qCAACdVVlVwhrzctKqkTYZNMboeH4MPc93yRNaBjvk8YXCfKR/ue3vLGdbhDTWDKEpmsf8hTVzPu30B3CEtPUIsw9adKowXE68+jiNFdwCgj4i4A6oTFXbzOaL/K3FajdLwTS31X90gb1eo6AWOZ4oqi00XHFEfWt+eEFA7JaaDgOzL3PNtGcfzmbwjnmkELKi/c0rW/ankyRER0WlD/Na0oRow4xPdY9xUTVHONn7HAYa7tjg+9+IiC24lWs3jTin1tedSDiFyjiGNbiIDVh7TmNehumobaxW89ns0btvBfFhIZjxmTyoWHrx91Pb6e7nnJGaD5zRFHaYIFs9Hrzg1atwfLYb4adidMlDljI5AoJCAQGAUPxkWTQWfVVo94NTHugiOcIKI4gz/VFhS4gUDurtM40zWsci069WkWD2fzvRQPpnKmZCc12QWjm/Hs7sRXEaRoknHiLCnritVNMZy3+SK+PC1uUXnlnJ7Ezc/dUJHxrDhYxbJCAQDAQEGNUYTrbMMzrxZT6E8FoC7TwCwGQGr+QD1i99bNGzxGP2bnO1er50HQuy5+STGi+KPxM8tNMC7FG25qTVP34dnpIOAarpNIhccpPM+vD9/Omnel9YFTqW7isjTaLaa3uiWcOy4QuSEAgGAj0JPp29RLW5kdqq0bfYjc/8kUXAZCa6PatdMtqq8u+JV6VXpIuGIECN148kL4k9lvKRGjY1+XWf2yjR15VIzR+QLVATGmtFptdpkuD+4HUpMMF58KDgKBCq2qH3fWV8GgMTd1EIM37opvVQXbQERBLvU8qn7ZqlYgGV+ZcV37jCo/lhgnNFyaXZIzou35rIrXC6ckFena+ZoLUIThGfjc+wVF/DyrLp3+Tnnq69h/v4G3uS8RTXGwR4mm0bTuStEosHdeReDfxk44sSm3JMKR/nHhqi2PicOL6eKXYVmHpWiFi7fA2Ek++2Sy1L1anpD3/M21k+qbYRPTq6o27Mx4rYvbwxqNHjC1IRVJm6xTrsk6sEKtd3kZ/EavXDhqdT+xH1b9k73c8jhP04ItN9AdBZnWku787NLXjendZ9R+20bdu3dD9dK/fvca8V4WcZuBbBd8yHKZELHkKzZzZ0xTpUB6KhRsBkJpw958r2puxxGmGmbfEufDoEJo1ggz89pGt9KJ4EOtKqzclqEX4uhR386uJi2fqsSLi72MiNk1vgfZkdeHNNflPZ+KIyFd9sR99QQT8Yz+hTAvh+Dz7EBUVxFMxdNg5ufJL/ejVJa009z/btbfVaiPvdXXOcSU9trVg8jhmWF7q7wxBxl4RemzYluxBarg/Jh2ox5GaAyOmW2nGcY7mv2t/bAUdcwt7qaMCoaGY8YVFt49ZJlUfMkcagb1fTSLdVDTOLgL1VWPfJSN2md38Yc134yUD6YwsFppP13fQLx/aopXQMFYLl7USW3/Spf1G5NG1Z/cP/P5M54t9pP75fyPo6yf3pcH9MhOadG3kc32LYyL6cTHdc91QukYECtSdOAr0uWkITfd6eIXbkfvmpyI3p1v6zv5PrKdqmiJ2TB/Qp+ftdqOw2i38wJ5zeNAxl8ZI9d3HML5Xd3vp09L1okCkEej5K4t0c9E4uwjUVY261yDjDrv50+dTeQVLL1HHWX7b/cU3B9EZwsJgTZF0l8vTJL94cGsqQm/3a6rfeUXSW2KVE2+A2T2xPlMPKyKeqjj5qKLulwPxnR2qrz+vPw3pr377YHJz2an9tG60ef7xfeiCEzKvYOsO4gdiK4p/vNZMPC3YPbF+E8cVdD8t9Z3HG0+XseWne+J4RHZiEgUd8+7t6v27YDRqt4e/1lWV3tp7PciRawik+ZnlGgRobyYEaqtLrybTeCHT9d7Pq76K9V6DbA5+wPzkqwNTWwhkIjQc0ffGv2yhWmFRcSuxf04m512erjlY+Hn89orB9K8bR9B3heWGd/P2O1lk8KwsDtVOdLSI3O++rb6DOBOH844voX6CjNhJvEkobxfBztRMbronDlI4cVyhkuXsM8LXiCM4d09MbuuEX0+2FAbMs+mf+ZoSo/lUbIHw1cyycSWXEfD/TpnL6Ieg7XWzSk8pn97wqVB1jGN1mdso3cMc17xXQX5AzLx4EJ0stihIR2jYoXUZb1Fw72bX/Dwshfjt/O/zd9CVX+jXw+fDysPkhh+G7OjK0zzrtyX+f3tXAidFdeZf9QwjAyNy68wAkQiGFQ9gQJAYIYjoEk1i1gO88bebiAybqMSNWTfq5tBEwgozA4hJPCKC4iYqkqgr6CqoHDM9Ei5XCcglyDGcMzBH137/goaa6lfVdXV3Vff3/X4z3V313vfe+1d317+/9x1i3edN4l0qbrmktsGTo218DCePqO6NelIy7KAHlqfNXzZreXFws1669rivCAjZMHLYvZisFbB6wPphFKx1CPmvYIyH/uisMKheVw/ylelC22F2BQ7DH204Tl5BbspoDkZfJ1wD1Mpa8L67yDdsPclI1lba3lxEDtNWEgbMreafinOx5sYRqdDLOrMDASY12XEdU7qKfJE3olm0/N31ICEgNFhbU7Mq3qppSDmhieOIMgvwobGKvIq3BZFAoUr8YVvqZzd1FAcoegkkDBE/dqp4x3W5ecSWzgiyOMgIDcggrBwVrx0UH65PtG7B6Rl/L7xzRJs/fIZALI0Zm6H7Cqogjq0/YONGgI9ejjviHhN/XVUvFtcePYkfMEREFCw0nxMRg4Dc3DiiJcGhFyRnAJExN6QGzsEDJJXYY4QZiC2sNWYSFszN5p+K45QkdHTt7N6bU6GbdWYHAq2/AbJjTbwKnxHYvmLq/rOG3PcJ/Zq+zmfVntWVdsnXbvLt2yb+Oq87HNNuRMksNPFJ5FHSva8Qydi8q1ls3S135I239esRUVUdKXKoL4Vyy2pBmY2DbZFCsjz16JovhpIl4Hpy3B0/sr0YTlE2XSj3zE6KsDpy1PyGaaZXdhw3ZmyBFXdO/A0E6wxCtO+ds08jI7L++mOYE8gFHi/sXZBgpQIGsIysJKKG62cmVtc93geRa//5wn6tnAWIEgTjriFr1+vLG7Sop79tosSEJ8YBSfxqcT6FpRe0iuSCFQkRUyBsaONExpBla9RFlNAxvzWzx5jISm32Pgsi5k7WLW3bGgJpE6uDlGDvhzVVpfOt2vA5RoBJDb8HbCGwc+W0NcVDp3SkxsNsdUhTI6ubG24cMO8/OqGTQL0lmZXBOM0iIkddz8gTSz5GaQHj2dS8xrbHXgopPoduqNimwE3UqcRvvCVE8oZSyPS4kUVkASrUCAK2WOI3bqd60f422v6CX0gETEonsDb8T7RBIw5WFgddl5NPQSxwo7/g7IIEMte+raLl8YlvC53spHtidd3RDNmff/ungxqB0nVr9RSOwUZcsDWGbTKQGL0gJB3XCA7eTgRbh/0kpSg2bGsSVQvNa4cFEXMn6/a7LV2NedVVpff7rZf1ZR8CiT9vs2+NvCKfEKBog3vIN2axT+pSrga3JRCa4ZT7xQ6hiU+orM9pYgrlOEmnvEK5acY/tlu8QMne9ltYKOzOCQ6z+LWPm+rc+7uJGRO7aP4idvvH28HKhQR2MivStj3NWmFPp4QmrvspKgi6nCwy2L7SC8ZCvh6M7Uag7wOyqrxZ7TyJ4RurGsQmstQZBSRnUB9nUVD9v9JGnE+kzSjJctOEEXPjGv18TZdzE2U7v8lPnawrexFgUpO91zYlK6OCcaNJ8ecpUe6zUtzUER4tIzTYNjHLFYP2o8jnAj4N6RSQg2lkXbjm4V1aFtt1W5oEboBeBb4rSP5WObGzFsruhCxcPqBQ2+IyzgE5XZbQNpLXJIHQISNFZ3XKExjbjUDfRxLfHru6ouTkLMtZc05xG82yZFcPHIS7SpyWk+WmCSPmdjFx167gUnf9uFcuIsCkJhevusc1K/kFl3hUkZbuICeyrRwQmjfJIfhX8w+IXbQ1IxNsA908qn1GQqlxU36e0vff+vhucfkDO8WjLx3QnFixXYK5uxWQm6vKCsUz93WzbbU5r1cbzXfHOCbmYrU9ZGxv9noxRXHB98Uo8BfC2G5k36EWsZp8ZdwK/Jx2H0gEGlFVg89NtLyYjYNtLKMzNKxIH9PcrHLThBFzMwy8HlfVlhHRym47vOrh/rmDAJOa3LnWvq20+oluX1Bivmt9U5hGRajn85eV9eLBZ+vEe2uOks9Ng6k1pCc54WIbyollw++lgOC8TKHEk6r2iit+ulPc+OiXWpQRtm3ckByQPPju/Py2jpr1Jtl84ThrcKXRuiDHDiKHvArWh20so2BMjO1GUIYiHtHkpj8Ix8YvEnPWgKCAqNgRWMb6lCSSMuTFqaVaT1YSRsyt1uP6nCrKo1W93nPdnzvmJAJManLysntfNCXme4XuO49515Q+DU20ZbLwo3rx0POn8qBULTwoaugmY/TrwKxAAOBHcecY/9P4u101tnsQ7nw3FW0Eybn6oV1abSpYTUByZOuQjYXQ53u/d4alJQrbd8YQ6bguFMj0S+CAK5t3VyqM6YZQ7iBS41VQlwqEyyggKiAsyWQQ+WV1aEdvIIMky00TVswNy/Thpfo8RTpV+aCIVeQYAu5+CuUYSLxcOQLkvPdAWfn2Mvrqv0LeIjhH4ZsCZ9xfLziQMKnZiw5pxQ1Lqc6PUdqQ0yoy1OJm9CoRoqAJts/m/+8R7Q9zQ6K7Gy5rLy7t31bAL0W2/RZfA26gk7/TQdzz5L74oVaP3Yn4GKOA4g0Qqoy/VAoITf8TuWTsjgPiusekrpZdHWiH3D/wuQJGegFRAWFZRhFrVjKQyLDRudpObpowYp6IA8hcIiFMbGd65LOayh63mp7lE4yABQJsqbEAh08lR4CIzRjaitqUvGXmWoDQzKMbv4zQYFbYbnhu8WFxuCHRjwLnO7SLaDlgglCqAPOxElhyHiMfHFhwfvz7fWLD1iapFQQ6QHiQ4ReVrGXSvWNEmv1X1jYVx0AKjNl9UzGOTCe2r7C9BiKiF8wJhMVKRlMCQSRVNAqi2pAk0UqyA3MDaFYLlpxTlchwyWE+xAjYQoBJjS2YuJEVAo0t7cqszts65+170HSIY0RoniOn2xmvHjRtgxPwW0H5ATNHXGw7oKRBmOQdyrVz8292ixffOyKAg0zgEP0NyuETREFumNMlWzhWc20i95wde71vP2GMlVQ9W0Z0QVhAXMxkCDkTy0pBgCgls/CY6UzXcTeY+zk3yhg8PFpRvNtPnawrtxBgUpNb1zslq/3brI515E36j56UJ7ofeFKHzvCJgP/JrNfNk5zpB3mW2socRNEGVg2UCZh0TQd9l1A8f/zlA1qJAmzNyATZjJFTJVuk2Whecbmwtymx4MYvEp2YQVhAXGSCLTMUwDQ6VyfLTSPTlWvHVKFMjFb1+DDX1s3r9RcBJjX+4pmz2mpmlLxBi3/YCwBW/h9u9CJUeA4leLMr2LqZ9+4RLRutrA+iX751caEtR1FZf2TPnT25i5j/k27itYfOFO9PLRbLflssltLfjeQHk0r5w1uHtGKYsjE6FCqaT5HsXK4fQ6V2IxkEYcG1lDkxo/ClrCL3HnLihp9O1oqcL9teLhGaZ6OVJbNtd+CGjIAJAokbvyYN+TAjkAyBmsrSRwaVbxtKdg1XVhtZBEyyMf0+D2dgpLVH4j1Z0j5EA931rQ4iunGPNDrGaj5nkuPu13q00Xx09O0QZl4icVLWt/H6HFYr+IicRxYZOD/rBWStJ1W3tisIS66g7Txsa2W7IApKRlRQcwtJ8hYub+08jsKXRj8gvK+RN2ctlYZwK4HHvPVbytkyFfFJtKLkDmeduDUjIEeALTVyXPioSwQoamEseab+3WX3QHRDtWmr5Gj9iJj82w3OyyigGOJRIgRGQUkDJ6TC2N/u6y0UwQWfE6PAQpYv+SY4VK9K55tPQWKdJZlyjXqz4TXeB7L3Aqw0w6h8hF4QKdWfEgYaLY52ctPE9eQi5rG8xkDVk4tfC34MJwKSr7JwLoRnHRwETitQz/c+Gy8//byNDqvG7988ZFlGYST511xHlbGdCCwlh00qZyOyyhg+7ER3Ktoeomgw49YLxoGlB+HiuSI1VDbBmLMGxOUfyKKnv2YjL2wrEJJtlGS5afTtcw7ziDK49onepxJH6cHg54yACwSY1LgAjbtYI/Dhf/VsiIjIN61bBfssolQWLjfPNgxn0TuvKCKH0da/1pOtCjc4mWBba9SA1EYh5Ru9V09MpJmChZC4zyhRSkpYJzmOdrJsucb+2fIald5l160bVXNHfae4IFGjMa8PfJZR2dtIiuJ9jI/hwtzrDw/1B+SLV23EgF8zAl4QsL+R7mUU7ptzCKyqLH534KTtP6FftC6zDidu06QbxKfJuRZRQUiNb9xSwFzwq3zCmCLylbB/0/p0e5MYThlpZX4toy4qFC9SPh27N0CneMCfBiG7RmkgyxRKC8gEW1bwMTIKfICuGlwoUNXaq0y/q7NGDhAhhGKPh+pjVDqhRdv2QWLBTAuuB7agECWm54XwnYEPzQJKBwDHYRS8NApy0yxda52bxtgnPJh7+ow+TVvVc4xr59eMgFcE2FLjFUHub4pAtKr013Tyz6YNAn4CN7On3zosvjQpegmiU0a/zn8w1n7+Gjie7pEUSwQU8NWZ/O3UhIxjewtWBf1NOQ4/MueuoigfmSB5nyzHjV/5ba6kApsX9i4QBfmKltsF2znnE0EAYRpD54Iiy+i6gaDoRb8FhUKXKHhpFDe5aXIA8/UUVHCnESt+zQj4gUDip9APrayDETiBAH15fY+efhZWQOAH8xL9Epfd2LEmZJj9ziXttGgpO2vEL35UaZZFeiHaCromXm2fJNkZE21up62yHl0SDbPJUveD7MB6YhTc0IeToyxIiRcBeQFBMkoz5dSJki9LUATFT2VFMlGfCqRswFeJmFEUmV7c5qbJdsyb2+YN0ePEzxkBPxFI/DbxUzvrYgQIgZqKknPDDAQS+CG9vYyIYF24KV9H9aHsllF45YN6Uydk+GTcPrpI/OzmjtI8KE5xRJQOdIF8yELUUSfp7aj59gjCkGuI2Mjy2aF8xAQiS3bXbZw7EhkOI+uRbGtvN1mz3l1tPi+jrnS8XrbuaEJF90LCt6xvAVUUT9x6cpubJtCYyy6WE/Dz8i9aPfWszO8pOpkztw0VAkxqQnW5QjpZRaHcWuolnmbf+kewJ1VuOiOJH5LzmQkcZ1Ec0o7A+rNoRYM0sgj94W/z7aHtKElfd3HLqCI7KqVtLiFLylM/7KrpMvrwoANKQoA4YD5W8jrN1axIJNb98C2dNJ8SKx3Gc8gDdP032iVYN9AOBApJ72Sh1EY96Xy9isomGK1W2M4DzsatJ6+5aQKLuRmzt3Eh6LL+c830M1fbaMpNGAHXCCTGH7pWxR0ZAXMEvlgxbVvJxVMQunmVeSvnZ0ppS+WbF7UV7dsm8vM68oGAE6cfAl34PodjqDHCBfrxA7aYwpzbFkSSkgS0X0POxRfQtgXmL/vxi2OwhAzrdxrd/NuLc084qW6yIFbQC8fm8SOLxJTrzhDjRxSJbuTMLNOPtuvJX+Y/nqsjcoVX5oJaSp2K8sjXpY3IMzjlQDccpi+jEHfk26mlSB8rgeXoR9eeoVmjiiTXDH237mkWv6Fq6sDcTMyuO9YCx9xPt5sTUDOdyY7Dt6r/CYdgPabtToskVOSGP9ZLlJzw/8gx3I0EEXM364j3URXxuygl54y/5kdGIFUIJG6yp2ok1pvzCFRXlkwvK98+lLjB+DCC8fJSinLp3UaMHdxOupUDn4prhhaK2o3HkhYuxE1vKtVk+uUdnURfsnbob5J6bHAcie7GDinU/hqbjyfE23MwJlp0tZy6kG8HCAMIl5kuvV5EO81edNB2pBXKLKHOxZ8AAAk8SURBVCB6yiwSDHMsp+0klHtY9Wmj+GjDUQHLxi4iAghXhyPtsH5tNZLWqShiOkfkaZm75IilVUy/jnQ/r6Uw98uoACiwtpJtRMwW13qLDMsezJU1lDH4X6zw4nOMgF8IMKnxC0nWYwuB6srSm4jYlBGxCaWfzR/ePKxZTWA5kQlyl5RTBNO2PXVSx1J9H2xn/fszdeKn4zpqjqZ2yAiihPAHK45bQcgwCJWTitEgYY88v188cmtHMbiv3A8G84fVJk7AnM4PjrUL3q8XII9BFeSsuXZ4O63chdkcneamMdMTDMxB3ujT6kGO7aor89CduzICjhBw/83oaBhuzAicQoCIzddow8Z8b+FUU/Nn3r5nzfUmOYMIGPjXyJLVxbv2IafRO6+05wsDYvOvs/aKVz+sT3BCjevz6xHbZ9UUUXTfnH2OCE18fFhdHvrjfvHBenIc9nb14ipPPuIG/jQ5ZFctPHjyWBCfYJ5IpidznI7P101umnhf42PmMff4QYsp561d0N96T9K4aH7NCHhAgEmNB/C4q3sEYrGYt19v1tZ/9xOz0fOdj49qJERWQgDdEWWEYofjRtgro4Ab5c/n7Rf3PrVPIEeJ34QBZGYvbVdVEmH4/vQ9nrZ2cJMFCXvyL4cEall5FcwNWzWPvrjfUUV1r+N66Q+fHWPOGr2+z3Y0uSKNeh3656HFXFEn1MwsWa9fCz9nBFKNADsKpxph1i9FYOfKaTuLh967kyw2V0sb2DqokKNtXlochY3TSeboi2gjRAZt3tVMKfaTeOKeUI4sun9aVi9qyG8DzqddO0S0rSY721LG+eE1qn/DsXjuO4c1h+CV5OPil2COyCZ8Om2DFXfOczxPkBlYu1Dp+8Fn68S6Lc4cajPhKBzHDtcTOXpKqVK3UbCF9hpV7obvjd+SacwdrUdRnqypKP2Foz7cmBHwAYHET6UPSlkFI2AHgZqKHk8OIsdhajvBTvvENh5N44kKbR+BdWXuksPi7DPzNUdYWcfu5F9zM4Vko54P2tsVhDPjD4LaUiMosgjFE+Gv04kcchFlZIzAgnXnKN1Q4WgLIrXik2Nabh2rMHS78zFrBwvCI3PJz2YuhbRREj0U+UQpAZCxQiJlmGdcQLAajsUEHJxBYN5YVe+rNSM+TroeV1AYvCzhntvcNHbnHRLMP6bcVHfZXRO3YwT8RCCDRnw/l8G6wowAEZu1NP/zwrwGnjsjwAgcR4CyiIPO2mfxDBwj4CMCut9SPmplVYyAAwToS7A/Nbe3R2Oql79DTaHhE4yAbQS8/c6NRdogqpE/jLbx5oZ+I8Ckxm9EWZ8rBCi7yvmuOp7s5O3L+KQafsII5DQC7vmIqqi3187o/mlOw8eLzzgCTGoyfgl4AkCAEvNtUFT1DkaDEWAE0o+AeypzfK6qqs6KVvR4Lv0z5xEZgdYI8M/b1njwqwwjMHDStpmKokzM8DR4eEYgZxBQabeILKVe1hulLeRBXhRwX0bALwQ8vZP9mgTrYQT0CJDjcDW95i9JPSj8nBFIAQKw0Hi9CRCh8aoiBStjlbmKAG8/5eqVD/C66UuSEvOpzhKXBHg9PDVGIKgIeGUjitLSJ6hr43nlJgJManLzugd+1bHmvFDWhgo8sDxBRsAvBGLKLdUVvTb6pY71MAJ+IMCkxg8UWYfvCNTOLt5MSsd5V+zVBdL7DFgDI5CFCFRSCQRKu8jCCAQLAa/Wx2CthmeTdQgMKt82jXb97/G2MD88B7zNgHszAkFAAF/4PtD8VbRFPCQI6+E5MAJGBJjUGBHh14FDoKx8+1L6Iv66t4kxsfGGH/dmBI4jwI7B/E4IMgK8/RTkq8Nz0xCoriy9lJ4cL4bkGhPi70zhXaPHHRkBIBDLj/RmJBiBICPApCbIV4fndhKBvFjj2SdfuH3ig93d7dDcjxEIOwJUWX187ROar1vYl8Lzz2IEmNRk8cXNpqWtnNl7Z0wV3/VvTWy28Q9L1pT9CCjTo1Wl87N/nbzCsCPA3+xhv4I5Nv+B5dt+RdlPH/B72fggsCHHb1RZX2YQ8PvdrCyvqSwZlpm18KiMgDMEmNQ4w4tbBwCBQZO3v00M5PIATIWnwAhkEIE4eQEdh9E9NbScHYMzeIl5aMcI8PaTY8i4Q6YRqKkoHU1zOJyWedB9QrtVnPyHJ/zHGGTiPYB3vPZGPPHWjz+Pk5sTh318yIuJXj6qY1WMQMoRyE/5CDwAI5ACBGL5jT0jzQV1KVDdWiXdLzRz5ql/rc/zK0YgrQhob8S0jKiIyA0rZxZvTctgPAgj4BMCbKnxCUhWk14Eap/ovV9VlRHpHZVHYwRyAwFFVX9RXVm8IDdWy6vMJgTSR/uzCTVeS2AQGHD3liGRSN6KwEyIJ8IIhB4BdXpNZY8fhX4ZvICcRIAtNTl52bNn0bUze61U1Ra22GTPJeWVZBABVVFmMaHJ4AXgoT0jwKTGM4SsINMIRKt6vacoypWZngePzwiEGQH6DE2LVpTcHeY18NwZASY1/B7ICgSqK0reikT8TM6XFbDwIhgBmwgov6TP0H02G3MzRiCwCDCpCeyl4Yk5RWDVjNJXYxEUvlT+7LQvt2cEchSBalr3OEqu92COrp+XnWUIsKNwll1QXs5xBAZO3nabokamUF6PCxgTRoARSEBgP302ph5UGqZ+VtHXY7HYBN18gBHIGAJMajIGPQ+cagS+fv/u0+vrm36sCJXIjShM9XisnxEIBQKqeEaNRB6PVhSvC8V8eZKMgAMEmNQ4AIubhhOBwZO3D2xRleuJ3FxLK+gXzlXwrBkBLwgoO4Wi/reqRhZFK4v/6kUT92UEgowAk5ogXx2em+8IDJi0dWyeknejqhLBUcTpvg/AChmBYCEwXyixBce69Hh97cNKY7CmxrNhBPxHgEmN/5iyxpAgMLB8xz/RB4Aci2O9VBHpqSiip1DV4pBMn6fJCOgRQMmQLfS3lQj7ViLsqyONx+ZVzznngL4RP2cEsh0BJjXZfoV5fY4QKPv+qjaR9j17NjU1ciE/R8hx40wgoCixLxtbCresndk9PQVeM7FIHpMRYAQYAUaAEWAEGAFGgBFgBBgBRoARYAQYAUaAEWAEGAFGgBFgBBgBRoARYAQYAUaAEWAEGAFGgBFgBBgBRsA1Av8PgEQ0Q+4KOl8AAAAASUVORK5CYII=;" parent="1" vertex="1">
          <mxGeometry x="86" y="534.88" width="35.55" height="27.12" as="geometry" />
        </mxCell>
        <mxCell id="r69CpFzEZrANOwJ_eQuK-8" style="edgeStyle=orthogonalEdgeStyle;rounded=1;orthogonalLoop=1;jettySize=auto;html=1;exitX=0.5;exitY=1;exitDx=0;exitDy=0;curved=0;" parent="1" source="5ZmyMMEixGDpB4YJExST-11" target="5ZmyMMEixGDpB4YJExST-19" edge="1">
          <mxGeometry relative="1" as="geometry">
            <Array as="points">
              <mxPoint x="441" y="410" />
              <mxPoint x="258" y="410" />
            </Array>
          </mxGeometry>
        </mxCell>
        <mxCell id="r69CpFzEZrANOwJ_eQuK-13" value="" style="shape=image;verticalLabelPosition=bottom;labelBackgroundColor=default;verticalAlign=top;aspect=fixed;imageAspect=0;image=data:image/png,iVBORw0KGgoAAAANSUhEUgAAAfQAAAH0CAYAAADL1t+KAAAACXBIWXMAAA7EAAAOxAGVKw4bAAAEvGlUWHRYTUw6Y29tLmFkb2JlLnhtcAAAAAAAPD94cGFja2V0IGJlZ2luPSfvu78nIGlkPSdXNU0wTXBDZWhpSHpyZVN6TlRjemtjOWQnPz4KPHg6eG1wbWV0YSB4bWxuczp4PSdhZG9iZTpuczptZXRhLyc+CjxyZGY6UkRGIHhtbG5zOnJkZj0naHR0cDovL3d3dy53My5vcmcvMTk5OS8wMi8yMi1yZGYtc3ludGF4LW5zIyc+CgogPHJkZjpEZXNjcmlwdGlvbiByZGY6YWJvdXQ9JycKICB4bWxuczpBdHRyaWI9J2h0dHA6Ly9ucy5hdHRyaWJ1dGlvbi5jb20vYWRzLzEuMC8nPgogIDxBdHRyaWI6QWRzPgogICA8cmRmOlNlcT4KICAgIDxyZGY6bGkgcmRmOnBhcnNlVHlwZT0nUmVzb3VyY2UnPgogICAgIDxBdHRyaWI6Q3JlYXRlZD4yMDI1LTA3LTA5PC9BdHRyaWI6Q3JlYXRlZD4KICAgICA8QXR0cmliOkV4dElkPjI5ODExZTlmLWJiOTctNGRmYS04OGJkLWFjNmM0MjdiZGI4NTwvQXR0cmliOkV4dElkPgogICAgIDxBdHRyaWI6RmJJZD41MjUyNjU5MTQxNzk1ODA8L0F0dHJpYjpGYklkPgogICAgIDxBdHRyaWI6VG91Y2hUeXBlPjI8L0F0dHJpYjpUb3VjaFR5cGU+CiAgICA8L3JkZjpsaT4KICAgPC9yZGY6U2VxPgogIDwvQXR0cmliOkFkcz4KIDwvcmRmOkRlc2NyaXB0aW9uPgoKIDxyZGY6RGVzY3JpcHRpb24gcmRmOmFib3V0PScnCiAgeG1sbnM6ZGM9J2h0dHA6Ly9wdXJsLm9yZy9kYy9lbGVtZW50cy8xLjEvJz4KICA8ZGM6dGl0bGU+CiAgIDxyZGY6QWx0PgogICAgPHJkZjpsaSB4bWw6bGFuZz0neC1kZWZhdWx0Jz5BSSAtIDE8L3JkZjpsaT4KICAgPC9yZGY6QWx0PgogIDwvZGM6dGl0bGU+CiA8L3JkZjpEZXNjcmlwdGlvbj4KCiA8cmRmOkRlc2NyaXB0aW9uIHJkZjphYm91dD0nJwogIHhtbG5zOnBkZj0naHR0cDovL25zLmFkb2JlLmNvbS9wZGYvMS4zLyc+CiAgPHBkZjpBdXRob3I+RXJpY2EgU3VuZGJlcmc8L3BkZjpBdXRob3I+CiA8L3JkZjpEZXNjcmlwdGlvbj4KCiA8cmRmOkRlc2NyaXB0aW9uIHJkZjphYm91dD0nJwogIHhtbG5zOnhtcD0naHR0cDovL25zLmFkb2JlLmNvbS94YXAvMS4wLyc+CiAgPHhtcDpDcmVhdG9yVG9vbD5DYW52YSAoUmVuZGVyZXIpIGRvYz1EQUdzcjgwSUpNOCB1c2VyPVVBRGp6WUhPdXIwIGJyYW5kPUVyaWNhIFN1bmRiZXJn4oCZcyB0ZWFtIHRlbXBsYXRlPTwveG1wOkNyZWF0b3JUb29sPgogPC9yZGY6RGVzY3JpcHRpb24+CjwvcmRmOlJERj4KPC94OnhtcG1ldGE+Cjw/eHBhY2tldCBlbmQ9J3InPz4jvt56AABm4UlEQVR4nOzdeXgW5b3G8W8SEkK2NyQQRXEfjnihRUUFh11ate6iUFC7WNuqVTvuimIXi6C1LlO1ao/Hc9qDgoAgCooLalBGUFGohWIZrQKChhDyZk8gyflj9FxtqUDI8szMe3+uy/+8wi0mc+eZ9/k9TxoiIiISeWmmA4iIiEj7qdBFRERiQIUuIiISAyp0ERGRGFChi4iIxIAKXUREJAZU6CIiIjGgQhcREYkBFbpIjDi2nw0cA5QABf/wD0DVl/8kgS2uZ71lJKSIdAoVukiEObbfCzgJGAacCBzXxi/xNuABbwKvup61rWMTikhXUaGLRIxj+8cBpwGnAyd08Jf3gIXAQtezVnXw1xaRTqRCF4kIx/ZPA+4CjuyiP3IlcLXrWaVd9OeJSDuo0EVCzrH9I4EHgZGGIiwCbnA96y+G/nwR2QMqdJGQcmy/BLgb+J7pLF/6H+Am17PKTAcRkZ2lmw4gIjtzbP9GwCc8ZQ7wA8D/MpuIhIxW6CIh4tj+mcC9gGU6y26sA651PWuB6SAiElChi4SAY/v9gIeBMaaztNFi4HLXs9aZDiKS6lToIgY5tp8P/Aq4xnSWdroX+KXrWdWmg4ikKhW6iCGO7f8ImAr0Np2lg5QBt7qe9ZjpICKpSIUu0sUc2x8MPAoMNJ2lk6wCLnU9a7npICKpRIUu0kUc2+8D3ANMNJ2lizwJXO961mbTQURSgcbWRLqAY/uTCcbQUqXMAS4A1jm2f6vpICKpQCt0kU7k2P5YglX5wYajmPZ34DrXs+aZDiISVyp0kU7g2H5/4BHMHdcaVqXAZa5nrTUdRCRuVOgiHcix/QQwBbjSdJaQexCY7HpW0nQQkbjQZ+giHcSx/Z8CH6Ey3xNXAh85tn+56SAicaEVukg7ObY/lGAMbYDpLBG1mmDMbanpICJRpkIX2UuO7fcF7gPON50lJmYTnA+/0XQQkShSoYu0kWP72cAk4EYg23CcuKkHfgPc6XpWg+kwIlGiQhdpA8f2JxAUzgGms8TcBuAG17OeMh1EJCpU6CJ7wLH9AQSfkw81nSXFLCX4fH216SAiYadCF9kFx/aLgGnAT0xnSXGPAre4nlVhOohIWGlsTeRrOLbvEIyhqczNu5RgzO1npoOIhJVW6CL/wrH9McDDQD/TWeTfWktw2lyp6SAiYaJCF/mSY/uHEoyhnWU6i+yR+YDjetanpoOIhIEKXVKeY/u5wGTgZtNZZK9MA6a4nlVnOoiISSp0SWmO7X8XuAvoYzqLtMsm4CbXs6abDiJiigpdUpJj+4MIdk4PMp1FOtRygjG3VaaDiHQ1FbqkFMf2SwhW5D8wHEU61+MEK/Zy00FEuorG1iRlOLZ/A+CjMk8FPyQYc7vedBCRrqIVusSeY/unE+xe1xhaaloHXO561mLTQUQ6kwpdYsux/X4E8+RjTGeRUHgeuMr1rI9NBxHpDCp0iR3H9vOBXwDXmc4iofRb4HbXs6pNBxHpSCp0iRXH9i8BpgIlprNIqH0BTHI9679NBxHpKCp0iQXH9gcTjKENNJ1FImUVwZjbctNBRNpLhS6R5th+H+Bu4ELTWSTSpgM3up612XQQkb2lsTWJLMf2byHYwawyl/a6CPibY/uTTAcR2VtaoUvkOLZ/LnAPcIjpLBJLHwPXup4133QQkbZQoUtkOLbfH3gEGGk6i6SEUoJrWteaDiKyJ1ToEnqO7SeAXwNXmc4iKel3wM9dz0qaDiKyKyp0CTXH9i8DpgDFprNISisHJrue9ajpICJfR4UuoeTY/lCCMbQBprOI/IPVBGNuS00HEflXKnQJFcf2+wL3AuNMZxHZhaeA613P2mg6iMhXVOgSCo7tZwM3AzcCPQzHEdkTdQRX8f7G9awG02FEVOhinGP74wkOhznQdBaRvfApcIPrWbNNB5HUpkIXYxzbH0DwOflQ01lEOsBSgs/XV5sOIqlJhS5dzrH9IuAO4DLTWUQ6wcMEO+IrTAeR1KKjX6VLObb/M8BHZS7xdTngO7Z/pekgklq0Qpcu4dj+SIJT3vqbziLShdYSnDZXajqIxJ8KXTqVY/sHAfcD55jOImLQXILz4T81HUTiS4UuncKx/RzgVuAW01lEQqKB4FKhqa5n1ZkOI/GjQpcO59j+RQTzufuZziISQp8R3L3+pOkgEi8qdOkwju0PJBhDG2w6i0gELCcYc1tlOojEgwpd2s2x/V4EK/Ifms4iEkGPAZNczyo3HUSiTWNr0i6O7V8HfITKXGRv/YhgzO0a00Ek2rRCl73i2P4YggM0+pnOIhIj64DLXc9abDqIRI8KXdrEsf1DgQeA00xnEYmxBYDjetbHpoNIdKjQZY84tp8L/BK43nAUkVTyG+B217NqTQeR8FOhy245tn8xMA3Yx3QWkRT0OXCz61l/NB1Ewk2FLl/Lsf1BBGNog0xnERFWEIy5rTAdRMJJhS47cWy/D8EY2ndNZxGRnfyJ4P71MtNBJFw0tib/xLH9ScDfUJmLhNX3CMbcbjIdRMJFK3QBwLH9swnOmT7MdBYR2WM+waUvz5kOIuap0FOcY/v9Ca41HWk6i4jstcUE8+vrTAcRc1ToKcqx/QTwK8AxnUVEOsx9wC9cz6o2HUS6ngo9BTm2fykwBehlOouIdLgtwK2uZ/2n6SDStVToKcSx/aEEY2gDTGcRkU63imDMbbnpINI1VOgpwLH9vsBvge+YziIiXW4GcJ3rWZtNB5HOpUKPMcf2s4EbgZuAHMNxRMScOmCa61lTTAeRzqNCjynH9s8nWJUfZDqLiITGJwSr9bmmg0jHU6HHjGP7Awg+Jx9qOouIhFYpcJnrWWtNB5GOo0KPCcf2iwh2rl9uOouIRMZDBDvik6aDSPvp6NcYcGz/SoITo1TmItIWVwAfO7b/U9NBpP20Qo8wx/ZHEpzy1t90FhGJvNUEY25LTQeRvaNCjyDH9g8C7gXGms4iIrEzB7jG9ayNpoNI26jQI8Sx/RzgFuA6INtwHBGJrwbgNwSjbg2mw8ieUaFHhGP7FxD8gO1vOouIpIwNwI2uZ800HUR2T4Ueco7tDyQYQxtsOouIpKylBJ+vrzYdRL6eCj2kHNvvBUwDfmQ6i4jIl/5AMOZWbjqI7ExjayHk2P61BGNoKnMRCZOfAOsc29e1yyGkFXqIOLY/BngY6Gc6i4jIbqwDLnc9a7HpIBJQoYeAY/uHAi5whuksIiJt9CzBmNvHpoOkOhW6QY7t5wI/J7gRTUQkyu4EprieVWs6SKpSoRvi2P73CX4A9jWdRUSkg2wGbnI9639NB0lFKvQu5tj+IIIxtEGms4iIdJIVBGNuK0wHSSUq9C7i2H4JcDfwPdNZRES6yH8DN7ueVWY6SCpQoXcBx/ZvAiYDeaaziERVUZ9uFBR3o66qmbL1203HkT1XDfza9ay7TQeJOxV6J3Js/0yCS1Qs01lEoqR7TjonfDufY8bkUbx/NxK9uu3073zxSROfrmnkr2/V8Zc3a9ne1GogqbTBOoLd8AtNB4krFXoncGy/H8E8+RjTWUSipHi/TEZNSDD49AKysvf88dTU0MK7L9aw+H8r2bpZq/eQW0wwv77OdJC4UaF3IMf284HbgatNZxGJkiOG5DBsbIIBQ3Pa/bWWLahi/gNbqa9p6YBk0onuAX7lela16SBxoULvII7t/xi4A+htOotIFGR2T2Pw6QUMPz/BPgdldujXrk028+xDW1m+UF0RcmXAJNezHjcdJA5U6O3k2P5ggjG0gaaziERB0b7dGDEuwZAzCsjO69zrJP7+QQMzppZpE134rSIYc1tuOkiUqdD3kmP7fQheGU00nUUkCvoN6sHI8QkG2LmkdeG1UM07Wnn1yUpefHwbO7Zr41zIPQHc4HrWZtNBokiFvhcc278NuBlo/wd+IjGWmZXGcafmM2Jcgj6HZhnNUrF5BzOmlbFuRb3RHLJbtcBU17Ommg4SNSr0NnBs/zzgt8DBhqOIhFqiVzdGjE9w4pkF5BSE65bm91+tYd795VRtbTYdRXbtY+A617OeMR0kKlToe8Cx/f7AI8BI01lEwuywo3swYlyCo0bkkh6uHv8nDbUtLHy0gjfnJmnVW/iwKwUucz1rrekgYadC3wXH9hMEO9evMJ1FJKy6ZaYx6OQ8RoxLsH+/7qbjtMnGDxt5cmoZm/wm01Fk9x4AbnM9K2k6SFip0L+GY/tXEMyUF5nOIhJGBcUZDD8vwYlnF5BXmGE6zl5raYE35iR5/g8VNNZrdj3kyglK/RHTQcJIhf4vHNsfCTwEDDCdRSSMDj4ymxHjEhw9Opf0jPg8QpJbdvD0feX8uVTXeUfAaoIxt6Wmg4RJfH4a28mx/YMIxtDOM51FJGwyuqVxzJg8Ro5PcED/aL1Wb6u1y+uYeecWKst2mI4iuzeLYOPcRtNBwiDlC92x/RyCEbQbgGzDcURCJa9nBsPGJhh6TgH5RdF9rd5WTQ2tvPh4Ba/NqKRFb+HDrh64C7jL9awG02FMSulCd2x/AsEd5X1NZxEJk/37dWf0xATHnJRHRmbqPiY+/6SJJ+8oY/2aRtNRZPfWExxKM8t0EFNS8ifVsf2BBMe1DjadRSQs0jPSOHp0LiPGJTj4SL2s+kprKyxfUMX8B3XhS0QsJfh8fbXpIF0tpQrdsf1ewFTgx6aziIRFTkE6Q89NMOzcAhK9d753XAI1lc3Mf2Ar7yzShS8R8Qhwq+tZFaaDdJWUKXTH9q8GfgEUms4iEgZ9Dsti1HcKGXRyHt1S+LV6W320sp4ZU7dQ/pkufImAbcAvXM96wHSQrhD7n2LH9scADwP9TGcRMS09HY4akcvI8YUcOlCv1fdW8/ZWXpleyct/1IUvEbGW4LS5UtNBOlNsC/3L1+sPABNMZxExrUdeOvY5BQwbm6DnPnqt3lEqNu/giSllfLRSF75ExAzgyri+ho9loTu2PxH4HdDLdBYRk0oOzGT0xEKOOyWfzO6x/HEPhRUv1TDPLaemUhe+RMAWglKP3W74WP2EO7afT3Cf7pmms4iYkpYGRw4Ldqv3G9TDdJyUUV/TwoKHt+LNr9KFL9EwD/i+61mx2eUYm0J3bL8vsAgd2SopKjs3nSFnFjD8/AKK+2SajpOyNn7YyPTby/j8E134EgGrgW+6nvW56SAdIRaF7tj+AOAVYF/TWUS6Wu8DMhk5PsEJp+WTlR3iO0tTSEtzK6WzkrzwWAVNDVquh9xGglL/0HSQ9op8oTu2PwR4GcgznUWkq6SlwRFDchgxPsHhx+eQFvmf5HiqLNvB0/eW88EbuvAl5KqA0a5nvWc6SHtE+jHg2P7BwHtAT8NRRLpEVnY6Q87IZ/j5CXofoNfqUbF2eR0zpm4hWa4LX0Lsc+CYKL9+j2yhO7ZfALyL5sslBRTvF7xWH3x6Pt1z9Fo9ipoaWnjhsW2UPqULX0Lsz8AQ17MiOYcY5YHUZ1GZS8z1H5zD0HMLOGp4rukoofLOC9UcfkIOBcXRuQEuKzuds68sZsgZ+cyYuoVPVqf0xWBh9Q2CK1kjOSkVyRW6Y/u/JDjGVSR2MrunccJp+Yw4P8E+B2eZjhMaVVubWTovyZtzq6hNNpOVncZpPylixLhC0iP20qK1Fbz5VTz3+6001Gq5HkLXu551j+kQbRW5Qv/yprSVpnOIdLTCkm6MHJ9gyJkF9MiLWEN1ovVrGimdXcnKV2tp3rHzjvH9rCwuuKWEvod3N5CufaormnnmgXJWvFRjOorsrJ/rWb7pEG0RxUJfAxxhOodIR+l3bA9GjEtw5LBc0tTjADTvaGXVa7WUzkry6Zrdv5pOS4OhYxOccWkR2bnR+0v8aGU9T0wpo2KzNs2FyNuuZ0Xqiu1IFbpj+5OBX5vOIdJemVlpDDoln5HjEvQ5TK/Vv1JT2Yz3TBVvzk1StbXtx6gWFGdw7tW9OOak6E2x7tjeyst/3MYr0ytp1oUvYXGF61m/Nx1iT0Wm0B3bLwQ2ATrLUiIr0asbI8YlOPGsAnIKoreS7Cwb/9bIktlJVrxc0yFl1m9QDy6cXEJhSfT2/ZZ/tp0ZU7fowpdwKAcOjMqu9ygV+lRgkukcInvj0IHZjByX4KiReZHbwNVZWlrgg9IaSmcn+XhVx+/4zsxK45Qf9mT0xEIyukXmUff/3llUzTO/20ptUhe+GBaZDXKR+C7/cnW+AZ0GJxGSkZnGoG/lMWJcgr7/Eb0NW52lrqqFt56tYsnsZJcctFJyYCYTbynhkKOid/97XXULz/1+K8ue04UvBkVmlR6VQr8duM10DpE9UVCcwbCxCexzCsgrjM6cdGfb/HETS2YneXdRNdubur6dhpxRwFlXFEfyo471axp58g5d+GKQ43rW70yH2J2oFPrnwD6mc4jsysEDshkxLsHA0bmRfMXbGVpbYLUX7FZft8L8Aic3kcE5VxVz/LfzTUdps5bmVl6bmWTRYxVGfiFKcStdzzrGdIjdCf1Tx7H94cAS0zlE/p2MbmkcfVIuI8cXcuAReq3+lYaaFpYtrGLJrCQVn4dvFOuQo7K58LYSeu0fvfPwK8t2MPPOLaxdXmc6Sqr5D9ez1pkOsStRKPQHgStM5xD5R7mJDIafV4B9TiJSx492trL121kyJ8nbC6tpagj3CWgZmWl886JCvvX9nnTLDP2jcCd/Lq1lzj1b9mq8T/bKz13PCvXYdOi/ix3br0C3qUlI7N+vO6MmJDh2TB4ZESyBztDaGtwmtmR2kr8ui96qsahPNy6cXMJhR0dvIraxroXn/7OCJXOStIb796c4+IvrWUeZDrEroX4iObZ/DMH1qCLGpGekMXBULiPGJSK5U7qzNNa38Pbz1bw+M8nWTdtNx2m3QSfnce7PepHXM3pvXDb5TTw5tYyNHzaajhJ3+7qe9YXpEF8n7KcuHGc6gKSunIJ0hp6TYNjYAhK9w/6j0nXKP9vOG08nWfZcNY118VkWrniphtVL6zjrp8WceHYBaaFe7vyz/awsrnusL0vnJXnu4Qoa6+Pz/yVkBgHPmw7xdcL+lBpkOoCknn0PzmL0xEKOPTmPzKwIPdU72d/erad0VpI1Xm1sZ6IbaluYdfcWli2s4oJbS9g3QrfdpaXDsPMSfGNUHvPuL+f9V3XhSycIdaGH+mnl2P67qNSlC6Slw1HDcxk5PhHJz1I7S1NDK+++WM3rMyspWx/91+ptkZ4OoyYUcuolRWRlh/pR+W+tW1HPjGm68KWDzXc96xzTIb5OqL9LHduP6TpAwqJHXjr22QUMHZugaN+wv7DqOtu+2MGbTyfx5ldRX5Par28LS7ox4ebe9B+cYzpKm21vbOWl/9nG4icqaWnW47QDfOJ61iGmQ3yd0Ba6Y/vdgNRaEkiXKTkwk1ETCjnulPxIrr46y0cr61kyO8kHS2ppSe0e38k3RuZy3jW9Irmfomz9dmZMLePvH3T8mfmpxvWs0D4wQhvMsf1swPzRUhIrA4bmMGpCIf2O1Wv1f/TOompen1HJZ76OFt2V7jnpnHlZEcPOS5iOslfefbGaea4ufGmnbq5nhfIvMMyFngdUm84h8dBvUA/Ov7YX+0Rok1Nnq65oZsmcJEvnJamr0nK8Lfazspg4qYQD+kfvdMCGmhaeeWAryxZUmY4SVT1czwrlq44wF3ohsM10Dom+Uy8p4tQf6myir3y6piG4e/wl7YJur5HfSXD6T4rIyo7ehS8fr2pg5p1lKbfZsQMUuJ4VysVmmAu9J1BhOodE28k/6MlpPy4yHSMUVrxUw+tPVbJhrQ4f6UgFxRmcd00vBo6O5u3OL/9pGwsf1aO2DYpczwrlYlOFLrF11IhcLpm2r+kYRlVXNOPNr+KNp5PUbAvlx36x0W9QDy6cXEJhSfQ2zVVs3sGMaWWhuBEvAlTobaVCl/bIL8pg8qwD6d4jeq9CO8KGDxtZMjvJe6/U0Lxd40pdJTMrjVMvKWLUhEQkr9B9/9Ua5t1frgtfdi20hR69XyVF9sDplxalZJm/90oNbzyd5O9/DuWendjb3tTKcw9v5Z0XqvnOzb0jd/b/MSflccTgHF74rwpKn0qajiNtFNpfIbVCl72VlZ3GHc8fQmb30H57d6jaZDNvPVvNG08nSW7RqWBhMuSMAs66spic/Oj9crnhw0ZmTtvCZ+u05+JfaIUu0lUOPCI7Jcp8k9/EktlJ3n2xmh16rR5KyxZU8cEbtZzrFHPcKfmm47TJAYd357rH+/LGnCTP/0EXvkSBCl1ip8+h8Z41X/lqDUvnVbHuPW1gioLaZDPTby9j+YJqJkzqTfF+maYj7bH0dBg5PsGx38xjzr3lrHpNo45hpkKX2Inj6ry+poVlz1VROitJZZleq0fRuvfqmXrBBr71vZ5887uFdMuMzvdpflEGF0/Zh7XL85l55xZ9D4aUCl1iJ05Xe5Zv3M5rMyt5+/lqtjfG6D8sRTVvb2XRf1Ww4qVqxt/YO3JHEPcfnMMv5x3EwkcrePlPofwYOaWp0CV2on6rVGsr/PWtOpbMTrL27TrTcaQTbNmwnYeu2sTxp+Zz9lXF5BVmmI7UJqdfWsTx385n+q+/YP0abZoLCxW6xE5UN4g11rWwfGE1pbOSbN2k4zhTwTuLqvnLm7WcdUUxQ84sIC06b+EpOTCTa/7Ql+ULqpj/4NaUv2Y3DFToEjvNEevC8o3bWTInyfKF1TTW6aGYauprWnjqri289VwVF922DyUHRmfTXFoaDDmzgCOH5zL/wWD+XsxRoUvsNO+Ixgr9w3fqKZ1VyV/fqovV5/6yd9avaeTOizYwemKCUy4uIis7Osv1vMIMLpxcwpAz8pkxdQvln0Xst+qYUKFL7OxoCm87NjW08M6iGl6fWcmWDXroyT9raW5l8fRKVrxUw4WTS+g3KFqb5g47ugeTnjiAV6ZX8vIft0X246+oUqFL7OwI4Qq9YvMO3pybxJtfRUOtXqvLrlWW7eChn21i4Og8xl5dTKJXdB7VGZlpnHJxT44/NZ8nppTx0Uqdl9BVovNdIrKHwnQZif9+PUtmJ/ngjVpa1ePSRqteq2HtsjpOv6yI4WMTpEXoBNmiPt246qH9eO/lGubeX05NpS586WwqdIkd0yv07U2trHipmtdnJPn8kyajWST6GutbmHtfOcu+3DS3nxWtkxCP/VYeR5yYw4KHt+LNr9J+kU6kQpfYMbXLvbJsB2/OrcKbn6SuSstx6Vib/CbuvngDI85PcNqPi+ieE53leo+8dMbd0JsTzypg+u1l+kW3k6jQJXZMbIqbe185S+bouknpXK0tUDoryfuLazjv2t4MHJVrOlKb9D28Ozc/cQCvzajkhccqaGrQcr0j/R8AAAD//+ydd2BUVd7+n6lp0zKTTEJCEhBZEQUpQqihg5QAAoEExIqsygb7KgHslHVXFsXs8vKzLxB6V0AUJBSD1AUX4UUEE0IgpM1k0mYyM78/svEFTLmTuffcc+eez3/vu3LnZOae85xvl84Vj8HgiFuETnHnj7HEHwY57MVufDr3Gpa/UCDJvuqD0kzIyIpHp/7SupDQDhN0RsAhRlKcmvm6GCJw7kglFkzJxd7VZZJreWyyqvHE4mg8taSVpLL4aYYJOiPgEKP2VSWhyVmMwMLl9GJbZjHeffiKJPuqd0gMxdy1cRiYapJUFj+NsK+PEXCIYaEzQWeIzbXLTvx95hWs++sNyfVV1wYrMT7dgqeXxEgq2Y822DfHCDhEsdBVTNAZ4uP1Aoe32LEgNRfHdkuvr/ofeoTgT8tixF6GZGGCzgg4xBB0tQ8WujlajeSnLRj2SLiAK2LIGUepGyvfKkRm+lXJTe6L6xCER96KEnsZkoQJOiPgcIuQ9MvV5d5lsA6vbUzAkIdMGD3TjFdXxqFtp2CBV8eQKxdOVGHR1Dzs/rSUqg6KzdF1iA69xhjEXobkYILOCDjEGEGq4pikGxx265aLbqvF7H/GYsorkQjRse3I4J9alxc7PyrB4ul5+PmkdMorJzxvgcGiEnsZkoKdIAwGD3B1uXsaaEurUAC9xxowd208ejyg53tpDAYA4EaeCx/+6SpWvV2IChv9fdW1wUqMnGEWexmSggk6IyAhXZPLVdCb6jOvM6kwbb4V6ZkxiIjV8LU0BuMWju4qxzuTc5Gzg/6+6j1H6VnWuw+wb4oRkJBOjOMaQ+cS36+fKT1yhtmnZDsGgytVDg/WLLqBZc/k40YevUlzKrUCnQewbnJcYYLOCEhqCZ9RXIWXa2JS/UzpjKx4tO8e4s/SGIxG+eV0NRZNy8OO5SVw1dBprnfoGSr2EiQDE3RGQEI6o5e7he7busyt1Jj1QQwefjMKOhNLEGLwj8ftxTf/KsWC1FxcOE5f0lxse2mNixUTJugMSaALV2HkDO4jI30VTn/hmuXe0lBAt6E6zFsbj34TjS369wxGc5QV1iJz9lV8Nv867MX0JM2ZrKzPO1eYoDOoJrZ9EKa/HoU3tyRgxGPh0ARxTD4jbKFzdrn7cdEI1ikx6YUIvPRJa8TcyawWhjCc2uvAgim5OLjRBi8FHWRvL/VkNA67+jCoQ6lSoMvgMCSlGNHmnlubrvAdq+YL7mVr/n9W67uC8NKnccheX4avVrCZ0gz+qanyYMOSIuR8WY6pGVbRL5BqjUKUDpBSgwk6gxpCDUr0m2BE3wcNjY5TVKm5lofxubLm4RpDb6pszReUSmDgFBO6DNJh09IinN5fwctzGYybuXK+Bn99LA8DUkwY+WQ4gkLEsZZVTNA5wQSdITqt2mkxKNWEbsN0zVq6ao7l2cST4jheNPhel8mqxuMLo3HuSCXWLL6BskIR+t4yAhqvB/hubRlOfuvApBcj0CmJfBmZWqOA9AbDkocJOkMUlEqgU1KdW71dF+5lWZwtYUpd7kIl63VIDEVGVjx2f1KCfVll8FAQ+2QEFraiWnw85xoSR+uRlmEl+tlck07lDvuaGEQJ0SnRZ5wB/SYaER7l++snliXcHCrOngPh1qANViD5GQt6jNJj9YJC5J5lNg2Dfy6dqSb+mVz3vdxhgs4ggjVeg4GpJtw/Qg9tcMs3J+cWq7Ra6ARa0ka30eL5Fa2Rs92ObZnFqHIwc53BH0JeShuDq2dO7jBBZwiGQgF07BOGAZON+MP9/HQ742yhk65Dp+yiUT/wpVNSGLYuK8bRXeVEPpcR+PCV2OkLamahc4IJOoN3gkKV6JWsR/+JRt6HjFBbtkZpKKB+4EuvZD2yFt5AUT69fbsZ0kCMuerMQucGE3QGb1hiNBiYaqybkCRQeQvXWDXpXu58DmcRgvqBL9+sLMOez0tZCRCjxYhhoXPd93KHCTrDbzokhmLAZCM6JIZCIfBFmlaXO2cLXYTDsJ76gS89HtAja1EhlX27GfQjhoXOXO7cYILOaBGaIAUSRxvQf5IRUQnkrs+0JsVxznIXUdDrqR/4cmKPA5uWFsFRRk/fbgb9MJc7vTBBZ/iEyarGwClGJI4xIERHvmuUUFPN/MWXA8dd66WiDKfbMB069g7F9uXFOLzFDq/4dw2GBBCjxwHXi7zcYYLO4ET7biFImmzEvX3DoBBxVgKtdei+uARpEXSgbuBLykuR6J1swOqFhbj6s1PsJTEkgKvGy3lQEh/Qsl9ohwk6o1E0WgW6j9BjQIoRrdrRMd2LXpe7L4Iu4EJaCBv4wvAFt4uwoDMLnRNM0Bm/wxipRtIkI3ol6xFmVIm9nFvgPndc2HXcji8uQUepW5RwRXPUD3zpOliHDUuKcCabDXxhNAzpTHeuMxzkDhN0xm+07RyMASlGdB4QBqWKzhsxrXXovrgEl8y4gvHpEeg5Wi94VUBLMEaq8cQiNvCF0TjE9xel5xFtMEGXOSqNAt2G6pCUYkTcXUFiL6dZaE2KU2u5HzhVDg+yFhUiZ4cdaRlWWOPpND/YwBdGY5C20JnLnRtM0GWKLlyF/hON6DPOAL2ZLrd6U3Ceh07cQvf931w6U43FD+VhyDQThj8aTjQmyRU28IXREKT7uTNB5wYTdJkR2z4Ig6ea0GVQmCQ3Ca0u95aW1XjcXuz5ohTH95QjbY4V7bvz0/Oeb9jAF8bN0FxFImeYoMsApUqBLoPqZo+3uTdY7OX4BefWrxJzCZYU1CJz9lV0HazDg89FwGChz2vCBr4w6iG/v4h+nGRhgh7AaLQKJKUYMTDVJCm3elNwH4Ii8EJug6/GFyf3OnD2+0okP2NGvwlGXp7JN/UDXxLH6LFmERv4Ikek4gGTG/TVzjB44d5+YZi7Nh7Jz1gCRswB+saU3gxflQE1VR5seK8IS2ZcQcFFehu93Nk1BPPWxWPUk2axl8IgDPkcFSboXGCCHoCMnmnGjL9Ew2QNPAcM5yx3MQZI8OwWzP2pBu8+moctHxSjporemPXwR8Px2oYEtOtCZ/yfwT80N26SM0zQA4xeyQYMeyRc7GUIBleXuxgWuhBWhNcDfLe2DAtT86hu9GJupUZ6ZgwefiMKOlPgeIQYDUM8pMUsdE4wQQ8gDBYVJjwXIfYyBOPS6Wp8v93O6b8VY6qZkFaEragWH8+5hhUvF8BeTO90tG7DdJi3Nh79JtIZ/2fwA/nhR0Q/TrIEnk9Wxgx/NBza4MC7yR7dWY69WWU+xZPFsNBJJO6cPVyJdyb/ipEzzBiUZhL881pCsE6JSS9EoOcDeqz5Cxv4EoiwGDqdMEEPELTBCvQcpRd7GbzhKHPj8BY7Dm6ytcgiJe0SBMhl4jqrvdj6YTF++KocqXMikdCRzlLE+I5B+PPncdiXVYadH7GBL4EE8davLIbOCSboAUL83cHQBks/glJw0Ynv1pXh+G6HX1ZAoLncG6LgFyeWzsxHn3EGjHnaQuXAFwAYlGZC1yE6bFpahNP76c0DYHCHeGtlZqFzggl6gBAZJ+0g0+n9FTiw0YYLx6t4eZ4oLncRdpPXCxzaYsfp7AqM+5MF94+g00tjsqrx+MJo/OdQJdb/jQ18kTosy51OmKAHCEoJJhY7q73I2W7Hd2vKUHKN3wNeDhb6zZSXuLHyrUIc3VmOKa9aYY6mc2vf0zcU9/RNwLbMYuxdXSb2chgthHzjJrKfJ1Xo3PUMn3FLyOApKahF9gYbvt9mR02lMPXVtU55CXo9549WYWFqLoY9Eo6hD5moWFNDjJ1lQc/RbOCLVGFJcXTCBD1AEMMi9ZWLp6qwf50NZw5UwCtwnxQxvg9a4ny1Li92flSCozvLMW2+FW070Zk0xwa+SBfmcqcTJugBghid0bjgdnlx4huHz2Vn/iJKYxnKDp2ifBfefyofPUfqMS7dgjAjfXEZNvBFmrCkODphgh4giCFgTeEodePQFjsObLTBUUq+EYoYZWu0ugV/2FmOMwcqMD49Aj1H66GgcJn1A196JeuRtZANfKEdVrZGJ0zQAwRaYuj5PzuRva4Mx752iOo1ID3eEaA7cafK4UHWokLk7LAjLcMKazydi23XJQRzVsXhm5Vl2PN5KXUXVUYdUhtPLBeYoAcIYsbQvR7gP4crsH+tDRdO8FN25i9iXCakcOhcOlONxQ/lYcg0E4Y/Gg5NEH1rVmkUGPFYOHo8oMeqdwpx8RQd7xTj/yDfy53s50kV9jUFCGIIWE2lB0e+LBek7IwP3LVeom5wqcxs9ri92PNFKY7vKUfaHCvad6dzSlr9wJcTexzYtLQIjjJ6e9jLDZblTidM0AMEki6w4gIXstfbkLO9XLCyMz5ggt40JQW1yJx9FV0H6/DgcxEwWOhLmgPqBr507B2K7cuLcXiLHV7mhRcd8sNZpLW3xIIJeoBAou762mUndvyzBD8elEb7zlonoCVYsSVVK+LkXgd+OlKJsbMs6DPOIPZyGiRYp0TKS5HoNcaArEVs4IvYEE+Kk+jeIg2dzZ8ZPuMhcGM+/V2FZMQcYLWyvlBd4cG6d2/gvcevIJ9isYzrUDfwZWAqnZPm5ALpvSU175dYMEEPEEhkuau10tpUxGtl6Uwc94m88zX46yN52LKsGK4aen3b49MtePiNKLGXIVvIX5aJfpxkYYIeIJCIoUvtlszcgi3nuzVleGdyLtXT0boN02H660zUxYD03mKNZbjBBD1AILHBpOZSJl0rK7ULT3PYimrxScY1LH+hALYi+qoYAKD7cB0SR9M5YS6QId33Qmpnj1gwQQ8QSLiXVRJLoWTdrPjh3JFKLJiSi31ZdE5HS37GgqBQdpSRRJTWysxKbxa2CwIEEhtMahuKdPMLqX0/vuCs9mLrh8X4y/Q8/Hq2Wuzl3ILOpMKoGWaxlyErRGncFMD7iy+YoAcILCnu9zCXO/8U/OLE0pn5WP/XG1RNR+s1Vg+NxN5PKcNaK9MJE/QAgUSDF5VKWgcm8cQdGQg6AHi9wKEtdixIzcWx3XRMRwsKUaJDr1CxlyEbWGtlOmGCzuCM1FxerLRGWBylbqx8qxCZ6VdRfFX86Wi0zn0PRNg0Qzphgh5AeNzCCpjkXO4sKY4IF05UYdHUPOz+tFTUCXtRCVrRPltusKQ4OmGCTjmhBu4/Ua3At2aW5d40cq6VrXV5sfOjEiyenoefT4ozHY3WXvSBiBiCzmLozcMEnVI69AzFE4uj8eS7rTj/G6Hbv/oSI467K0jAlXCD1cqS50aeCx/+6SpWv1OIChvZ6WhS8yBJGTHGNbP91TwSs7kCG41WgR6j9EhKMSK6TZ37MO98Ded/L3TmqS8batayurGX2/5RjOoKcbKhifeblrGFfjs/7CzHmQMVGJ8egZ6j9VAQ+GrkkpRIA6xsjU6YoFOAMUKNpMlG9B5rQKj+VqeJLyIh9CbzaS21XvQZb0DnAWHY+mExju4inw1NvrEM0Y+jniqHB1mLCpGzw460DCus8cJ+QUp2mhHDRWC64+2wC1vzsC0gInfcF4wBk03olBQGZSPBD6UPIiq0Rar0IURZvxZduArT5lvRK1mPrIU3UJRPLj2WdK0scwk2zKUz1ViYlovXNyUgPEq4I4d5SMji8aDRc0sImIXePEzQCaPSKNB9qA5Jk41o/Yfm48y+JIJ4BA5ZqoN88Rbc+n+36xKCOavi8O2qMnz9WSkRdzhLiqMLoXslsAsVWdwuL5Q+nAn+wiz05mGCTghduAr9JxrRd7wBunDupq4vt1KhRdJXl/vtqDQKDH80HPeP0CNrUSEuHBc2G5p04g4TlKah6f1k+I/b5YWGoKCzkFbzMEEXmNj2QRiUZkTXwboWHfi+3EqFtkh9WX9Th7e5lRqzPojByb0ObF5aBHuxMK6FWsJxPmZBNI3QFyx2oSIL8T4P7MLWLEzQBUCpUuC+gWFISjH63b3KJxEVumyN5wS9roN1uDsxFF+tKMGBTTZ4efbICl2XfztMUJpG6O5i7PsnCxN0+mCCziMhOiX6PmhEvwkGmKz8fLW+vMRUWegcLxfBYUpMeD4CvZINWL2wEFd8KNNrDtIud2ahN43gSZusqwZR2P6iDyboPGCN12DwVBO6D9fzHlPyJSlO6EYqvgi6r5eLmDu1ePGj1ji02YYd/1PCS+068bI1tpuahIQAqDUKUbqYyRHiHjBmoTcLO4JaiEIB3NM3DAMmG9G+e4hgn6P0YcKZ0AemLxZQS9yrCiXQb6IRnQfqsOWDIpz4xuH7Q26CjU+lCxJCq2KCTgzW54E+mKD7SFCoEr2S9UiaZIQlhswbptIoOG0eEgcZVwvIHzE1WFR4+M0o9B5rQNaiQpQUtMz1QP7AYYLeFCR+D7VGAf6CNoymYC53+mCCzhFLjAYDU43oOUqPoBCywTq1mpugkzgwuVpAfKylffcQZGTFY8/npfhmZZnPzyTe+pUdOE1CxEJnJxoxWFIcfbDXvxk69AxF0mQj7u4VSqQfdUOoNAA4lGyTGEbC1QLiy92t1igwcoYZPUbWdZq7eIp77Trp4SxAXYhE6DG2UoXEDG126JOD9XmgDyboDaAJUqDnyLohKVFtxJ+xzNXyI7HBuFpAfHsLImI1SM+MwfGvHdj8fhEcZc3XrpOuQwfqkhidZIeMSQYSOQ3s0CcH84DRBxP0mzBZ1UhKMaJX8u+HpIgJV6uDVAydC0JZx92H6+AodWPzB0Uc1iDWRChmoTcEkRg6s9CJQb6KhP22zcEEHdyGpIgJV6uDiIXOdS0Cbnau2a5iZDszC7FxSGW5M8hAumzNlxJeuSJbQVdpFOg+TIekFG5DUsSEq9VBJCmOq7dAwMsFZy+BCILO3IKNQ+bCKfhHMP4LqyKhD1kKerdhOiQ/bRF0lCOfcI1bk7gx0yCmNFwqGoMJeuMwl3tgQXw8sQ89OeSKNBSNR2b+rRU69g4Vexk+wXUmOpmkOPHj+VzXQCKr+naYFdE4JC6cLM5KDmah0weFEWPhePDZCMmJOQCotRQJOkeXppAlY5y/DzFc7rK7InOHphwPhv+Q3l/M+9U8shH0u3uFYsBko9jLaBFcXU2kOnFxQciSMc4hCDGy3Nmh0yg05Xgw/Ie4y51dlptFNl/RqJlmsZfgM85qL47tLse1S05O/z2ROl+OB2alXbhibK797cWw0JmgNw6J95NlQpODdEiL7a3mkYWgx96pRdxddGey30xxgQvZ62zI2VGOmkruU8dIbDCuFvrhrXZUlXsw4fkI6M0qftfA0eUuRtkaS8pqHFKtiRlkYI1l6EMWgm5uRf+13esFzh2pRPZ6G84dqYS3BXuFthjlyb0OnP2+EqNmmtF/kpG3Gn8aMu0bgwlK4xBpfMQuVMRgvdzpQxaCboyk98+sqfLg2C4H9q0pQ9EV/0xsMjFK3/77mioPNr9fhB++tCN1jhVxHfz3lHDPtPf7o3yGHTqNQ6K3PteKEIb/sKQ4+qBX6XiExu5v1y87cWCjHT98VQ5nNXe3elPQFEO/nfyfnVgy4wr6PmjEmD+aEaxr+Y9CU2/722Ex3MahKWmT4T/kh7MQ/ThJIgtBFyPbuSG8HuA/hyuQvcGG/z3KfWoYV2g/ML1e4OAmG07tdWDCcxHoNkzXoufQ1Ar3drjG9+UImdavgn8E478wlzt9yELQxYil3kxluQc52+04uNGGkmvC+R2l0rjDUebGF29cx6EtdqRlRCIi1rdT2Bcr2O3yEo1rs0OncUhcsFgMnRyks9yZ96V5ZCHoYmQ7A0DBRSeyN9hwbFc5XARGeZKYw82nOF48VYVF0/IwbLoJQx8O57xhfRHN2lqygs4OncZhw1kCC+Iud3ZZaxZZCDqJZJx6PB7gTHYFDmyw4eeT/LvVm4LM+FR+n+d2ebHrk1Ic2+1AWkYk2nUJafbf+LKx3S4AzT+SN9ih0zgkLDr2/ZODudzpQx6CTuDFq7C58f02Ow5ssMNWRPAGcRNS7sRVlO/CsllX0W2YDuPTI2CwNF677osVRvzQYRZioxCx0NmhTwyWFEcfshB0IQ+SK+drkL3BhhN7HKK59ush04lL2APzxB4Hzh6uxJinzOg73ghFA8nwvngJyDe/IPpxkoJM0qbgH8H4L6yxDH0wQW8h1Q4P/uflAlw6Xc37s1sKEZcmgU1VXeHBhveK8MPOcqS9akWrdtpb/ndtMPeSN9IJkfF3BxP9PClBpKySHfrEYC53+qCwQpt/hHANOWu8VIk5QNf4VD7IPVuDdx/Nw+b3i3xqgXszpN2CnQeE4bUNCZxyAeSGlENCjN/DernThzwEXYAXj8bJP0TKgghvKq8H2L/OhgWpufj3Psdv/3+um1uMMIi5lRrpmTF4+I0o6Ez89rGXMoH4fsoZ0t4vDevx0CzyEHQBDhIaDw4ywy8E/4gGsRe78em868icfRVlhbWc643FaC5TT7dhOsxbG4++DxqgoO91IQ5LigssxGjYRWPXT5qQxdcjxGxuriM8SSKHA/PC8SosmJKLmipuLnjSbsHbCdYpkfJSJF78uDVi7tQ2/w8CGDJla8J/BqMONvyIPmQh6G4BGq5oguh7sUjU29PgmfClSU+Vg58++f7S+q4gvPRpHMbPtkAbLP53KAYsKS6wECOcxX7fppGHoAv04tFmpQdaUhwf2IvF6QnQEEolMHCKCXPXxKNTUpjYyyEO7bMGGL4hioVO2ZlLG7IQdKFukrTVvLID8/dc/dkp9hJ+hzFSjScWReOpJa1gssrLRyz0pVNqF04pQ7IDZz1SO39IIwtBF+rFo+3wINEvXikx/blwnGz7XV/okBiKNzYnYOj0cLGXQgyhBZ0d+OQQx+VO/CMlhSwEXagXj8Z4jkfgkLHUDsxrl5349Sxd/QJuZ8xTZmRkxSO+Y5DYSxEcoScCSu3CKWVEEXTKjCjakIWgC+WKplHcmEvz9+zLsom9hGaxxmvw/IrWSJ0TiRBd4G5LocNCbHwqOcSIodN45tJE4J4cNyGYhU7h4SH4gSnBDXVqrwPXLtMXS78dhQLoNcaAeevi0eMBvdjLEQTBL5wSfD+lCstypw9ZCDogzKxw2pLiAGahN8aqtwrhpaOCrVnCjCpMm2/Fs8tjYY2n8CXzA6FFQIoXTikjxLnaFMwD0zSyEXQhYnc03haFPjBp/Ju5kHe+BhuW3BB7GT7RtlMwMrLikfy0Reyl8IbQHiSpXjilColE3JthORJNIxtBF8JypfHwELobF41eCa4c2mzHpqVFYi/DZ4Y8ZMJrGxPQITFU7KX4Ta3ApU4sC5ospEvXmAemaeQj6AJYBjS+XMzl3jTZ6234fP51uGrEnV3vK+ZoNZ5a0gqPvRMFg0W6A1+YhR5YCNFWuynY79s0shF0IVzRNL5crM63eU7udWBBai7OHKgQeyk+c98gHTKy4tF/olHspbQIwWPoFO7JQIZ4DD0Azh8hkY2gy2XiGouhc6OssBYfv3oNy18oQFkhPe1huRAcpsTEFyLw58/jJDfwRXALPUDeT6lAepoh+32bRjaCLkxSHP/P9BfmcveNc0cqsWBKLr5dWSbqqNWWEHOnFi9/GocJz0cgKEQaW5ldOAML8i53oh8nOaRxCvCAEJYBjeLGkuJ8x+X0Yvs/i/HuI1dw6TTdXeVuR6EEkiYZMXdtPLoN04m9nGYR+tLE5mWTIThMicFTTTBFkVVYGs9cmpDNfUcuLnfBD8wAnnZ0/bITHzyTj8QxBox9xoJQg3TUwWBR4eE3otA72YCsRYUoKaAzjEBqgJAYTU/kQGScBgOnmNBjpA7aYPL7Q60N3POHD2Qj6IIkxVEo6CQOskA+ML1eIGe7HWeyKzA+3YIeI6XVsa199xDMWRWPrz8vxbcry4gnLTWH0L3cgbp9GajvpxgoFMDdvUORlGLEXT1CoRDx2GNJj00jG0GXTR06iZnoMjgwK2xurHqnEIe32jFtvhURsdKJNWiCFBg904weD+iRtbAQl87QE0Yg8X6qNQrUCP4pgY82WIleyXr0n2hEZBwd7z+NRhRNyEbQhRAgKl3uBIRWTokpl85UY9G0PAx9yIShD4dDIyGXnzVeg2eXx+KHneXYuqwYFTa32EsichGU0/spBJYYDQZMNqLnKD2Cw+gKO9FoRNGEbF59IZLFaMxyJ+HSpPEiIyRulxe7Py3F0V3lSJtjRfvuIWIvySd6jtTj3r5h2JZZjCNf2uEV0blCykJn+M5dPUIwYLIJd/cW163eFIGYlMsnshH0Wif/kzlUFCaIuQnETKV2Sx72SDj+vc+Bwlz/bjslBbXInH0V3YbpMD49QlId20INSqTOiUSfcQasfPu6399FSyHiQWKCzhlNkAI9R+qRlGJEVBv6exqw37Zp6PKnCIhbAG8jjRmX7MD8PXqzCi9/HocRj4XzsvYTexxYmJaLQ5vtkpngVk98xyC88q84JD9jESV8QCQpjsKLNm2YrGqMnWXBW9vaIOXlSEmIOSA9Y4I0srHQ5VOHTsClSeHf3RRulxcarQIjZ5jRY6QeWQtv4OKpKr+eWV3hwfq/3cD32+146DUroiVyIAJ17+2QaSZ0H6bDmsU3cO5IJbHPJpW0yWiYO7uGICnFiHv7h0myZp+FU5pGPoIukzr0WnZg/o6bf/uIWA3SM2NwdFc5tnzgf6LYlfM1eHd6HpImmzByRrhkOrYBdVbaU0ta4fT+CmxcUgRbkfC160SS4lic9RbUGgXuH1HnVpdaq+DbodGIognZCLowdei8P9JvhO4UB9D5dzdFQ27eHg/ocU/fMGz/RzFytvuXKObxAN+tKcPJbxyY8HwE7hsY1vKHiUDnAWG4u1codn5Ugr2rywT9LOZBIofBokL/SUb0fdCIUL10LppNoZRO2oooyEbQhRA6Gg8OIlnEFP7dTdGYiITqlZjySiR6JxuwekEhrl12+vU5tqJafDr3GjokhiItIxLGCOlsL02QAmNnWXD/CD1WLyzElfPCVHIzl7vwtO0UjKTJRtw3ICzgOjs6qwO7/4W/BMa1jQNCuKJpPDhcBIYl9JtgpK4+tSmaE5H4jkH48xetMXaWBdpg/3/T3wa+rBLW2hWCmDu1eOmT1kh5OVKQ35jE+ynXpLjEMXq89ElrPLs8Fl0H6wJOzAHAdoPOlsa0IJ1T2U8ESYqjUNBJtPrsNkyHeWvj0X04/cNAAG7hFqVKgcFTTZi7Nh4dEkP9/kxntRfb/1GMv0zPw69n6enUxpW+4w2Yu4b/gS8eAucxjftSKPRmFUbOMOPt7W2QNseK1ncFib0kQaGp6yGNyEfQhUiKo9D1TCKGDgC6cBWmvx6F9MwYmFvR7Vr25TJnjKhLFHtiUTQvLvOCX5xYOjMf6/56A1UOadW46c11A1/4/I2Pf12OvauF7TEvh+Yjse2D8NBrVryxKQEjHguH3hz4wWV7sRuXf2SC3hSyEXTZDGchPNO7XZcQzFkdz1uNtxC05DvplBSGjDVxGJhq8ru8x+sFDm+xY0FqLo7tLvfvYSLQrksIXtuQgAceD/f7WS6nF9syi/Huw1eQe1aYOD2t7yEfdB+uw7PLY/HyZ61x/wh9QP+tt7N/bZmoXQ6lgGwEXZCkOAotAVcNeSuwvsY7Y3Uc7uxKX1vUlv72QSFKjE+34M//iuPFlekodWPlW4XITL+KG3nidGrzhweeMGPumni07+b/b3ztshNLnryCDUuKUFPJ7zsbaKVNYUYVhj8ajje3JmD661Fo2ylY7CURx1ZUi+z1NrGXQT2yEXRBkuIoPDgcpeK5dS0xGvzpwxhMnWtFmJEeF6C/+RPRbbR48WP+EsUunKjC4ul52PVJqeSm1kXGaTBrWQymvx4Fncn/3/jgRhveTsnFiW8cPKyuDhr7Q7SE6DZapGVY8caWBIx60iypqgk+cdd68fGca0QSKqWObARdLklx1/0sveKDnqP0yMiKQ+JoOmaJ83GZUyj+L1GMj2RAt8uLXR+XYPG0PL+71olB9+E6zF0bjz7jDX4P8nCUufHF69eROfsqSgr8z5qj8aLNFYWyri9AemYMXl1Vt4ekNOGPb7we4LP51wULzwQashF0QWLoFB4cRfku2IvFH5MZZlQhLcOK9MwYWOPFjU3U8niz15vrkgGfWBTNy/OK8l1YNusq/vXmdVTapZU0F6JTYvLLkXh2eSwvrW8vHK/CW5N+xTf/8q/cT2qNj4C673LodBNe25CAxxdGo10X+kJXpKmu8OCTuddwJrtC7KVIBtkIulxavwKgKvGqXZcQvPJFHEY9aRbt+xJiAl3bzvzGMY9/7cA7k3/F4a12Xp9Lgjb3BuPVVXEYn85PHf+O5cVYmJbbYquMxuqTxrDGazD55Ugs2t0WY56yIDxKnm712zmyoxyLH8pjYu4jsnl75OJyB+rakPabYOTlcOUDlUaB4Y+G4/4Reqx6p5C4i1kqXQIryz1Y9+4N5OywY+pcaQ18AYCBqSZ0GazDxr8X+X0QF+a68PeZV5A42oCxsywINXC3PWjdl/UoFEDHPmEYkGLEH3owS7yeKocHOdvt2L/OhrJC1kCmJchG0IUY26im9NuzF7vx5YpiPDg7Quyl3IK5lRrpmTE4/rUDm98vgqOMTGhAape53LN1A18GpprwwBNmai5mXDBZ1XhiUTTOHalE1sIbfg188XqBnB12nDlQgbHPWJA4hltOBo2hMAAIClWiV7Ie/ScaERErwbiAQFy/7ET2Bht++KocrhqW+OYPlEoS/wjhcqfZEti/1oa7eoSiY2//u57xTffhOtzbLxTbl5fg4EbhS1Gk2PbX4wH2ri7DiW8cSH01kpfudSTpkBiKuWvjsOvjUny3pgweP9IDKmxuZC0qxLHd5UidEwlLTNNiSJugW2I0GJhqRM9ReklN4xMSrxf46ftK7F9XhvNHpZcUSiuyebuEsNJojaHX89m868j/Wfys94YIClVi0gsReP7/xSK6rbCuZSF+e1KzpMsKa7H8hQJ8knFNcm5IbbASY2fV1fHHd/S/jv/CiSq8nZKLXZ+UNvnfqSgxUzokhuKP77XCvHXx6D/RyMQcdYlu2etteGdyLla8XMDEnGcoefWFRy516DfjrPYgMz0fzy5vjagEOl18CR2D8efPW2PfGht2fVQiSK2pULXeGq2CWG3s6f0VOHekEqNnWtA/xUjsQsEH0W20eH5Fa+Rst2NbZrHfLXB3fVyCY7vKMW2+tcEmK2oRy7w0QQokjjYgKcUoenUHTdzIc+HABhtydpTDWS2tag4pIRtBl1oclS8q7R689/gVDEw1Ysg0E4JC6VMCpUqBIdNM6DZUh3Xv3sBPOZW8Pl+okZ0qDTlBB+oGvmz+oAhHvrJjaoa0BnEoFEDvsQZ0SgrD1mXFOLrLv0qMonwX3n8qHz0e0GP8bMstjYzEmDJmjlYjKcWIXmMMCNbRt8fEwOsFzv9Qiez1NvyUU8nathKACbof0Nj6tSGc1R58/VkpcrbbMenFSHQeECb2khokPEqNP77XCv/e58DGvxfxVk8v1MAasTw0V3924r0nrqDvBCPGzDRLSkB0JhWmzbeiz3gDVr1diKJ8/36co7vK8ePBCoxPj0DP0XooFCDaiKV99xAkpRhxb98wKKTzMwiKs9qDH74qx/51Nkm2OJYy9PTnvI1ecbNDALzC1/NCDSr0n2jk63G/8fVnTcfzaKKmyouT3zqQ+1MN7rgvBCGUCkF0Wy16jzXAWeXFrzx0iKqp9ODGFRfu6BzCaxwze52N9z7kvpD7Uw1ydpQjPFqNVndIq8QtPEqNvuMNUGsUuHSm2q+kuVqnFz8erMCF41VQqRU4vNUuaL6BRlvnVp82z4rBU02IStD63S0vECgucOHrz8rwrzcLcXp/heQaJfnAX47kfUDl2DdqX8Nn+/wcDqCEr+dFxGowb108X4/7jef6XuT9mSTQaBUY+aQZA6cYRXFRcuXK+RqsXliIqzwk9wWHKZH8jAV9xhp4sabemvQrL61K+aB99xCkzbFSP8q2IUoKapG1qBAXjtOdIGWMqHOr9x5r8KkuPtC5cLwK2ett+PFghVzc6ub3D99JpSVH7UnOt6CbrGq8sTmBr8f9xosDfxHEnU+K6DZaTJ1r5SULWSg8HuDAehu+XFEMZ7X/33Xru4IwNcOKmDv9s2oXpOZS5VJUaxQY8Vg4Bk81SSK/43ZOflvXn4CG1sU3c0fnYAyYbESnATpJJSMKiavGi2O7y7EvqwyFufTsAUIwQfcVvgVdb1bh7e1t+Hrcb7wy9BJqqqTtWlIogN7jDEh+2kKtGx6oK+HiowsZUDcEIynFiFEzzC1OFPzL9DwU/EJfWaA1XoO0jIYzwGmn2uHBjhUlOLTJJqq1p9Io0H2oDkmTjWj9B3ovu6QpvV6LgxttOLzV7ne1goRhgu4rfAt6qF6Jhbva8vW438gYeSlgYkU6kwoTnotAt2H+TxMTEj66kNVjsKgw8YVI3DfQ90TBvz1+BVfO0zsFqucoPcb9yULVKFuu8Blq8QVdeF2uTd/xBujCpfe9CcXFU3Vu9TPZFX7lOwQITNB9hW9B1wYr8e63/Av6a2MvU+ci9Jd2XUIwbR7d8VhntQc7PyrF/rX+dSGrp0NiKFJfjYTJyv1vXjozH5f/Q2VuzG+E6JS3ZIBLCY8HOLDBhq9WlAjuBUvoGIykFCO6DA6jvr8EKVxOL07sceC7tWUouEifJ0pEmKD7Ct+CrlIr8N7+O/h63G+8OeFXlF6nIzGKT9T/HagyZBrd8dhrl51Y+VYhL5ayRqvAiMfDMSjNxOlQXzbrqmRmmbftFIy0DKskm53YbtRi0/vF+Pc+B6/PVakV6DI4DEkpRiR0lF54QihsN2pxcLMdhzbbAsb7yDNM0H2Fb0EHgKWH2vH5OADAO1NyUXQlcJNCImI1jXbkogWvBzi0xYbt/+DHkuMag/7nc1cl1bpSqVJg8FQTRjwWDk0QtVu/US4cr8Kqdwr9LkkLM6rQb4IBfR80wmBhbvV6Lv9Yjez1NpzaVwGPACOHAwgm6L4ihKC/990dvFubi6fl4drlwHdHSSEeay92Y/PSIpzcy48l13OkHuPSG/+bV7xcgLOH+e1qRwKTVY1p86xo3116oztdNV7s/rQUe1eX+Sw6rdppMSitriMh7XMYSOF2eXFyrwP7smzIv0BvPghlUCvo1J7OfDeWAYAh00y8b+SCS07knQv8jZB/wYnvt9qhN6upzfoNClWiy2Ad2nUJwYXjVaiu8M9az/+57m8ONagQ1+H3f/OpfRUo/FV63pnqCg+O7izHtcsutO0cjGAK2wE3hkqtwB/uD0HXITpc+d+aZq11pRLoPFCHKa9EIvkpC2LbB1Hdd4EU9mI39mWV4Ys3CnFstwPlJYGVByQwrLGMrwhhoS/c2VaQhhB8Zl1LASnEY+ssuRLsXW3jxX0Y3zEIU+daEd3m/2rXP3/tOk5+y29clzRBIUqMfsqM/hOMkmtd6vUCP3xVjm2Zxaiw3SpIITol+ow3oP9Eo0+JjoFO3rka7F9nw8lvHYLNOJAB1FroshL0t7a1ESxm5qz28DL7WSooVQoMnW7CsEfCifbO9pXCXBdWvn0duTy0kFUqgYGpJjzwRDi0wUqservQ7yEjtBBzpxYPzY/yu9mOGFTY3NiWWYwjX5bDGq/BoDQT7h+hl2SegBB43F6c2leB7PU2XP6RSsNSajBB9xUhBP31TQkIjxL2tn7tshOrFxTyIiBSwNyqLh7brgu98VivFziyw46tH/o/uhOoawGa8nIEfjxYiZztdh5WSA9Jk4wY87QZ2mCJmeuoayFLc6klaSrLPTi02YaDG+2y8R4Sggm6rwgh6M+tiEWbe8hka3+/jZ/Zz1Kh2zAdHpwdAb2Z2rQMOErd2LKsGMd282NVB4UoJd8lsCEMFhUmPh+B+wbR3WCI0TD5F2qQvd6G4187UCvhttQUwwTdV4QQ9LQ5ViSO0fP5yCbhW0Bo57fhJ+MMVDcxuXiqClkLb/g9ujPQaUmzHYY4eDzAmewK7F9Xhl/+zdzqAkOtoFNrTgmR5W6MUOGevuRmgWtDlOg8IAztuobg0ulqVJYHnjV3M7UuL84ersS5nCq0uTcYekpbZ5qjNUhKMcLrBS6eCrzDT29WwVnlv2VWlO/Coc12KFUKJNwTBKWS4luaTKm0e5C9wYYvXruOnB32gGxyRSEsy91XhLDQg0KVeGtrQouHcfiD2+XFNyvLsOfzUlm4wW5PIKOVonwXVr1diEtnqNyfPtGqnRaD00zoOlQHe5Gb15Gk1ngNHpofRfVUPjlR8IsT2ettOLarHC5n4J8nlEGthS4rQQeA8bMtGDjFxPdjOSOV2c98YbKqkfpqJDokhoq9lCb5YWc5ti77ffkT7ShVCtw3IAxJk40NdrY7tdeBTUv5GUmqUACJow0YO8vC5oGLgNcD/HioLltdLucHpTBB9xWhBD1Ep8SrK+NgjBQ3LnjiGwc2/b0IjjJpCUhL6TwgDBOfjxD9e2+KCpsb2/5RjCM76M95CDUo0Xe8Ef0mGJr9TmsqPfhyRQkObLTBy0PUJ8yowrh0C3qOJJePImeqHR7k7LAje70NJdeYS50CmKD7ilCCDgDxdwfh2eWxok9VqnZ4sON/SnBos7izn0kRFKLEqJlm9J9khJJiA+/SmWpkLSxEYS59SXPRbbQYNNWEbsN0Ptf/X/3ZidUL+RlkA9Q1GJo234qIWHobDEmZ67+6cGCDDUe+tMNVI4MDQjowQfcVIQUdAO7pG4qpc61U9CbP/akGaxaTn/0sFlJoYuJ2ebF3dRl2fyp+zoNSCXRKqpsK5m+9v9cDHNpsw/Z/8jPIRqVRYMg0+hsMSQWvF/gppxLZ6204d0R6cwJkAhN0XxFa0IE6t+WkFyPRbSgd9bYHN9qwfXkJaioDOxseABRKoP8EI0b/0SxKkiJXxMx5CNEp0WecAf0mGnlviGQvdmPz+0W8ta41t1IjbY40B77QQE2lB0e+Ksf+tTYUX6XPM8S4BWoF/f8DAAD//+3deZQV5Z3G8W83W0MDDXRDgrtSPXI0itGJxELFLeOO+4I6WR0T45iKuyLqTFzQ6GjKZKImGWfMqIhEMQbjRIMsSjloQFtlgkOJKES02fr2Ag29zR9FZxAF+nbfe39VdZ/POf0n8NzTnH663np/71vUhd5p1EH9uXDyiFicMpVZ3crTP1lDzZwm6ygFMbiyF2ddOZwxRxVunLA7Fr0YbS4rxJ6HQh5funThRqZOqWXdqty8mz34uIGc/oMqXUvaRWtWtjDvNxkWPNdQFL/Ip4QKPVuFLHSA3n1K+No3hnLcRUNyfsVqdyxZsIEn7lzd47ufkyIJh5hsbGxn5gNrCX5bn/M9DyWl8KVx0W716oML+5TbsrmDP/56PX98tI62HLxeKCsv5dRLtxwwFN/FFzMdHfDu69Gy+p9f3VAU+2dSRoWerUIXeqeqXftw4U0jPncEqNByfWNY3PXpW8IJFw/j6PMrYn3F5Yf/s4nHb6/l4+U93/NQVl7KYRMGc/hZg6kcabu5bM1fWph6x2reezM3rxd227cfF0waEeu9EoW0ubmd159vZM60Olav0LJ6gqnQs2VV6J0OPXEQp11eGYtNc7UftjD1jnQcftIVX9yrLxfcOCLWh5i0t3UwZ1qG53+5rlsHewzfvQ9HnTeEr5w4MHYH7/zpDw3M8HMzk19SCuPPHcKJFw+lX/94fc5CWbuqhVeequfVZ+tpbtKyegqo0LNlXegQbUo67fJKxp5sfzZ5Rwe89lwDz/x0TVFc+FJSAodNGMwpl1YyYFB8i6CutpUn7lzdpR3JJSWwnzuAI88Zwr5fiffmsQ0N0euFV5/NzeuFiqrenH1VFQccGe+9Erm0dNFG5k3P8M4rTTmZ/5fYUKFnKw6F3mnvA8qYOGkEI/awn7fd+u7nYjBwSC/O8Ko45O/iMYmwPTVzmnjq3tWfeyJbvwGlfPWUQRxxdkXiZrZz+XoBor0SEycNp6IqvnsleqJlUwcLX2jgpcfrYnmOgeSECj1bcSp0iI7YPOaCIRz/raF533ncFXE+/CQf4jSJsD3bnshWuUsfjjq/gkNPGpTo5eb2tg7mPpnh+V+tY3Nzzx/X+5aVcMJ3hnHUefHeK5GNutpWXn4qQ/BMfVGsoBU5FXq24lbonYaM6M2Fk+Mxb9vW2sHsqXX84eH1RXNBwwnfGcYJ3x5qHWOHVizZRMP6NvY7LN7n12errraVGfevpWZ2bmbXk7BXYmeWvdXM3CczvD23kXb1eLFQoWcrroXe6aBjBnLmD+Mxb1tX28pjtxXPhS9xmkQoRrkcqSwpgcNOG8wp34v3XomttbZ0sOjFRmY/Uceq94rjdEf5lNgWun0bbUc+7kPPpY/f30zwTD1l5aXsMbrMdNNcWXkph544iJH79GVZTTObcnAXdpxtaGhnwcwG1q1qZdRB/WPxCqSY9BtQSnNTO8vfyc3UxYolm1gws4GK4b3ZZVR8R9wya1p56bE6fn1LLYtebKRxfXFcrCSfofvQsxX3J/St7T46mrcdGYMfRpubo/e4c6dlrKNs16EnDeJ/Xt2Qkx+I/QeWcvrlVRx68iDzSYS0W/5OtLxcM6cpb+cijDqoPxMnDY/V5sHli5uZNz3Dmy/l73NLosT2CT22PwKTVOgQzdseeXYFJ/1DPM4mz/XNWj1VUdWbI86u4LAJgyiv6MXGxnZ+98BaXs3RqWtxmkRIk7aWDt54qZHZUzP8ZWlh/i/16lPC174+lOP+fgi9jU5tbGvp4M3ZTbz0eF3BPrckhgo9W0kr9E6DK3tx9lXDOXC8/bxtrm/W6o59DizjyHMqOHB8+efuaF6+uJmpd6zmkxyMRZX2im7++rtvxmMSIcka1rUx/5l6Xnk6Y7a0XLVrHyZOGt7jG+ayEYfPLbGnQs9WUgu9U5zOJs/1zVo706tPCYccN5Ajz6lgt313voO5rXXLVaUP5+aqUt381X0rlmxi3vQMi2Y15uRc91z42+MHcfrllQwcmr8tPyve3cS8J+P1uSW2VOjZSnqhQ/zOJs/1zVrbGji0F0ecVcG40wd364fv2o9aeGLKapYuys1ufd381TXtbR3UzG1i3pOZ2B4vXFZeyoTLKjlsQu5ObWxv66BmThPzpsf3c0ssqdCzlYZC7xSneduWzR28+Mh6Zj2Wm5u1APbcr4zx51Yw5uhyevXu+X+p1/+rgWfuz81Z4rr5a/uaMm28+mw986ZnPveEuzja60tlnOFVsud+3R9Z3NDQzvwZGV7+TXI+t8SKCj1baSp0iN/Z5D29WatX7xIOOqac8ecMycsvKrk+4na3fftx0c0j+OJe9pMI1j4KNzNveoY//aEhJ684LFQf3B/3jMF8+ZiuHwn8yfLNzJmW4dVn6/OYTIqACj1baSv0TuUVvTjDq+Rvjx9kHQXI/mm4vKIXh585mHFnVBRkKXtZTTNTp9Tm5LrJ0lIYf15081fcbjjLt/Z2eOflaHk5fCM9BxD161/Kvof2Z58Dy9h9dD+GjezD0C/8/76Vj8LNhG9u5M1ZjSx7S8vqkhMq9GyltdA7xWnedkNDO7/7+Vr++3fbHyEbOaovx0wcwsHHDaRXgUeJWlui1wR/fDQ3rwkqqnozcdJwRo9N19Gsn2djY/tfl9VzcbKbiKjQs5b2Qod4zNtubdubtUp7lTBmfDlHnlPB3gfaH7O6ekULU6fUsqwmN09aBxxZzllXVMViEiHXPlkeLau/9nwDLZuSuawuElMq9Gx5blgB1FnnKIThu/fh3GuGx2bMatZjdTQ3tXP4GYOpGB6/svvvmfU8+7O1bGjo+Wx937ISTr6kkiPOqaA04avwHR3w51c3MG96hiWv7fx+dhHplgo/cGK5ESPOhV4OFGZwOiYKMW+bFo3r25hx/xoWvpCb/yK7OH25YNKILs3Nx82mDe0seK6BuU9mWPtRcVynK2Ko3A+cWP7GHOdC7wsU3ZmL/QdG87ZfPTV387ZptnTRRp6YsjonRVZSAoefWcHJ3x1GWXn8H9fXrGxh3m8yLHiugU0bdHenSIH09QMnlr85x7YyPDcsBYp2SHSP/fpxwY0as+qKlk0d/OHf1zF7aoa21p6/Lx5c2Yszf1jFQVmMRBXSu69vZO6Tdfz51Q05OQdfRLrOD5zY9mZsgwF4blgPxGO+y0BpKRw9cQjHf3sYfcti/a0yFb6xkXnTM7zzchPtOXxQrT6kPxdOHhGLTXObm9t5/b8amfNEXU5G+ESkW9b5gVNpHWJ7Yt0Snhu+DBxuncPakBG9Of/64hiz6qqWzR0sfKGBOVMzf92Vnw99+pZw/LeHcfTEipycgpetdataeeXpDMFv62lu0rK6iLGX/MA51jrE9tg/euzYQlTo1NW28uCVqzhwfDRmFced54VSV/v/BbehPv8F17K5g5kPruW139dz0U1fKNjxvZ2rDm+/3ESHelwkLv5kHWBH4t4Mi6wDxMlbc5t497WNnHTJMI44O/ljVtlYVtPM3OkZ3p7bmNNl9a6q/bCF+y5ZyVdPHcyp38/P8b0tmztY9EIjs6fW5XXVQUS6baF1gB2J+5L7/sA71jniKMljVl3VsrmDRS82MmdaHavei0/B5fr43szqVl55up75z2QKsuogIt02yg+cZdYhtifWhQ7gueEq4IvWOeIoaWNWXVVX28r8GfEvOOfL/Tn32uGM2KN7x/e+/3Yzc6ZlqJldVMctiCTVCj9w9rAOsSNxX3IHmAZ41iHiqKMDXn4qQ82cxliPWXXV+281M296hpq5TbS3xX8eK3xjI3dM/BD39MEc/82hXd7bsPCFRmY/UcfKd4vumAWRJPtP6wA7k4Qn9MOAwDpHEsRpzKqrWls6WPTH6L1xnJbVu+OAI8qpPqQ/lbv0pt+AT6+YrHx3E/+7cCMr392kO7hFkmmMHzhvWYfYkdgXOmjZPRvRmNVQjp44xGTMqqsya7Ysq8+o7/LVrSIiRkI/cKqtQ+xMUh7lfgHcbB0iCaIxq3W89vuGgo5ZddXyd6Jl9TdnJ2NZXUQEeMg6QFfE9xFuK54bDgFWAMl+SVxgJSUw9uTBTLiskgGD7TbNtW1ZVp8zLcNfluq9sYgkyhpgDz9wNloH2ZlEFDqA54Z3ADdY50ii8openHZ5JYeeWNhTdOvXtjF/RoZXntayuogk1vV+4NxlHaIrklToVcCHQDwuDU+gvQ8o48KbRlC1a/fGrLpq+eItu9VnN+XkshQRESN1wO5+4CRitjQxhQ7gueHNwD9b50iyXn1KOO6iIRz39aH06Zu7b39bSwdvvNTI7KlaVheR1PiBHzg/tQ7RVYkqdADPDRcD+1nnSLphI3tz4eQRjDqoZwse9WvbCJ7J8MqMehrXa1ldRFLjdT9wDrUOkY2k7HLf2oXAG9Yhkm7dqlZ+etlHHPy1gZx2WWXWF758+OdNzH2yjoUvJGIlSkQkG83AROsQ2UrcEzpog1w+jDt9MMdcNITKkTt+v/768w3Mn1HP8sXNBUomIlJwV/qBc591iGwlstABPDcMgMOsc6RN9cH92bW6H1W79qZy1z40rGvjkw828/H7m/ko3Mz6T1qtI4qI5NNMP3BOtQ7RHUlccu90MtH1qnsZ50iVpYs2snRR7MctRUTy4S3gXOsQ3ZXYJ3QAzw2riS6cH2ydRUREEu1j4Mt+4HxsHaS7En3nph84S4EJgB4pRUSku9YDJyS5zCHhT+idPDc8CHgBGG6dRUREEuUD4Fg/cN6zDtJTiX5C7+QHzpvAV4DEf0NERKRg/gR8JQ1lDikpdAA/cD4ADgVetM4iIiKx9xhwhB84q62D5Eoqlty35bnhN4B7gWHWWUREJFZWAxf7gfOsdZBcS80T+tb8wHkE2BeYbp1FRERi4zFgdBrLHFL6hL41zw2PBR4Aqq2ziIiIiSXAP/qBM8s6SD6lvtA7eW74Q+AWYIh1FhERKYg64J/8wPGtgxRC0RQ6/PVO9duBS6yziIhIXv0CuMEPnHXWQQqlqAq9k+eGY4CHgLHWWUREJKfmA9/1A2exdZBCK8pC7+S54fnAj4HdrbOIiEiPrACu8QNnmnUQK0Vd6ACeGw4ArgeuAcqM44iISHY2AncDU/zAKep7nYu+0Dt5brgb8BPgLOssIiLSJb8BrvADZ6V1kDhQoW/Dc8NxRO/X97fOIiIin2sx0Xvy+dZB4kSFvh2eG34fuBWdNiciEhdrgZv9wPm5dZA4UqHvgOeGFURjbpdZZxERKXI/Ayb7gZOxDhJXKvQu8NxwNPAgMN46i4hIkZkLfM8PnCXWQeJOhZ4Fzw3PAu4B9jKOIiKSdu8DV/uB87R1kKRQoXeD54Y3EY26DbDOIiKSMk3AnX7g3GYdJGlU6N3kueFI4F+AidZZRERS4nGip/JV1kGSSIXeQ54bjiUacxtjnUVEJKFqiMbQFlgHSTIVeo54bvgPRDvih1tnERFJiFrgRj9wfmUdJA1KrQOkhR84vwRGEZ02JyIiO3Yf4KjMc0dP6HnguWE18ABwrHUWEZGYmQVc6gfOUusgaaNCzyPPDU8F7gUc6ywiIsZConPXZ1oHSSsVegF4bngdMBkYaJ1FRKTAGoDb/MD5sXWQtFOhF4jnhiOIrvj7unUWEZECeQS41g+cWusgxUCFXmCeGx5CNOZ2iHUWEZE8WUg0hrbQOkgxUaEb8dzwm8AU4IvGUUREcmUVcIMfOI9YBylGGlsz4gfOfxBtltN7JRFJg7uAapW5HT2hx4DnhvsAPnCKdRYRkSz9DvihHzjLrIMUOxV6jHhueCzR/Hq1dRYRkZ1YSjRPPss6iERU6DHkueGVwM1AhXUWEZFtZIB/9gPnPusg8mkq9Jjy3LAKuBP4jnUWEZEtfglM8gNnjXUQ+SwVesx5bjiGaMxtrHUWESlaC4jG0Gqsg8j2qdATwnPDC4h2xO9qnUVEisZKooNhploHkZ1ToSeI54YDgEnAVUCZcRwRSa9m4B5gih84G6zDSNeo0BPIc8M9ia4ePMM6i4ikzlPAVX7gfGAdRLKjQk8wzw3HAw8Co62ziEjiLQG+5wfOXOsg0j0q9BTw3PAfgR8BQ62ziEjirANu9gPnX62DSM+o0FPCc8NhwG3ApdZZRCQxfg7c5AfOOusg0nMq9JTx3HB/ojG3cdZZRCS25hONoS22DiK5o0JPKc8NzyG6f31P6ywiEhsfEG14e8o6iOSeCj3FPDcsA67b8tXfOI6I2NlAdPLk3X7gNFuHkfxQoRcBzw13I5opPc86i4gU3BPAlX7grLIOIvmlQi8inhuOI3q/vr91FhHJuxqi9+QLrINIYajQi5Dnht8l2hFfZZ1FRHJuNTDZD5xfWAeRwiq1DiCF5wfOQ4AD3G+dRURy6ifAKJV5cdITepHz3HA00Wlz462ziEi3zQIu9QNnqXUQsaNCFwA8Nzwd+BdgH+ssItJl7xFteHvWOojYU6HLp3hueANwI1BunUVEtqsRuN0PnDutg0h8qNDlMzw3HEl09/pF1llE5DN+DVzjB06tdRCJFxW6bJfnhmOJxtzGWGcRERYSjaEttA4i8aRCl53y3PDbwB3AF6yziBShj4Eb/MD5D+sgEm8aW5Od8gPnYaCaaNOciBTO3YCjMpeu0BO6ZMVzw2rgAeBY6ywiKfYc8AM/cJZZB5HkUKFLt3hueBJwH/A31llEUmQp0Tz5LOsgkjwqdOkRzw2vBm4CBltnEUmwDPAjP3DutQ4iyaVClx7z3HAE0dWM37LOIpJA/wZc7wfOGusgkmwqdMkZzw3HEI25jbXOIpIAC4jG0Gqsg0g6qNAl5zw3vAi4C9jFOotIDP0FuM4PnMesg0i6aGxNcs4PnEeJxtymWGcRiZnbgb9RmUs+6Ald8spzwz0BHzjNOouIoRnAFX7gfGAdRNJLhS4F4bnheKJrWkdbZxEpoCXA9/zAmWsdRNJPhS4F5bmhB/wTMMQ4ikg+rQdu8QPnp9ZBpHio0KXgPDccRnQ2/Hets4jkwQPAZD9w1lkHkeKiQhcznhvuTzTmNs46i0gOzCcaQ1tsHUSKkwpdzHlueB7RJRS7W2cR6YYPgav9wJluHUSKmwpdYsFzwzLgBuAaoL9xHJGu2Eh03sJdfuA0W4cRUaFLrHhuuBvRpS9nW2cR2YEngav8wFlpHUSkkwpdYslzw3FE79f3t84ispXFRO/J51sHEdmWCl1izXPDS4FbgUrrLFLU1hDtXH/IOojI9ujoV4k1P3AeAEYBP7POIkXrfsBRmUvc6QldEsNzw9FEp82Nt84iRWEu0SlvS6yDiHSFCl0Sx3PDM4F7gL2ts0gqLSPa8PaMdRCRbKjQJbE8N7yRaNSt3DqLpEITcLsfOLolUBJJhS6J5rnhSKKn9Quss0iiPQpc6wfOKusgIt2lQpdU8NxwLNGY2xjrLJIoNURjaAusg4j0lApdUsVzw4uB24ER1lkk1j4BJvmB87B1EJFc0diapIofOL8CHKLT5kQ+zz1Atcpc0kZP6JJanhtWE11leax1FomFWcClfuAstQ4ikg8qdEk9zw1PIXpid6yziIn/Ba7wA+f31kFE8kmFLkXDc8NrgcnAIOssUhD1wK1+4NxjHUSkEFToUlQ8NxwB/Bj4hnUWyat/JxpDW2MdRKRQVOhSlDw3PIRozO0Q6yySUwuIxtBqrIOIFJoKXYqa54bfAKYAI62zSI98BFznB86j1kFErGhsTYqaHziPANXAXdZZpNumEI2hqcylqOkJXWQLzw33AX4CnGqdRbrkt4DnB84H1kFE4kCFLrINzw2PJZpfr7bOIp9rCdG1pnOtg4jEiQpdZDs8N7wCuAWosM4iANQBt/iBc791EJE4UqGL7IDnhlVE72gvts5S5B4iOnt9nXUQkbhSoYt0geeGY4hKZax1liIzn2gMbbF1EJG4U6GLZMFzw4lEB9PsZp0l5VYA1/iBM806iEhSqNBFsuS54QDgBuBqoMw4TtpsJPqF6U4/cJqtw4gkiQpdpJs8N9wTuBc40zpLSkwHrvQDZ6V1EJEkUqGL9JDnhuOBB4HR1lkSajHRe/L51kFEkkyFLpIjnhteBvwIGGadJSHWAjf5gfOAdRCRNFChi+SQ54bDgFuB71tnibmfAZP9wMlYBxFJCxW6SB54brg/0ZjbOOssMTOX6JS3JdZBRNJGhS6SR54bng3cA+xpncXY+8BVfuDMsA4iklYqdJE889ywDLgWuA4YYByn0JqAKX7g3G4dRCTtVOgiBeK54W7A3cD51lkK5HHgaj9wVlkHESkGKnSRAvPccBzR+/X9rbPkSQ3RGNoC6yAixUSFLmLEc8NLgNuBKussOVJLdIHKv1kHESlGpdYBRIqVHzi/ABzAt86SA/cCjspcxI6e0EViwHPDauAB4FjrLFmaBVzqB85S6yAixU6FLhIjnhtOIHraHWWdZSeWEp27PtM6iIhEVOgiMeS54fXAjcBA6yzbaABu9QPnbusgIvJpKnSRmPLccCRwF/D31lm2+E+iO8o/sQ4iIp+lQheJOc8N9wZuAr5lFOFh4DY/cN43+vdFpAtU6CIJseX+9RuBC4DyPP9zTUQHw9zmB86Hef63RCQHVOgiCbPlKNkJRMV+Wo7/+hlERT7TD5zmHP/dIpJHKnSRBPPcsAI4CjgQ+NKWr/26+Mff2errbWC2HzgNeYgpIgWgQhdJIc8Ndwd2BfYAdgc6gBVbvlb6gbPSMJ6I5IEKXUREJAVU6CIiIimgQhcREUkBFbqIiEgKqNBFRERSQIUuIiKSAip0ERGRFFChi4iIpIAKXUREJAX+D8d6Bglznm2zAAAAAElFTkSuQmCC;" parent="1" vertex="1">
          <mxGeometry x="216" y="200" width="36" height="36" as="geometry" />
        </mxCell>
        <mxCell id="r69CpFzEZrANOwJ_eQuK-14" value="" style="shape=image;verticalLabelPosition=bottom;labelBackgroundColor=default;verticalAlign=top;aspect=fixed;imageAspect=0;image=data:image/png,iVBORw0KGgoAAAANSUhEUgAAAfQAAAH0CAYAAADL1t+KAAAACXBIWXMAAA7EAAAOxAGVKw4bAAAEvGlUWHRYTUw6Y29tLmFkb2JlLnhtcAAAAAAAPD94cGFja2V0IGJlZ2luPSfvu78nIGlkPSdXNU0wTXBDZWhpSHpyZVN6TlRjemtjOWQnPz4KPHg6eG1wbWV0YSB4bWxuczp4PSdhZG9iZTpuczptZXRhLyc+CjxyZGY6UkRGIHhtbG5zOnJkZj0naHR0cDovL3d3dy53My5vcmcvMTk5OS8wMi8yMi1yZGYtc3ludGF4LW5zIyc+CgogPHJkZjpEZXNjcmlwdGlvbiByZGY6YWJvdXQ9JycKICB4bWxuczpBdHRyaWI9J2h0dHA6Ly9ucy5hdHRyaWJ1dGlvbi5jb20vYWRzLzEuMC8nPgogIDxBdHRyaWI6QWRzPgogICA8cmRmOlNlcT4KICAgIDxyZGY6bGkgcmRmOnBhcnNlVHlwZT0nUmVzb3VyY2UnPgogICAgIDxBdHRyaWI6Q3JlYXRlZD4yMDI1LTA3LTA5PC9BdHRyaWI6Q3JlYXRlZD4KICAgICA8QXR0cmliOkV4dElkPjI5ODExZTlmLWJiOTctNGRmYS04OGJkLWFjNmM0MjdiZGI4NTwvQXR0cmliOkV4dElkPgogICAgIDxBdHRyaWI6RmJJZD41MjUyNjU5MTQxNzk1ODA8L0F0dHJpYjpGYklkPgogICAgIDxBdHRyaWI6VG91Y2hUeXBlPjI8L0F0dHJpYjpUb3VjaFR5cGU+CiAgICA8L3JkZjpsaT4KICAgPC9yZGY6U2VxPgogIDwvQXR0cmliOkFkcz4KIDwvcmRmOkRlc2NyaXB0aW9uPgoKIDxyZGY6RGVzY3JpcHRpb24gcmRmOmFib3V0PScnCiAgeG1sbnM6ZGM9J2h0dHA6Ly9wdXJsLm9yZy9kYy9lbGVtZW50cy8xLjEvJz4KICA8ZGM6dGl0bGU+CiAgIDxyZGY6QWx0PgogICAgPHJkZjpsaSB4bWw6bGFuZz0neC1kZWZhdWx0Jz5BSSAtIDE8L3JkZjpsaT4KICAgPC9yZGY6QWx0PgogIDwvZGM6dGl0bGU+CiA8L3JkZjpEZXNjcmlwdGlvbj4KCiA8cmRmOkRlc2NyaXB0aW9uIHJkZjphYm91dD0nJwogIHhtbG5zOnBkZj0naHR0cDovL25zLmFkb2JlLmNvbS9wZGYvMS4zLyc+CiAgPHBkZjpBdXRob3I+RXJpY2EgU3VuZGJlcmc8L3BkZjpBdXRob3I+CiA8L3JkZjpEZXNjcmlwdGlvbj4KCiA8cmRmOkRlc2NyaXB0aW9uIHJkZjphYm91dD0nJwogIHhtbG5zOnhtcD0naHR0cDovL25zLmFkb2JlLmNvbS94YXAvMS4wLyc+CiAgPHhtcDpDcmVhdG9yVG9vbD5DYW52YSAoUmVuZGVyZXIpIGRvYz1EQUdzcjgwSUpNOCB1c2VyPVVBRGp6WUhPdXIwIGJyYW5kPUVyaWNhIFN1bmRiZXJn4oCZcyB0ZWFtIHRlbXBsYXRlPTwveG1wOkNyZWF0b3JUb29sPgogPC9yZGY6RGVzY3JpcHRpb24+CjwvcmRmOlJERj4KPC94OnhtcG1ldGE+Cjw/eHBhY2tldCBlbmQ9J3InPz4jvt56AABm4UlEQVR4nOzdeXgW5b3G8W8SEkK2NyQQRXEfjnihRUUFh11ate6iUFC7WNuqVTvuimIXi6C1LlO1ao/Hc9qDgoAgCooLalBGUFGohWIZrQKChhDyZk8gyflj9FxtqUDI8szMe3+uy/+8wi0mc+eZ9/k9TxoiIiISeWmmA4iIiEj7qdBFRERiQIUuIiISAyp0ERGRGFChi4iIxIAKXUREJAZU6CIiIjGgQhcREYkBFbpIjDi2nw0cA5QABf/wD0DVl/8kgS2uZ71lJKSIdAoVukiEObbfCzgJGAacCBzXxi/xNuABbwKvup61rWMTikhXUaGLRIxj+8cBpwGnAyd08Jf3gIXAQtezVnXw1xaRTqRCF4kIx/ZPA+4CjuyiP3IlcLXrWaVd9OeJSDuo0EVCzrH9I4EHgZGGIiwCbnA96y+G/nwR2QMqdJGQcmy/BLgb+J7pLF/6H+Am17PKTAcRkZ2lmw4gIjtzbP9GwCc8ZQ7wA8D/MpuIhIxW6CIh4tj+mcC9gGU6y26sA651PWuB6SAiElChi4SAY/v9gIeBMaaztNFi4HLXs9aZDiKS6lToIgY5tp8P/Aq4xnSWdroX+KXrWdWmg4ikKhW6iCGO7f8ImAr0Np2lg5QBt7qe9ZjpICKpSIUu0sUc2x8MPAoMNJ2lk6wCLnU9a7npICKpRIUu0kUc2+8D3ANMNJ2lizwJXO961mbTQURSgcbWRLqAY/uTCcbQUqXMAS4A1jm2f6vpICKpQCt0kU7k2P5YglX5wYajmPZ34DrXs+aZDiISVyp0kU7g2H5/4BHMHdcaVqXAZa5nrTUdRCRuVOgiHcix/QQwBbjSdJaQexCY7HpW0nQQkbjQZ+giHcSx/Z8CH6Ey3xNXAh85tn+56SAicaEVukg7ObY/lGAMbYDpLBG1mmDMbanpICJRpkIX2UuO7fcF7gPON50lJmYTnA+/0XQQkShSoYu0kWP72cAk4EYg23CcuKkHfgPc6XpWg+kwIlGiQhdpA8f2JxAUzgGms8TcBuAG17OeMh1EJCpU6CJ7wLH9AQSfkw81nSXFLCX4fH216SAiYadCF9kFx/aLgGnAT0xnSXGPAre4nlVhOohIWGlsTeRrOLbvEIyhqczNu5RgzO1npoOIhJVW6CL/wrH9McDDQD/TWeTfWktw2lyp6SAiYaJCF/mSY/uHEoyhnWU6i+yR+YDjetanpoOIhIEKXVKeY/u5wGTgZtNZZK9MA6a4nlVnOoiISSp0SWmO7X8XuAvoYzqLtMsm4CbXs6abDiJiigpdUpJj+4MIdk4PMp1FOtRygjG3VaaDiHQ1FbqkFMf2SwhW5D8wHEU61+MEK/Zy00FEuorG1iRlOLZ/A+CjMk8FPyQYc7vedBCRrqIVusSeY/unE+xe1xhaaloHXO561mLTQUQ6kwpdYsux/X4E8+RjTGeRUHgeuMr1rI9NBxHpDCp0iR3H9vOBXwDXmc4iofRb4HbXs6pNBxHpSCp0iRXH9i8BpgIlprNIqH0BTHI9679NBxHpKCp0iQXH9gcTjKENNJ1FImUVwZjbctNBRNpLhS6R5th+H+Bu4ELTWSTSpgM3up612XQQkb2lsTWJLMf2byHYwawyl/a6CPibY/uTTAcR2VtaoUvkOLZ/LnAPcIjpLBJLHwPXup4133QQkbZQoUtkOLbfH3gEGGk6i6SEUoJrWteaDiKyJ1ToEnqO7SeAXwNXmc4iKel3wM9dz0qaDiKyKyp0CTXH9i8DpgDFprNISisHJrue9ajpICJfR4UuoeTY/lCCMbQBprOI/IPVBGNuS00HEflXKnQJFcf2+wL3AuNMZxHZhaeA613P2mg6iMhXVOgSCo7tZwM3AzcCPQzHEdkTdQRX8f7G9awG02FEVOhinGP74wkOhznQdBaRvfApcIPrWbNNB5HUpkIXYxzbH0DwOflQ01lEOsBSgs/XV5sOIqlJhS5dzrH9IuAO4DLTWUQ6wcMEO+IrTAeR1KKjX6VLObb/M8BHZS7xdTngO7Z/pekgklq0Qpcu4dj+SIJT3vqbziLShdYSnDZXajqIxJ8KXTqVY/sHAfcD55jOImLQXILz4T81HUTiS4UuncKx/RzgVuAW01lEQqKB4FKhqa5n1ZkOI/GjQpcO59j+RQTzufuZziISQp8R3L3+pOkgEi8qdOkwju0PJBhDG2w6i0gELCcYc1tlOojEgwpd2s2x/V4EK/Ifms4iEkGPAZNczyo3HUSiTWNr0i6O7V8HfITKXGRv/YhgzO0a00Ek2rRCl73i2P4YggM0+pnOIhIj64DLXc9abDqIRI8KXdrEsf1DgQeA00xnEYmxBYDjetbHpoNIdKjQZY84tp8L/BK43nAUkVTyG+B217NqTQeR8FOhy245tn8xMA3Yx3QWkRT0OXCz61l/NB1Ewk2FLl/Lsf1BBGNog0xnERFWEIy5rTAdRMJJhS47cWy/D8EY2ndNZxGRnfyJ4P71MtNBJFw0tib/xLH9ScDfUJmLhNX3CMbcbjIdRMJFK3QBwLH9swnOmT7MdBYR2WM+waUvz5kOIuap0FOcY/v9Ca41HWk6i4jstcUE8+vrTAcRc1ToKcqx/QTwK8AxnUVEOsx9wC9cz6o2HUS6ngo9BTm2fykwBehlOouIdLgtwK2uZ/2n6SDStVToKcSx/aEEY2gDTGcRkU63imDMbbnpINI1VOgpwLH9vsBvge+YziIiXW4GcJ3rWZtNB5HOpUKPMcf2s4EbgZuAHMNxRMScOmCa61lTTAeRzqNCjynH9s8nWJUfZDqLiITGJwSr9bmmg0jHU6HHjGP7Awg+Jx9qOouIhFYpcJnrWWtNB5GOo0KPCcf2iwh2rl9uOouIRMZDBDvik6aDSPvp6NcYcGz/SoITo1TmItIWVwAfO7b/U9NBpP20Qo8wx/ZHEpzy1t90FhGJvNUEY25LTQeRvaNCjyDH9g8C7gXGms4iIrEzB7jG9ayNpoNI26jQI8Sx/RzgFuA6INtwHBGJrwbgNwSjbg2mw8ieUaFHhGP7FxD8gO1vOouIpIwNwI2uZ800HUR2T4Ueco7tDyQYQxtsOouIpKylBJ+vrzYdRL6eCj2kHNvvBUwDfmQ6i4jIl/5AMOZWbjqI7ExjayHk2P61BGNoKnMRCZOfAOsc29e1yyGkFXqIOLY/BngY6Gc6i4jIbqwDLnc9a7HpIBJQoYeAY/uHAi5whuksIiJt9CzBmNvHpoOkOhW6QY7t5wI/J7gRTUQkyu4EprieVWs6SKpSoRvi2P73CX4A9jWdRUSkg2wGbnI9639NB0lFKvQu5tj+IIIxtEGms4iIdJIVBGNuK0wHSSUq9C7i2H4JcDfwPdNZRES6yH8DN7ueVWY6SCpQoXcBx/ZvAiYDeaaziERVUZ9uFBR3o66qmbL1203HkT1XDfza9ay7TQeJOxV6J3Js/0yCS1Qs01lEoqR7TjonfDufY8bkUbx/NxK9uu3073zxSROfrmnkr2/V8Zc3a9ne1GogqbTBOoLd8AtNB4krFXoncGy/H8E8+RjTWUSipHi/TEZNSDD49AKysvf88dTU0MK7L9aw+H8r2bpZq/eQW0wwv77OdJC4UaF3IMf284HbgatNZxGJkiOG5DBsbIIBQ3Pa/bWWLahi/gNbqa9p6YBk0onuAX7lela16SBxoULvII7t/xi4A+htOotIFGR2T2Pw6QUMPz/BPgdldujXrk028+xDW1m+UF0RcmXAJNezHjcdJA5U6O3k2P5ggjG0gaaziERB0b7dGDEuwZAzCsjO69zrJP7+QQMzppZpE134rSIYc1tuOkiUqdD3kmP7fQheGU00nUUkCvoN6sHI8QkG2LmkdeG1UM07Wnn1yUpefHwbO7Zr41zIPQHc4HrWZtNBokiFvhcc278NuBlo/wd+IjGWmZXGcafmM2Jcgj6HZhnNUrF5BzOmlbFuRb3RHLJbtcBU17Ommg4SNSr0NnBs/zzgt8DBhqOIhFqiVzdGjE9w4pkF5BSE65bm91+tYd795VRtbTYdRXbtY+A617OeMR0kKlToe8Cx/f7AI8BI01lEwuywo3swYlyCo0bkkh6uHv8nDbUtLHy0gjfnJmnVW/iwKwUucz1rrekgYadC3wXH9hMEO9evMJ1FJKy6ZaYx6OQ8RoxLsH+/7qbjtMnGDxt5cmoZm/wm01Fk9x4AbnM9K2k6SFip0L+GY/tXEMyUF5nOIhJGBcUZDD8vwYlnF5BXmGE6zl5raYE35iR5/g8VNNZrdj3kyglK/RHTQcJIhf4vHNsfCTwEDDCdRSSMDj4ymxHjEhw9Opf0jPg8QpJbdvD0feX8uVTXeUfAaoIxt6Wmg4RJfH4a28mx/YMIxtDOM51FJGwyuqVxzJg8Ro5PcED/aL1Wb6u1y+uYeecWKst2mI4iuzeLYOPcRtNBwiDlC92x/RyCEbQbgGzDcURCJa9nBsPGJhh6TgH5RdF9rd5WTQ2tvPh4Ba/NqKRFb+HDrh64C7jL9awG02FMSulCd2x/AsEd5X1NZxEJk/37dWf0xATHnJRHRmbqPiY+/6SJJ+8oY/2aRtNRZPfWExxKM8t0EFNS8ifVsf2BBMe1DjadRSQs0jPSOHp0LiPGJTj4SL2s+kprKyxfUMX8B3XhS0QsJfh8fbXpIF0tpQrdsf1ewFTgx6aziIRFTkE6Q89NMOzcAhK9d753XAI1lc3Mf2Ar7yzShS8R8Qhwq+tZFaaDdJWUKXTH9q8GfgEUms4iEgZ9Dsti1HcKGXRyHt1S+LV6W320sp4ZU7dQ/pkufImAbcAvXM96wHSQrhD7n2LH9scADwP9TGcRMS09HY4akcvI8YUcOlCv1fdW8/ZWXpleyct/1IUvEbGW4LS5UtNBOlNsC/3L1+sPABNMZxExrUdeOvY5BQwbm6DnPnqt3lEqNu/giSllfLRSF75ExAzgyri+ho9loTu2PxH4HdDLdBYRk0oOzGT0xEKOOyWfzO6x/HEPhRUv1TDPLaemUhe+RMAWglKP3W74WP2EO7afT3Cf7pmms4iYkpYGRw4Ldqv3G9TDdJyUUV/TwoKHt+LNr9KFL9EwD/i+61mx2eUYm0J3bL8vsAgd2SopKjs3nSFnFjD8/AKK+2SajpOyNn7YyPTby/j8E134EgGrgW+6nvW56SAdIRaF7tj+AOAVYF/TWUS6Wu8DMhk5PsEJp+WTlR3iO0tTSEtzK6WzkrzwWAVNDVquh9xGglL/0HSQ9op8oTu2PwR4GcgznUWkq6SlwRFDchgxPsHhx+eQFvmf5HiqLNvB0/eW88EbuvAl5KqA0a5nvWc6SHtE+jHg2P7BwHtAT8NRRLpEVnY6Q87IZ/j5CXofoNfqUbF2eR0zpm4hWa4LX0Lsc+CYKL9+j2yhO7ZfALyL5sslBRTvF7xWH3x6Pt1z9Fo9ipoaWnjhsW2UPqULX0Lsz8AQ17MiOYcY5YHUZ1GZS8z1H5zD0HMLOGp4rukoofLOC9UcfkIOBcXRuQEuKzuds68sZsgZ+cyYuoVPVqf0xWBh9Q2CK1kjOSkVyRW6Y/u/JDjGVSR2MrunccJp+Yw4P8E+B2eZjhMaVVubWTovyZtzq6hNNpOVncZpPylixLhC0iP20qK1Fbz5VTz3+6001Gq5HkLXu551j+kQbRW5Qv/yprSVpnOIdLTCkm6MHJ9gyJkF9MiLWEN1ovVrGimdXcnKV2tp3rHzjvH9rCwuuKWEvod3N5CufaormnnmgXJWvFRjOorsrJ/rWb7pEG0RxUJfAxxhOodIR+l3bA9GjEtw5LBc0tTjADTvaGXVa7WUzkry6Zrdv5pOS4OhYxOccWkR2bnR+0v8aGU9T0wpo2KzNs2FyNuuZ0Xqiu1IFbpj+5OBX5vOIdJemVlpDDoln5HjEvQ5TK/Vv1JT2Yz3TBVvzk1StbXtx6gWFGdw7tW9OOak6E2x7tjeyst/3MYr0ytp1oUvYXGF61m/Nx1iT0Wm0B3bLwQ2ATrLUiIr0asbI8YlOPGsAnIKoreS7Cwb/9bIktlJVrxc0yFl1m9QDy6cXEJhSfT2/ZZ/tp0ZU7fowpdwKAcOjMqu9ygV+lRgkukcInvj0IHZjByX4KiReZHbwNVZWlrgg9IaSmcn+XhVx+/4zsxK45Qf9mT0xEIyukXmUff/3llUzTO/20ptUhe+GBaZDXKR+C7/cnW+AZ0GJxGSkZnGoG/lMWJcgr7/Eb0NW52lrqqFt56tYsnsZJcctFJyYCYTbynhkKOid/97XXULz/1+K8ue04UvBkVmlR6VQr8duM10DpE9UVCcwbCxCexzCsgrjM6cdGfb/HETS2YneXdRNdubur6dhpxRwFlXFEfyo471axp58g5d+GKQ43rW70yH2J2oFPrnwD6mc4jsysEDshkxLsHA0bmRfMXbGVpbYLUX7FZft8L8Aic3kcE5VxVz/LfzTUdps5bmVl6bmWTRYxVGfiFKcStdzzrGdIjdCf1Tx7H94cAS0zlE/p2MbmkcfVIuI8cXcuAReq3+lYaaFpYtrGLJrCQVn4dvFOuQo7K58LYSeu0fvfPwK8t2MPPOLaxdXmc6Sqr5D9ez1pkOsStRKPQHgStM5xD5R7mJDIafV4B9TiJSx492trL121kyJ8nbC6tpagj3CWgZmWl886JCvvX9nnTLDP2jcCd/Lq1lzj1b9mq8T/bKz13PCvXYdOi/ix3br0C3qUlI7N+vO6MmJDh2TB4ZESyBztDaGtwmtmR2kr8ui96qsahPNy6cXMJhR0dvIraxroXn/7OCJXOStIb796c4+IvrWUeZDrEroX4iObZ/DMH1qCLGpGekMXBULiPGJSK5U7qzNNa38Pbz1bw+M8nWTdtNx2m3QSfnce7PepHXM3pvXDb5TTw5tYyNHzaajhJ3+7qe9YXpEF8n7KcuHGc6gKSunIJ0hp6TYNjYAhK9w/6j0nXKP9vOG08nWfZcNY118VkWrniphtVL6zjrp8WceHYBaaFe7vyz/awsrnusL0vnJXnu4Qoa6+Pz/yVkBgHPmw7xdcL+lBpkOoCknn0PzmL0xEKOPTmPzKwIPdU72d/erad0VpI1Xm1sZ6IbaluYdfcWli2s4oJbS9g3QrfdpaXDsPMSfGNUHvPuL+f9V3XhSycIdaGH+mnl2P67qNSlC6Slw1HDcxk5PhHJz1I7S1NDK+++WM3rMyspWx/91+ptkZ4OoyYUcuolRWRlh/pR+W+tW1HPjGm68KWDzXc96xzTIb5OqL9LHduP6TpAwqJHXjr22QUMHZugaN+wv7DqOtu+2MGbTyfx5ldRX5Par28LS7ox4ebe9B+cYzpKm21vbOWl/9nG4icqaWnW47QDfOJ61iGmQ3yd0Ba6Y/vdgNRaEkiXKTkwk1ETCjnulPxIrr46y0cr61kyO8kHS2ppSe0e38k3RuZy3jW9Irmfomz9dmZMLePvH3T8mfmpxvWs0D4wQhvMsf1swPzRUhIrA4bmMGpCIf2O1Wv1f/TOompen1HJZ76OFt2V7jnpnHlZEcPOS5iOslfefbGaea4ufGmnbq5nhfIvMMyFngdUm84h8dBvUA/Ov7YX+0Rok1Nnq65oZsmcJEvnJamr0nK8Lfazspg4qYQD+kfvdMCGmhaeeWAryxZUmY4SVT1czwrlq44wF3ohsM10Dom+Uy8p4tQf6myir3y6piG4e/wl7YJur5HfSXD6T4rIyo7ehS8fr2pg5p1lKbfZsQMUuJ4VysVmmAu9J1BhOodE28k/6MlpPy4yHSMUVrxUw+tPVbJhrQ4f6UgFxRmcd00vBo6O5u3OL/9pGwsf1aO2DYpczwrlYlOFLrF11IhcLpm2r+kYRlVXNOPNr+KNp5PUbAvlx36x0W9QDy6cXEJhSfQ2zVVs3sGMaWWhuBEvAlTobaVCl/bIL8pg8qwD6d4jeq9CO8KGDxtZMjvJe6/U0Lxd40pdJTMrjVMvKWLUhEQkr9B9/9Ua5t1frgtfdi20hR69XyVF9sDplxalZJm/90oNbzyd5O9/DuWendjb3tTKcw9v5Z0XqvnOzb0jd/b/MSflccTgHF74rwpKn0qajiNtFNpfIbVCl72VlZ3GHc8fQmb30H57d6jaZDNvPVvNG08nSW7RqWBhMuSMAs66spic/Oj9crnhw0ZmTtvCZ+u05+JfaIUu0lUOPCI7Jcp8k9/EktlJ3n2xmh16rR5KyxZU8cEbtZzrFHPcKfmm47TJAYd357rH+/LGnCTP/0EXvkSBCl1ip8+h8Z41X/lqDUvnVbHuPW1gioLaZDPTby9j+YJqJkzqTfF+maYj7bH0dBg5PsGx38xjzr3lrHpNo45hpkKX2Inj6ry+poVlz1VROitJZZleq0fRuvfqmXrBBr71vZ5887uFdMuMzvdpflEGF0/Zh7XL85l55xZ9D4aUCl1iJ05Xe5Zv3M5rMyt5+/lqtjfG6D8sRTVvb2XRf1Ww4qVqxt/YO3JHEPcfnMMv5x3EwkcrePlPofwYOaWp0CV2on6rVGsr/PWtOpbMTrL27TrTcaQTbNmwnYeu2sTxp+Zz9lXF5BVmmI7UJqdfWsTx385n+q+/YP0abZoLCxW6xE5UN4g11rWwfGE1pbOSbN2k4zhTwTuLqvnLm7WcdUUxQ84sIC06b+EpOTCTa/7Ql+ULqpj/4NaUv2Y3DFToEjvNEevC8o3bWTInyfKF1TTW6aGYauprWnjqri289VwVF922DyUHRmfTXFoaDDmzgCOH5zL/wWD+XsxRoUvsNO+Ixgr9w3fqKZ1VyV/fqovV5/6yd9avaeTOizYwemKCUy4uIis7Osv1vMIMLpxcwpAz8pkxdQvln0Xst+qYUKFL7OxoCm87NjW08M6iGl6fWcmWDXroyT9raW5l8fRKVrxUw4WTS+g3KFqb5g47ugeTnjiAV6ZX8vIft0X246+oUqFL7OwI4Qq9YvMO3pybxJtfRUOtXqvLrlWW7eChn21i4Og8xl5dTKJXdB7VGZlpnHJxT44/NZ8nppTx0Uqdl9BVovNdIrKHwnQZif9+PUtmJ/ngjVpa1ePSRqteq2HtsjpOv6yI4WMTpEXoBNmiPt246qH9eO/lGubeX05NpS586WwqdIkd0yv07U2trHipmtdnJPn8kyajWST6GutbmHtfOcu+3DS3nxWtkxCP/VYeR5yYw4KHt+LNr9J+kU6kQpfYMbXLvbJsB2/OrcKbn6SuSstx6Vib/CbuvngDI85PcNqPi+ieE53leo+8dMbd0JsTzypg+u1l+kW3k6jQJXZMbIqbe185S+bouknpXK0tUDoryfuLazjv2t4MHJVrOlKb9D28Ozc/cQCvzajkhccqaGrQcr0j/R8AAAD//+ydd2BUVd7+n6lp0zKTTEJCEhBZEQUpQqihg5QAAoEExIqsygb7KgHslHVXFsXs8vKzLxB6V0AUJBSD1AUX4UUEE0IgpM1k0mYyM78/svEFTLmTuffcc+eez3/vu3LnZOae85xvl84Vj8HgiFuETnHnj7HEHwY57MVufDr3Gpa/UCDJvuqD0kzIyIpHp/7SupDQDhN0RsAhRlKcmvm6GCJw7kglFkzJxd7VZZJreWyyqvHE4mg8taSVpLL4aYYJOiPgEKP2VSWhyVmMwMLl9GJbZjHeffiKJPuqd0gMxdy1cRiYapJUFj+NsK+PEXCIYaEzQWeIzbXLTvx95hWs++sNyfVV1wYrMT7dgqeXxEgq2Y822DfHCDhEsdBVTNAZ4uP1Aoe32LEgNRfHdkuvr/ofeoTgT8tixF6GZGGCzgg4xBB0tQ8WujlajeSnLRj2SLiAK2LIGUepGyvfKkRm+lXJTe6L6xCER96KEnsZkoQJOiPgcIuQ9MvV5d5lsA6vbUzAkIdMGD3TjFdXxqFtp2CBV8eQKxdOVGHR1Dzs/rSUqg6KzdF1iA69xhjEXobkYILOCDjEGEGq4pikGxx265aLbqvF7H/GYsorkQjRse3I4J9alxc7PyrB4ul5+PmkdMorJzxvgcGiEnsZkoKdIAwGD3B1uXsaaEurUAC9xxowd208ejyg53tpDAYA4EaeCx/+6SpWvV2IChv9fdW1wUqMnGEWexmSggk6IyAhXZPLVdCb6jOvM6kwbb4V6ZkxiIjV8LU0BuMWju4qxzuTc5Gzg/6+6j1H6VnWuw+wb4oRkJBOjOMaQ+cS36+fKT1yhtmnZDsGgytVDg/WLLqBZc/k40YevUlzKrUCnQewbnJcYYLOCEhqCZ9RXIWXa2JS/UzpjKx4tO8e4s/SGIxG+eV0NRZNy8OO5SVw1dBprnfoGSr2EiQDE3RGQEI6o5e7he7busyt1Jj1QQwefjMKOhNLEGLwj8ftxTf/KsWC1FxcOE5f0lxse2mNixUTJugMSaALV2HkDO4jI30VTn/hmuXe0lBAt6E6zFsbj34TjS369wxGc5QV1iJz9lV8Nv867MX0JM2ZrKzPO1eYoDOoJrZ9EKa/HoU3tyRgxGPh0ARxTD4jbKFzdrn7cdEI1ikx6YUIvPRJa8TcyawWhjCc2uvAgim5OLjRBi8FHWRvL/VkNA67+jCoQ6lSoMvgMCSlGNHmnlubrvAdq+YL7mVr/n9W67uC8NKnccheX4avVrCZ0gz+qanyYMOSIuR8WY6pGVbRL5BqjUKUDpBSgwk6gxpCDUr0m2BE3wcNjY5TVKm5lofxubLm4RpDb6pszReUSmDgFBO6DNJh09IinN5fwctzGYybuXK+Bn99LA8DUkwY+WQ4gkLEsZZVTNA5wQSdITqt2mkxKNWEbsN0zVq6ao7l2cST4jheNPhel8mqxuMLo3HuSCXWLL6BskIR+t4yAhqvB/hubRlOfuvApBcj0CmJfBmZWqOA9AbDkocJOkMUlEqgU1KdW71dF+5lWZwtYUpd7kIl63VIDEVGVjx2f1KCfVll8FAQ+2QEFraiWnw85xoSR+uRlmEl+tlck07lDvuaGEQJ0SnRZ5wB/SYaER7l++snliXcHCrOngPh1qANViD5GQt6jNJj9YJC5J5lNg2Dfy6dqSb+mVz3vdxhgs4ggjVeg4GpJtw/Qg9tcMs3J+cWq7Ra6ARa0ka30eL5Fa2Rs92ObZnFqHIwc53BH0JeShuDq2dO7jBBZwiGQgF07BOGAZON+MP9/HQ742yhk65Dp+yiUT/wpVNSGLYuK8bRXeVEPpcR+PCV2OkLamahc4IJOoN3gkKV6JWsR/+JRt6HjFBbtkZpKKB+4EuvZD2yFt5AUT69fbsZ0kCMuerMQucGE3QGb1hiNBiYaqybkCRQeQvXWDXpXu58DmcRgvqBL9+sLMOez0tZCRCjxYhhoXPd93KHCTrDbzokhmLAZCM6JIZCIfBFmlaXO2cLXYTDsJ76gS89HtAja1EhlX27GfQjhoXOXO7cYILOaBGaIAUSRxvQf5IRUQnkrs+0JsVxznIXUdDrqR/4cmKPA5uWFsFRRk/fbgb9MJc7vTBBZ/iEyarGwClGJI4xIERHvmuUUFPN/MWXA8dd66WiDKfbMB069g7F9uXFOLzFDq/4dw2GBBCjxwHXi7zcYYLO4ET7biFImmzEvX3DoBBxVgKtdei+uARpEXSgbuBLykuR6J1swOqFhbj6s1PsJTEkgKvGy3lQEh/Qsl9ohwk6o1E0WgW6j9BjQIoRrdrRMd2LXpe7L4Iu4EJaCBv4wvAFt4uwoDMLnRNM0Bm/wxipRtIkI3ol6xFmVIm9nFvgPndc2HXcji8uQUepW5RwRXPUD3zpOliHDUuKcCabDXxhNAzpTHeuMxzkDhN0xm+07RyMASlGdB4QBqWKzhsxrXXovrgEl8y4gvHpEeg5Wi94VUBLMEaq8cQiNvCF0TjE9xel5xFtMEGXOSqNAt2G6pCUYkTcXUFiL6dZaE2KU2u5HzhVDg+yFhUiZ4cdaRlWWOPpND/YwBdGY5C20JnLnRtM0GWKLlyF/hON6DPOAL2ZLrd6U3Ceh07cQvf931w6U43FD+VhyDQThj8aTjQmyRU28IXREKT7uTNB5wYTdJkR2z4Ig6ea0GVQmCQ3Ca0u95aW1XjcXuz5ohTH95QjbY4V7bvz0/Oeb9jAF8bN0FxFImeYoMsApUqBLoPqZo+3uTdY7OX4BefWrxJzCZYU1CJz9lV0HazDg89FwGChz2vCBr4w6iG/v4h+nGRhgh7AaLQKJKUYMTDVJCm3elNwH4Ii8EJug6/GFyf3OnD2+0okP2NGvwlGXp7JN/UDXxLH6LFmERv4Ikek4gGTG/TVzjB44d5+YZi7Nh7Jz1gCRswB+saU3gxflQE1VR5seK8IS2ZcQcFFehu93Nk1BPPWxWPUk2axl8IgDPkcFSboXGCCHoCMnmnGjL9Ew2QNPAcM5yx3MQZI8OwWzP2pBu8+moctHxSjporemPXwR8Px2oYEtOtCZ/yfwT80N26SM0zQA4xeyQYMeyRc7GUIBleXuxgWuhBWhNcDfLe2DAtT86hu9GJupUZ6ZgwefiMKOlPgeIQYDUM8pMUsdE4wQQ8gDBYVJjwXIfYyBOPS6Wp8v93O6b8VY6qZkFaEragWH8+5hhUvF8BeTO90tG7DdJi3Nh79JtIZ/2fwA/nhR0Q/TrIEnk9Wxgx/NBza4MC7yR7dWY69WWU+xZPFsNBJJO6cPVyJdyb/ipEzzBiUZhL881pCsE6JSS9EoOcDeqz5Cxv4EoiwGDqdMEEPELTBCvQcpRd7GbzhKHPj8BY7Dm6ytcgiJe0SBMhl4jqrvdj6YTF++KocqXMikdCRzlLE+I5B+PPncdiXVYadH7GBL4EE8davLIbOCSboAUL83cHQBks/glJw0Ynv1pXh+G6HX1ZAoLncG6LgFyeWzsxHn3EGjHnaQuXAFwAYlGZC1yE6bFpahNP76c0DYHCHeGtlZqFzggl6gBAZJ+0g0+n9FTiw0YYLx6t4eZ4oLncRdpPXCxzaYsfp7AqM+5MF94+g00tjsqrx+MJo/OdQJdb/jQ18kTosy51OmKAHCEoJJhY7q73I2W7Hd2vKUHKN3wNeDhb6zZSXuLHyrUIc3VmOKa9aYY6mc2vf0zcU9/RNwLbMYuxdXSb2chgthHzjJrKfJ1Xo3PUMn3FLyOApKahF9gYbvt9mR02lMPXVtU55CXo9549WYWFqLoY9Eo6hD5moWFNDjJ1lQc/RbOCLVGFJcXTCBD1AEMMi9ZWLp6qwf50NZw5UwCtwnxQxvg9a4ny1Li92flSCozvLMW2+FW070Zk0xwa+SBfmcqcTJugBghid0bjgdnlx4huHz2Vn/iJKYxnKDp2ifBfefyofPUfqMS7dgjAjfXEZNvBFmrCkODphgh4giCFgTeEodePQFjsObLTBUUq+EYoYZWu0ugV/2FmOMwcqMD49Aj1H66GgcJn1A196JeuRtZANfKEdVrZGJ0zQAwRaYuj5PzuRva4Mx752iOo1ID3eEaA7cafK4UHWokLk7LAjLcMKazydi23XJQRzVsXhm5Vl2PN5KXUXVUYdUhtPLBeYoAcIYsbQvR7gP4crsH+tDRdO8FN25i9iXCakcOhcOlONxQ/lYcg0E4Y/Gg5NEH1rVmkUGPFYOHo8oMeqdwpx8RQd7xTj/yDfy53s50kV9jUFCGIIWE2lB0e+LBek7IwP3LVeom5wqcxs9ri92PNFKY7vKUfaHCvad6dzSlr9wJcTexzYtLQIjjJ6e9jLDZblTidM0AMEki6w4gIXstfbkLO9XLCyMz5ggt40JQW1yJx9FV0H6/DgcxEwWOhLmgPqBr507B2K7cuLcXiLHV7mhRcd8sNZpLW3xIIJeoBAou762mUndvyzBD8elEb7zlonoCVYsSVVK+LkXgd+OlKJsbMs6DPOIPZyGiRYp0TKS5HoNcaArEVs4IvYEE+Kk+jeIg2dzZ8ZPuMhcGM+/V2FZMQcYLWyvlBd4cG6d2/gvcevIJ9isYzrUDfwZWAqnZPm5ALpvSU175dYMEEPEEhkuau10tpUxGtl6Uwc94m88zX46yN52LKsGK4aen3b49MtePiNKLGXIVvIX5aJfpxkYYIeIJCIoUvtlszcgi3nuzVleGdyLtXT0boN02H660zUxYD03mKNZbjBBD1AILHBpOZSJl0rK7ULT3PYimrxScY1LH+hALYi+qoYAKD7cB0SR9M5YS6QId33Qmpnj1gwQQ8QSLiXVRJLoWTdrPjh3JFKLJiSi31ZdE5HS37GgqBQdpSRRJTWysxKbxa2CwIEEhtMahuKdPMLqX0/vuCs9mLrh8X4y/Q8/Hq2Wuzl3ILOpMKoGWaxlyErRGncFMD7iy+YoAcILCnu9zCXO/8U/OLE0pn5WP/XG1RNR+s1Vg+NxN5PKcNaK9MJE/QAgUSDF5VKWgcm8cQdGQg6AHi9wKEtdixIzcWx3XRMRwsKUaJDr1CxlyEbWGtlOmGCzuCM1FxerLRGWBylbqx8qxCZ6VdRfFX86Wi0zn0PRNg0Qzphgh5AeNzCCpjkXO4sKY4IF05UYdHUPOz+tFTUCXtRCVrRPltusKQ4OmGCTjmhBu4/Ua3At2aW5d40cq6VrXV5sfOjEiyenoefT4ozHY3WXvSBiBiCzmLozcMEnVI69AzFE4uj8eS7rTj/G6Hbv/oSI467K0jAlXCD1cqS50aeCx/+6SpWv1OIChvZ6WhS8yBJGTHGNbP91TwSs7kCG41WgR6j9EhKMSK6TZ37MO98Ded/L3TmqS8batayurGX2/5RjOoKcbKhifeblrGFfjs/7CzHmQMVGJ8egZ6j9VAQ+GrkkpRIA6xsjU6YoFOAMUKNpMlG9B5rQKj+VqeJLyIh9CbzaS21XvQZb0DnAWHY+mExju4inw1NvrEM0Y+jniqHB1mLCpGzw460DCus8cJ+QUp2mhHDRWC64+2wC1vzsC0gInfcF4wBk03olBQGZSPBD6UPIiq0Rar0IURZvxZduArT5lvRK1mPrIU3UJRPLj2WdK0scwk2zKUz1ViYlovXNyUgPEq4I4d5SMji8aDRc0sImIXePEzQCaPSKNB9qA5Jk41o/Yfm48y+JIJ4BA5ZqoN88Rbc+n+36xKCOavi8O2qMnz9WSkRdzhLiqMLoXslsAsVWdwuL5Q+nAn+wiz05mGCTghduAr9JxrRd7wBunDupq4vt1KhRdJXl/vtqDQKDH80HPeP0CNrUSEuHBc2G5p04g4TlKah6f1k+I/b5YWGoKCzkFbzMEEXmNj2QRiUZkTXwboWHfi+3EqFtkh9WX9Th7e5lRqzPojByb0ObF5aBHuxMK6FWsJxPmZBNI3QFyx2oSIL8T4P7MLWLEzQBUCpUuC+gWFISjH63b3KJxEVumyN5wS9roN1uDsxFF+tKMGBTTZ4efbICl2XfztMUJpG6O5i7PsnCxN0+mCCziMhOiX6PmhEvwkGmKz8fLW+vMRUWegcLxfBYUpMeD4CvZINWL2wEFd8KNNrDtIud2ahN43gSZusqwZR2P6iDyboPGCN12DwVBO6D9fzHlPyJSlO6EYqvgi6r5eLmDu1ePGj1ji02YYd/1PCS+068bI1tpuahIQAqDUKUbqYyRHiHjBmoTcLO4JaiEIB3NM3DAMmG9G+e4hgn6P0YcKZ0AemLxZQS9yrCiXQb6IRnQfqsOWDIpz4xuH7Q26CjU+lCxJCq2KCTgzW54E+mKD7SFCoEr2S9UiaZIQlhswbptIoOG0eEgcZVwvIHzE1WFR4+M0o9B5rQNaiQpQUtMz1QP7AYYLeFCR+D7VGAf6CNoymYC53+mCCzhFLjAYDU43oOUqPoBCywTq1mpugkzgwuVpAfKylffcQZGTFY8/npfhmZZnPzyTe+pUdOE1CxEJnJxoxWFIcfbDXvxk69AxF0mQj7u4VSqQfdUOoNAA4lGyTGEbC1QLiy92t1igwcoYZPUbWdZq7eIp77Trp4SxAXYhE6DG2UoXEDG126JOD9XmgDyboDaAJUqDnyLohKVFtxJ+xzNXyI7HBuFpAfHsLImI1SM+MwfGvHdj8fhEcZc3XrpOuQwfqkhidZIeMSQYSOQ3s0CcH84DRBxP0mzBZ1UhKMaJX8u+HpIgJV6uDVAydC0JZx92H6+AodWPzB0Uc1iDWRChmoTcEkRg6s9CJQb6KhP22zcEEHdyGpIgJV6uDiIXOdS0Cbnau2a5iZDszC7FxSGW5M8hAumzNlxJeuSJbQVdpFOg+TIekFG5DUsSEq9VBJCmOq7dAwMsFZy+BCILO3IKNQ+bCKfhHMP4LqyKhD1kKerdhOiQ/bRF0lCOfcI1bk7gx0yCmNFwqGoMJeuMwl3tgQXw8sQ89OeSKNBSNR2b+rRU69g4Vexk+wXUmOpmkOPHj+VzXQCKr+naYFdE4JC6cLM5KDmah0weFEWPhePDZCMmJOQCotRQJOkeXppAlY5y/DzFc7rK7InOHphwPhv+Q3l/M+9U8shH0u3uFYsBko9jLaBFcXU2kOnFxQciSMc4hCDGy3Nmh0yg05Xgw/Ie4y51dlptFNl/RqJlmsZfgM85qL47tLse1S05O/z2ROl+OB2alXbhibK797cWw0JmgNw6J95NlQpODdEiL7a3mkYWgx96pRdxddGey30xxgQvZ62zI2VGOmkruU8dIbDCuFvrhrXZUlXsw4fkI6M0qftfA0eUuRtkaS8pqHFKtiRlkYI1l6EMWgm5uRf+13esFzh2pRPZ6G84dqYS3BXuFthjlyb0OnP2+EqNmmtF/kpG3Gn8aMu0bgwlK4xBpfMQuVMRgvdzpQxaCboyk98+sqfLg2C4H9q0pQ9EV/0xsMjFK3/77mioPNr9fhB++tCN1jhVxHfz3lHDPtPf7o3yGHTqNQ6K3PteKEIb/sKQ4+qBX6XiExu5v1y87cWCjHT98VQ5nNXe3elPQFEO/nfyfnVgy4wr6PmjEmD+aEaxr+Y9CU2/722Ex3MahKWmT4T/kh7MQ/ThJIgtBFyPbuSG8HuA/hyuQvcGG/z3KfWoYV2g/ML1e4OAmG07tdWDCcxHoNkzXoufQ1Ar3drjG9+UImdavgn8E478wlzt9yELQxYil3kxluQc52+04uNGGkmvC+R2l0rjDUebGF29cx6EtdqRlRCIi1rdT2Bcr2O3yEo1rs0OncUhcsFgMnRyks9yZ96V5ZCHoYmQ7A0DBRSeyN9hwbFc5XARGeZKYw82nOF48VYVF0/IwbLoJQx8O57xhfRHN2lqygs4OncZhw1kCC+Iud3ZZaxZZCDqJZJx6PB7gTHYFDmyw4eeT/LvVm4LM+FR+n+d2ebHrk1Ic2+1AWkYk2nUJafbf+LKx3S4AzT+SN9ih0zgkLDr2/ZODudzpQx6CTuDFq7C58f02Ow5ssMNWRPAGcRNS7sRVlO/CsllX0W2YDuPTI2CwNF677osVRvzQYRZioxCx0NmhTwyWFEcfshB0IQ+SK+drkL3BhhN7HKK59ush04lL2APzxB4Hzh6uxJinzOg73ghFA8nwvngJyDe/IPpxkoJM0qbgH8H4L6yxDH0wQW8h1Q4P/uflAlw6Xc37s1sKEZcmgU1VXeHBhveK8MPOcqS9akWrdtpb/ndtMPeSN9IJkfF3BxP9PClBpKySHfrEYC53+qCwQpt/hHANOWu8VIk5QNf4VD7IPVuDdx/Nw+b3i3xqgXszpN2CnQeE4bUNCZxyAeSGlENCjN/DernThzwEXYAXj8bJP0TKgghvKq8H2L/OhgWpufj3Psdv/3+um1uMMIi5lRrpmTF4+I0o6Ez89rGXMoH4fsoZ0t4vDevx0CzyEHQBDhIaDw4ywy8E/4gGsRe78em868icfRVlhbWc643FaC5TT7dhOsxbG4++DxqgoO91IQ5LigssxGjYRWPXT5qQxdcjxGxuriM8SSKHA/PC8SosmJKLmipuLnjSbsHbCdYpkfJSJF78uDVi7tQ2/w8CGDJla8J/BqMONvyIPmQh6G4BGq5oguh7sUjU29PgmfClSU+Vg58++f7S+q4gvPRpHMbPtkAbLP53KAYsKS6wECOcxX7fppGHoAv04tFmpQdaUhwf2IvF6QnQEEolMHCKCXPXxKNTUpjYyyEO7bMGGL4hioVO2ZlLG7IQdKFukrTVvLID8/dc/dkp9hJ+hzFSjScWReOpJa1gssrLRyz0pVNqF04pQ7IDZz1SO39IIwtBF+rFo+3wINEvXikx/blwnGz7XV/okBiKNzYnYOj0cLGXQgyhBZ0d+OQQx+VO/CMlhSwEXagXj8Z4jkfgkLHUDsxrl5349Sxd/QJuZ8xTZmRkxSO+Y5DYSxEcoScCSu3CKWVEEXTKjCjakIWgC+WKplHcmEvz9+zLsom9hGaxxmvw/IrWSJ0TiRBd4G5LocNCbHwqOcSIodN45tJE4J4cNyGYhU7h4SH4gSnBDXVqrwPXLtMXS78dhQLoNcaAeevi0eMBvdjLEQTBL5wSfD+lCstypw9ZCDogzKxw2pLiAGahN8aqtwrhpaOCrVnCjCpMm2/Fs8tjYY2n8CXzA6FFQIoXTikjxLnaFMwD0zSyEXQhYnc03haFPjBp/Ju5kHe+BhuW3BB7GT7RtlMwMrLikfy0Reyl8IbQHiSpXjilColE3JthORJNIxtBF8JypfHwELobF41eCa4c2mzHpqVFYi/DZ4Y8ZMJrGxPQITFU7KX4Ta3ApU4sC5ospEvXmAemaeQj6AJYBjS+XMzl3jTZ6234fP51uGrEnV3vK+ZoNZ5a0gqPvRMFg0W6A1+YhR5YCNFWuynY79s0shF0IVzRNL5crM63eU7udWBBai7OHKgQeyk+c98gHTKy4tF/olHspbQIwWPoFO7JQIZ4DD0Azh8hkY2gy2XiGouhc6OssBYfv3oNy18oQFkhPe1huRAcpsTEFyLw58/jJDfwRXALPUDeT6lAepoh+32bRjaCLkxSHP/P9BfmcveNc0cqsWBKLr5dWSbqqNWWEHOnFi9/GocJz0cgKEQaW5ldOAML8i53oh8nOaRxCvCAEJYBjeLGkuJ8x+X0Yvs/i/HuI1dw6TTdXeVuR6EEkiYZMXdtPLoN04m9nGYR+tLE5mWTIThMicFTTTBFkVVYGs9cmpDNfUcuLnfBD8wAnnZ0/bITHzyTj8QxBox9xoJQg3TUwWBR4eE3otA72YCsRYUoKaAzjEBqgJAYTU/kQGScBgOnmNBjpA7aYPL7Q60N3POHD2Qj6IIkxVEo6CQOskA+ML1eIGe7HWeyKzA+3YIeI6XVsa199xDMWRWPrz8vxbcry4gnLTWH0L3cgbp9GajvpxgoFMDdvUORlGLEXT1CoRDx2GNJj00jG0GXTR06iZnoMjgwK2xurHqnEIe32jFtvhURsdKJNWiCFBg904weD+iRtbAQl87QE0Yg8X6qNQrUCP4pgY82WIleyXr0n2hEZBwd7z+NRhRNyEbQhRAgKl3uBIRWTokpl85UY9G0PAx9yIShD4dDIyGXnzVeg2eXx+KHneXYuqwYFTa32EsichGU0/spBJYYDQZMNqLnKD2Cw+gKO9FoRNGEbF59IZLFaMxyJ+HSpPEiIyRulxe7Py3F0V3lSJtjRfvuIWIvySd6jtTj3r5h2JZZjCNf2uEV0blCykJn+M5dPUIwYLIJd/cW163eFIGYlMsnshH0Wif/kzlUFCaIuQnETKV2Sx72SDj+vc+Bwlz/bjslBbXInH0V3YbpMD49QlId20INSqTOiUSfcQasfPu6399FSyHiQWKCzhlNkAI9R+qRlGJEVBv6exqw37Zp6PKnCIhbAG8jjRmX7MD8PXqzCi9/HocRj4XzsvYTexxYmJaLQ5vtkpngVk98xyC88q84JD9jESV8QCQpjsKLNm2YrGqMnWXBW9vaIOXlSEmIOSA9Y4I0srHQ5VOHTsClSeHf3RRulxcarQIjZ5jRY6QeWQtv4OKpKr+eWV3hwfq/3cD32+146DUroiVyIAJ17+2QaSZ0H6bDmsU3cO5IJbHPJpW0yWiYO7uGICnFiHv7h0myZp+FU5pGPoIukzr0WnZg/o6bf/uIWA3SM2NwdFc5tnzgf6LYlfM1eHd6HpImmzByRrhkOrYBdVbaU0ta4fT+CmxcUgRbkfC160SS4lic9RbUGgXuH1HnVpdaq+DbodGIognZCLowdei8P9JvhO4UB9D5dzdFQ27eHg/ocU/fMGz/RzFytvuXKObxAN+tKcPJbxyY8HwE7hsY1vKHiUDnAWG4u1codn5Ugr2rywT9LOZBIofBokL/SUb0fdCIUL10LppNoZRO2oooyEbQhRA6Gg8OIlnEFP7dTdGYiITqlZjySiR6JxuwekEhrl12+vU5tqJafDr3GjokhiItIxLGCOlsL02QAmNnWXD/CD1WLyzElfPCVHIzl7vwtO0UjKTJRtw3ICzgOjs6qwO7/4W/BMa1jQNCuKJpPDhcBIYl9JtgpK4+tSmaE5H4jkH48xetMXaWBdpg/3/T3wa+rBLW2hWCmDu1eOmT1kh5OVKQ35jE+ynXpLjEMXq89ElrPLs8Fl0H6wJOzAHAdoPOlsa0IJ1T2U8ESYqjUNBJtPrsNkyHeWvj0X04/cNAAG7hFqVKgcFTTZi7Nh4dEkP9/kxntRfb/1GMv0zPw69n6enUxpW+4w2Yu4b/gS8eAucxjftSKPRmFUbOMOPt7W2QNseK1ncFib0kQaGp6yGNyEfQhUiKo9D1TCKGDgC6cBWmvx6F9MwYmFvR7Vr25TJnjKhLFHtiUTQvLvOCX5xYOjMf6/56A1UOadW46c11A1/4/I2Pf12OvauF7TEvh+Yjse2D8NBrVryxKQEjHguH3hz4wWV7sRuXf2SC3hSyEXTZDGchPNO7XZcQzFkdz1uNtxC05DvplBSGjDVxGJhq8ru8x+sFDm+xY0FqLo7tLvfvYSLQrksIXtuQgAceD/f7WS6nF9syi/Huw1eQe1aYOD2t7yEfdB+uw7PLY/HyZ61x/wh9QP+tt7N/bZmoXQ6lgGwEXZCkOAotAVcNeSuwvsY7Y3Uc7uxKX1vUlv72QSFKjE+34M//iuPFlekodWPlW4XITL+KG3nidGrzhweeMGPumni07+b/b3ztshNLnryCDUuKUFPJ7zsbaKVNYUYVhj8ajje3JmD661Fo2ylY7CURx1ZUi+z1NrGXQT2yEXRBkuIoPDgcpeK5dS0xGvzpwxhMnWtFmJEeF6C/+RPRbbR48WP+EsUunKjC4ul52PVJqeSm1kXGaTBrWQymvx4Fncn/3/jgRhveTsnFiW8cPKyuDhr7Q7SE6DZapGVY8caWBIx60iypqgk+cdd68fGca0QSKqWObARdLklx1/0sveKDnqP0yMiKQ+JoOmaJ83GZUyj+L1GMj2RAt8uLXR+XYPG0PL+71olB9+E6zF0bjz7jDX4P8nCUufHF69eROfsqSgr8z5qj8aLNFYWyri9AemYMXl1Vt4ekNOGPb7we4LP51wULzwQashF0QWLoFB4cRfku2IvFH5MZZlQhLcOK9MwYWOPFjU3U8niz15vrkgGfWBTNy/OK8l1YNusq/vXmdVTapZU0F6JTYvLLkXh2eSwvrW8vHK/CW5N+xTf/8q/cT2qNj4C673LodBNe25CAxxdGo10X+kJXpKmu8OCTuddwJrtC7KVIBtkIulxavwKgKvGqXZcQvPJFHEY9aRbt+xJiAl3bzvzGMY9/7cA7k3/F4a12Xp9Lgjb3BuPVVXEYn85PHf+O5cVYmJbbYquMxuqTxrDGazD55Ugs2t0WY56yIDxKnm712zmyoxyLH8pjYu4jsnl75OJyB+rakPabYOTlcOUDlUaB4Y+G4/4Reqx6p5C4i1kqXQIryz1Y9+4N5OywY+pcaQ18AYCBqSZ0GazDxr8X+X0QF+a68PeZV5A42oCxsywINXC3PWjdl/UoFEDHPmEYkGLEH3owS7yeKocHOdvt2L/OhrJC1kCmJchG0IUY26im9NuzF7vx5YpiPDg7Quyl3IK5lRrpmTE4/rUDm98vgqOMTGhAape53LN1A18GpprwwBNmai5mXDBZ1XhiUTTOHalE1sIbfg188XqBnB12nDlQgbHPWJA4hltOBo2hMAAIClWiV7Ie/ScaERErwbiAQFy/7ET2Bht++KocrhqW+OYPlEoS/wjhcqfZEti/1oa7eoSiY2//u57xTffhOtzbLxTbl5fg4EbhS1Gk2PbX4wH2ri7DiW8cSH01kpfudSTpkBiKuWvjsOvjUny3pgweP9IDKmxuZC0qxLHd5UidEwlLTNNiSJugW2I0GJhqRM9ReklN4xMSrxf46ftK7F9XhvNHpZcUSiuyebuEsNJojaHX89m868j/Wfys94YIClVi0gsReP7/xSK6rbCuZSF+e1KzpMsKa7H8hQJ8knFNcm5IbbASY2fV1fHHd/S/jv/CiSq8nZKLXZ+UNvnfqSgxUzokhuKP77XCvHXx6D/RyMQcdYlu2etteGdyLla8XMDEnGcoefWFRy516DfjrPYgMz0fzy5vjagEOl18CR2D8efPW2PfGht2fVQiSK2pULXeGq2CWG3s6f0VOHekEqNnWtA/xUjsQsEH0W20eH5Fa+Rst2NbZrHfLXB3fVyCY7vKMW2+tcEmK2oRy7w0QQokjjYgKcUoenUHTdzIc+HABhtydpTDWS2tag4pIRtBl1oclS8q7R689/gVDEw1Ysg0E4JC6VMCpUqBIdNM6DZUh3Xv3sBPOZW8Pl+okZ0qDTlBB+oGvmz+oAhHvrJjaoa0BnEoFEDvsQZ0SgrD1mXFOLrLv0qMonwX3n8qHz0e0GP8bMstjYzEmDJmjlYjKcWIXmMMCNbRt8fEwOsFzv9Qiez1NvyUU8nathKACbof0Nj6tSGc1R58/VkpcrbbMenFSHQeECb2khokPEqNP77XCv/e58DGvxfxVk8v1MAasTw0V3924r0nrqDvBCPGzDRLSkB0JhWmzbeiz3gDVr1diKJ8/36co7vK8ePBCoxPj0DP0XooFCDaiKV99xAkpRhxb98wKKTzMwiKs9qDH74qx/51Nkm2OJYy9PTnvI1ecbNDALzC1/NCDSr0n2jk63G/8fVnTcfzaKKmyouT3zqQ+1MN7rgvBCGUCkF0Wy16jzXAWeXFrzx0iKqp9ODGFRfu6BzCaxwze52N9z7kvpD7Uw1ydpQjPFqNVndIq8QtPEqNvuMNUGsUuHSm2q+kuVqnFz8erMCF41VQqRU4vNUuaL6BRlvnVp82z4rBU02IStD63S0vECgucOHrz8rwrzcLcXp/heQaJfnAX47kfUDl2DdqX8Nn+/wcDqCEr+dFxGowb108X4/7jef6XuT9mSTQaBUY+aQZA6cYRXFRcuXK+RqsXliIqzwk9wWHKZH8jAV9xhp4sabemvQrL61K+aB99xCkzbFSP8q2IUoKapG1qBAXjtOdIGWMqHOr9x5r8KkuPtC5cLwK2ett+PFghVzc6ub3D99JpSVH7UnOt6CbrGq8sTmBr8f9xosDfxHEnU+K6DZaTJ1r5SULWSg8HuDAehu+XFEMZ7X/33Xru4IwNcOKmDv9s2oXpOZS5VJUaxQY8Vg4Bk81SSK/43ZOflvXn4CG1sU3c0fnYAyYbESnATpJJSMKiavGi2O7y7EvqwyFufTsAUIwQfcVvgVdb1bh7e1t+Hrcb7wy9BJqqqTtWlIogN7jDEh+2kKtGx6oK+HiowsZUDcEIynFiFEzzC1OFPzL9DwU/EJfWaA1XoO0jIYzwGmn2uHBjhUlOLTJJqq1p9Io0H2oDkmTjWj9B3ovu6QpvV6LgxttOLzV7ne1goRhgu4rfAt6qF6Jhbva8vW438gYeSlgYkU6kwoTnotAt2H+TxMTEj66kNVjsKgw8YVI3DfQ90TBvz1+BVfO0zsFqucoPcb9yULVKFuu8Blq8QVdeF2uTd/xBujCpfe9CcXFU3Vu9TPZFX7lOwQITNB9hW9B1wYr8e63/Av6a2MvU+ci9Jd2XUIwbR7d8VhntQc7PyrF/rX+dSGrp0NiKFJfjYTJyv1vXjozH5f/Q2VuzG+E6JS3ZIBLCY8HOLDBhq9WlAjuBUvoGIykFCO6DA6jvr8EKVxOL07sceC7tWUouEifJ0pEmKD7Ct+CrlIr8N7+O/h63G+8OeFXlF6nIzGKT9T/HagyZBrd8dhrl51Y+VYhL5ayRqvAiMfDMSjNxOlQXzbrqmRmmbftFIy0DKskm53YbtRi0/vF+Pc+B6/PVakV6DI4DEkpRiR0lF54QihsN2pxcLMdhzbbAsb7yDNM0H2Fb0EHgKWH2vH5OADAO1NyUXQlcJNCImI1jXbkogWvBzi0xYbt/+DHkuMag/7nc1cl1bpSqVJg8FQTRjwWDk0QtVu/US4cr8Kqdwr9LkkLM6rQb4IBfR80wmBhbvV6Lv9Yjez1NpzaVwGPACOHAwgm6L4ihKC/990dvFubi6fl4drlwHdHSSEeay92Y/PSIpzcy48l13OkHuPSG/+bV7xcgLOH+e1qRwKTVY1p86xo3116oztdNV7s/rQUe1eX+Sw6rdppMSitriMh7XMYSOF2eXFyrwP7smzIv0BvPghlUCvo1J7OfDeWAYAh00y8b+SCS07knQv8jZB/wYnvt9qhN6upzfoNClWiy2Ad2nUJwYXjVaiu8M9az/+57m8ONagQ1+H3f/OpfRUo/FV63pnqCg+O7izHtcsutO0cjGAK2wE3hkqtwB/uD0HXITpc+d+aZq11pRLoPFCHKa9EIvkpC2LbB1Hdd4EU9mI39mWV4Ys3CnFstwPlJYGVByQwrLGMrwhhoS/c2VaQhhB8Zl1LASnEY+ssuRLsXW3jxX0Y3zEIU+daEd3m/2rXP3/tOk5+y29clzRBIUqMfsqM/hOMkmtd6vUCP3xVjm2Zxaiw3SpIITol+ow3oP9Eo0+JjoFO3rka7F9nw8lvHYLNOJAB1FroshL0t7a1ESxm5qz28DL7WSooVQoMnW7CsEfCifbO9pXCXBdWvn0duTy0kFUqgYGpJjzwRDi0wUqservQ7yEjtBBzpxYPzY/yu9mOGFTY3NiWWYwjX5bDGq/BoDQT7h+hl2SegBB43F6c2leB7PU2XP6RSsNSajBB9xUhBP31TQkIjxL2tn7tshOrFxTyIiBSwNyqLh7brgu98VivFziyw46tH/o/uhOoawGa8nIEfjxYiZztdh5WSA9Jk4wY87QZ2mCJmeuoayFLc6klaSrLPTi02YaDG+2y8R4Sggm6rwgh6M+tiEWbe8hka3+/jZ/Zz1Kh2zAdHpwdAb2Z2rQMOErd2LKsGMd282NVB4UoJd8lsCEMFhUmPh+B+wbR3WCI0TD5F2qQvd6G4187UCvhttQUwwTdV4QQ9LQ5ViSO0fP5yCbhW0Bo57fhJ+MMVDcxuXiqClkLb/g9ujPQaUmzHYY4eDzAmewK7F9Xhl/+zdzqAkOtoFNrTgmR5W6MUOGevuRmgWtDlOg8IAztuobg0ulqVJYHnjV3M7UuL84ersS5nCq0uTcYekpbZ5qjNUhKMcLrBS6eCrzDT29WwVnlv2VWlO/Coc12KFUKJNwTBKWS4luaTKm0e5C9wYYvXruOnB32gGxyRSEsy91XhLDQg0KVeGtrQouHcfiD2+XFNyvLsOfzUlm4wW5PIKOVonwXVr1diEtnqNyfPtGqnRaD00zoOlQHe5Gb15Gk1ngNHpofRfVUPjlR8IsT2ettOLarHC5n4J8nlEGthS4rQQeA8bMtGDjFxPdjOSOV2c98YbKqkfpqJDokhoq9lCb5YWc5ti77ffkT7ShVCtw3IAxJk40NdrY7tdeBTUv5GUmqUACJow0YO8vC5oGLgNcD/HioLltdLucHpTBB9xWhBD1Ep8SrK+NgjBQ3LnjiGwc2/b0IjjJpCUhL6TwgDBOfjxD9e2+KCpsb2/5RjCM76M95CDUo0Xe8Ef0mGJr9TmsqPfhyRQkObLTBy0PUJ8yowrh0C3qOJJePImeqHR7k7LAje70NJdeYS50CmKD7ilCCDgDxdwfh2eWxok9VqnZ4sON/SnBos7izn0kRFKLEqJlm9J9khJJiA+/SmWpkLSxEYS59SXPRbbQYNNWEbsN0Ptf/X/3ZidUL+RlkA9Q1GJo234qIWHobDEmZ67+6cGCDDUe+tMNVI4MDQjowQfcVIQUdAO7pG4qpc61U9CbP/akGaxaTn/0sFlJoYuJ2ebF3dRl2fyp+zoNSCXRKqpsK5m+9v9cDHNpsw/Z/8jPIRqVRYMg0+hsMSQWvF/gppxLZ6204d0R6cwJkAhN0XxFa0IE6t+WkFyPRbSgd9bYHN9qwfXkJaioDOxseABRKoP8EI0b/0SxKkiJXxMx5CNEp0WecAf0mGnlviGQvdmPz+0W8ta41t1IjbY40B77QQE2lB0e+Ksf+tTYUX6XPM8S4BWoF/f8DAAD//+3deZQV5Z3G8W83W0MDDXRDgrtSPXI0itGJxELFLeOO+4I6WR0T45iKuyLqTFzQ6GjKZKImGWfMqIhEMQbjRIMsSjloQFtlgkOJKES02fr2Ag29zR9FZxAF+nbfe39VdZ/POf0n8NzTnH663np/71vUhd5p1EH9uXDyiFicMpVZ3crTP1lDzZwm6ygFMbiyF2ddOZwxRxVunLA7Fr0YbS4rxJ6HQh5funThRqZOqWXdqty8mz34uIGc/oMqXUvaRWtWtjDvNxkWPNdQFL/Ip4QKPVuFLHSA3n1K+No3hnLcRUNyfsVqdyxZsIEn7lzd47ufkyIJh5hsbGxn5gNrCX5bn/M9DyWl8KVx0W716oML+5TbsrmDP/56PX98tI62HLxeKCsv5dRLtxwwFN/FFzMdHfDu69Gy+p9f3VAU+2dSRoWerUIXeqeqXftw4U0jPncEqNByfWNY3PXpW8IJFw/j6PMrYn3F5Yf/s4nHb6/l4+U93/NQVl7KYRMGc/hZg6kcabu5bM1fWph6x2reezM3rxd227cfF0waEeu9EoW0ubmd159vZM60Olav0LJ6gqnQs2VV6J0OPXEQp11eGYtNc7UftjD1jnQcftIVX9yrLxfcOCLWh5i0t3UwZ1qG53+5rlsHewzfvQ9HnTeEr5w4MHYH7/zpDw3M8HMzk19SCuPPHcKJFw+lX/94fc5CWbuqhVeequfVZ+tpbtKyegqo0LNlXegQbUo67fJKxp5sfzZ5Rwe89lwDz/x0TVFc+FJSAodNGMwpl1YyYFB8i6CutpUn7lzdpR3JJSWwnzuAI88Zwr5fiffmsQ0N0euFV5/NzeuFiqrenH1VFQccGe+9Erm0dNFG5k3P8M4rTTmZ/5fYUKFnKw6F3mnvA8qYOGkEI/awn7fd+u7nYjBwSC/O8Ko45O/iMYmwPTVzmnjq3tWfeyJbvwGlfPWUQRxxdkXiZrZz+XoBor0SEycNp6IqvnsleqJlUwcLX2jgpcfrYnmOgeSECj1bcSp0iI7YPOaCIRz/raF533ncFXE+/CQf4jSJsD3bnshWuUsfjjq/gkNPGpTo5eb2tg7mPpnh+V+tY3Nzzx/X+5aVcMJ3hnHUefHeK5GNutpWXn4qQ/BMfVGsoBU5FXq24lbonYaM6M2Fk+Mxb9vW2sHsqXX84eH1RXNBwwnfGcYJ3x5qHWOHVizZRMP6NvY7LN7n12errraVGfevpWZ2bmbXk7BXYmeWvdXM3CczvD23kXb1eLFQoWcrroXe6aBjBnLmD+Mxb1tX28pjtxXPhS9xmkQoRrkcqSwpgcNOG8wp34v3XomttbZ0sOjFRmY/Uceq94rjdEf5lNgWun0bbUc+7kPPpY/f30zwTD1l5aXsMbrMdNNcWXkph544iJH79GVZTTObcnAXdpxtaGhnwcwG1q1qZdRB/WPxCqSY9BtQSnNTO8vfyc3UxYolm1gws4GK4b3ZZVR8R9wya1p56bE6fn1LLYtebKRxfXFcrCSfofvQsxX3J/St7T46mrcdGYMfRpubo/e4c6dlrKNs16EnDeJ/Xt2Qkx+I/QeWcvrlVRx68iDzSYS0W/5OtLxcM6cpb+cijDqoPxMnDY/V5sHli5uZNz3Dmy/l73NLosT2CT22PwKTVOgQzdseeXYFJ/1DPM4mz/XNWj1VUdWbI86u4LAJgyiv6MXGxnZ+98BaXs3RqWtxmkRIk7aWDt54qZHZUzP8ZWlh/i/16lPC174+lOP+fgi9jU5tbGvp4M3ZTbz0eF3BPrckhgo9W0kr9E6DK3tx9lXDOXC8/bxtrm/W6o59DizjyHMqOHB8+efuaF6+uJmpd6zmkxyMRZX2im7++rtvxmMSIcka1rUx/5l6Xnk6Y7a0XLVrHyZOGt7jG+ayEYfPLbGnQs9WUgu9U5zOJs/1zVo706tPCYccN5Ajz6lgt313voO5rXXLVaUP5+aqUt381X0rlmxi3vQMi2Y15uRc91z42+MHcfrllQwcmr8tPyve3cS8J+P1uSW2VOjZSnqhQ/zOJs/1zVrbGji0F0ecVcG40wd364fv2o9aeGLKapYuys1ufd381TXtbR3UzG1i3pOZ2B4vXFZeyoTLKjlsQu5ObWxv66BmThPzpsf3c0ssqdCzlYZC7xSneduWzR28+Mh6Zj2Wm5u1APbcr4zx51Yw5uhyevXu+X+p1/+rgWfuz81Z4rr5a/uaMm28+mw986ZnPveEuzja60tlnOFVsud+3R9Z3NDQzvwZGV7+TXI+t8SKCj1baSp0iN/Z5D29WatX7xIOOqac8ecMycsvKrk+4na3fftx0c0j+OJe9pMI1j4KNzNveoY//aEhJ684LFQf3B/3jMF8+ZiuHwn8yfLNzJmW4dVn6/OYTIqACj1baSv0TuUVvTjDq+Rvjx9kHQXI/mm4vKIXh585mHFnVBRkKXtZTTNTp9Tm5LrJ0lIYf15081fcbjjLt/Z2eOflaHk5fCM9BxD161/Kvof2Z58Dy9h9dD+GjezD0C/8/76Vj8LNhG9u5M1ZjSx7S8vqkhMq9GyltdA7xWnedkNDO7/7+Vr++3fbHyEbOaovx0wcwsHHDaRXgUeJWlui1wR/fDQ3rwkqqnozcdJwRo9N19Gsn2djY/tfl9VzcbKbiKjQs5b2Qod4zNtubdubtUp7lTBmfDlHnlPB3gfaH7O6ekULU6fUsqwmN09aBxxZzllXVMViEiHXPlkeLau/9nwDLZuSuawuElMq9Gx5blgB1FnnKIThu/fh3GuGx2bMatZjdTQ3tXP4GYOpGB6/svvvmfU8+7O1bGjo+Wx937ISTr6kkiPOqaA04avwHR3w51c3MG96hiWv7fx+dhHplgo/cGK5ESPOhV4OFGZwOiYKMW+bFo3r25hx/xoWvpCb/yK7OH25YNKILs3Nx82mDe0seK6BuU9mWPtRcVynK2Ko3A+cWP7GHOdC7wsU3ZmL/QdG87ZfPTV387ZptnTRRp6YsjonRVZSAoefWcHJ3x1GWXn8H9fXrGxh3m8yLHiugU0bdHenSIH09QMnlr85x7YyPDcsBYp2SHSP/fpxwY0as+qKlk0d/OHf1zF7aoa21p6/Lx5c2Yszf1jFQVmMRBXSu69vZO6Tdfz51Q05OQdfRLrOD5zY9mZsgwF4blgPxGO+y0BpKRw9cQjHf3sYfcti/a0yFb6xkXnTM7zzchPtOXxQrT6kPxdOHhGLTXObm9t5/b8amfNEXU5G+ESkW9b5gVNpHWJ7Yt0Snhu+DBxuncPakBG9Of/64hiz6qqWzR0sfKGBOVMzf92Vnw99+pZw/LeHcfTEipycgpetdataeeXpDMFv62lu0rK6iLGX/MA51jrE9tg/euzYQlTo1NW28uCVqzhwfDRmFced54VSV/v/BbehPv8F17K5g5kPruW139dz0U1fKNjxvZ2rDm+/3ESHelwkLv5kHWBH4t4Mi6wDxMlbc5t497WNnHTJMI44O/ljVtlYVtPM3OkZ3p7bmNNl9a6q/bCF+y5ZyVdPHcyp38/P8b0tmztY9EIjs6fW5XXVQUS6baF1gB2J+5L7/sA71jniKMljVl3VsrmDRS82MmdaHavei0/B5fr43szqVl55up75z2QKsuogIt02yg+cZdYhtifWhQ7gueEq4IvWOeIoaWNWXVVX28r8GfEvOOfL/Tn32uGM2KN7x/e+/3Yzc6ZlqJldVMctiCTVCj9w9rAOsSNxX3IHmAZ41iHiqKMDXn4qQ82cxliPWXXV+281M296hpq5TbS3xX8eK3xjI3dM/BD39MEc/82hXd7bsPCFRmY/UcfKd4vumAWRJPtP6wA7k4Qn9MOAwDpHEsRpzKqrWls6WPTH6L1xnJbVu+OAI8qpPqQ/lbv0pt+AT6+YrHx3E/+7cCMr392kO7hFkmmMHzhvWYfYkdgXOmjZPRvRmNVQjp44xGTMqqsya7Ysq8+o7/LVrSIiRkI/cKqtQ+xMUh7lfgHcbB0iCaIxq3W89vuGgo5ZddXyd6Jl9TdnJ2NZXUQEeMg6QFfE9xFuK54bDgFWAMl+SVxgJSUw9uTBTLiskgGD7TbNtW1ZVp8zLcNfluq9sYgkyhpgDz9wNloH2ZlEFDqA54Z3ADdY50ii8openHZ5JYeeWNhTdOvXtjF/RoZXntayuogk1vV+4NxlHaIrklToVcCHQDwuDU+gvQ8o48KbRlC1a/fGrLpq+eItu9VnN+XkshQRESN1wO5+4CRitjQxhQ7gueHNwD9b50iyXn1KOO6iIRz39aH06Zu7b39bSwdvvNTI7KlaVheR1PiBHzg/tQ7RVYkqdADPDRcD+1nnSLphI3tz4eQRjDqoZwse9WvbCJ7J8MqMehrXa1ldRFLjdT9wDrUOkY2k7HLf2oXAG9Yhkm7dqlZ+etlHHPy1gZx2WWXWF758+OdNzH2yjoUvJGIlSkQkG83AROsQ2UrcEzpog1w+jDt9MMdcNITKkTt+v/768w3Mn1HP8sXNBUomIlJwV/qBc591iGwlstABPDcMgMOsc6RN9cH92bW6H1W79qZy1z40rGvjkw828/H7m/ko3Mz6T1qtI4qI5NNMP3BOtQ7RHUlccu90MtH1qnsZ50iVpYs2snRR7MctRUTy4S3gXOsQ3ZXYJ3QAzw2riS6cH2ydRUREEu1j4Mt+4HxsHaS7En3nph84S4EJgB4pRUSku9YDJyS5zCHhT+idPDc8CHgBGG6dRUREEuUD4Fg/cN6zDtJTiX5C7+QHzpvAV4DEf0NERKRg/gR8JQ1lDikpdAA/cD4ADgVetM4iIiKx9xhwhB84q62D5Eoqlty35bnhN4B7gWHWWUREJFZWAxf7gfOsdZBcS80T+tb8wHkE2BeYbp1FRERi4zFgdBrLHFL6hL41zw2PBR4Aqq2ziIiIiSXAP/qBM8s6SD6lvtA7eW74Q+AWYIh1FhERKYg64J/8wPGtgxRC0RQ6/PVO9duBS6yziIhIXv0CuMEPnHXWQQqlqAq9k+eGY4CHgLHWWUREJKfmA9/1A2exdZBCK8pC7+S54fnAj4HdrbOIiEiPrACu8QNnmnUQK0Vd6ACeGw4ArgeuAcqM44iISHY2AncDU/zAKep7nYu+0Dt5brgb8BPgLOssIiLSJb8BrvADZ6V1kDhQoW/Dc8NxRO/X97fOIiIin2sx0Xvy+dZB4kSFvh2eG34fuBWdNiciEhdrgZv9wPm5dZA4UqHvgOeGFURjbpdZZxERKXI/Ayb7gZOxDhJXKvQu8NxwNPAgMN46i4hIkZkLfM8PnCXWQeJOhZ4Fzw3PAu4B9jKOIiKSdu8DV/uB87R1kKRQoXeD54Y3EY26DbDOIiKSMk3AnX7g3GYdJGlU6N3kueFI4F+AidZZRERS4nGip/JV1kGSSIXeQ54bjiUacxtjnUVEJKFqiMbQFlgHSTIVeo54bvgPRDvih1tnERFJiFrgRj9wfmUdJA1KrQOkhR84vwRGEZ02JyIiO3Yf4KjMc0dP6HnguWE18ABwrHUWEZGYmQVc6gfOUusgaaNCzyPPDU8F7gUc6ywiIsZConPXZ1oHSSsVegF4bngdMBkYaJ1FRKTAGoDb/MD5sXWQtFOhF4jnhiOIrvj7unUWEZECeQS41g+cWusgxUCFXmCeGx5CNOZ2iHUWEZE8WUg0hrbQOkgxUaEb8dzwm8AU4IvGUUREcmUVcIMfOI9YBylGGlsz4gfOfxBtltN7JRFJg7uAapW5HT2hx4DnhvsAPnCKdRYRkSz9DvihHzjLrIMUOxV6jHhueCzR/Hq1dRYRkZ1YSjRPPss6iERU6DHkueGVwM1AhXUWEZFtZIB/9gPnPusg8mkq9Jjy3LAKuBP4jnUWEZEtfglM8gNnjXUQ+SwVesx5bjiGaMxtrHUWESlaC4jG0Gqsg8j2qdATwnPDC4h2xO9qnUVEisZKooNhploHkZ1ToSeI54YDgEnAVUCZcRwRSa9m4B5gih84G6zDSNeo0BPIc8M9ia4ePMM6i4ikzlPAVX7gfGAdRLKjQk8wzw3HAw8Co62ziEjiLQG+5wfOXOsg0j0q9BTw3PAfgR8BQ62ziEjirANu9gPnX62DSM+o0FPCc8NhwG3ApdZZRCQxfg7c5AfOOusg0nMq9JTx3HB/ojG3cdZZRCS25hONoS22DiK5o0JPKc8NzyG6f31P6ywiEhsfEG14e8o6iOSeCj3FPDcsA67b8tXfOI6I2NlAdPLk3X7gNFuHkfxQoRcBzw13I5opPc86i4gU3BPAlX7grLIOIvmlQi8inhuOI3q/vr91FhHJuxqi9+QLrINIYajQi5Dnht8l2hFfZZ1FRHJuNTDZD5xfWAeRwiq1DiCF5wfOQ4AD3G+dRURy6ifAKJV5cdITepHz3HA00Wlz462ziEi3zQIu9QNnqXUQsaNCFwA8Nzwd+BdgH+ssItJl7xFteHvWOojYU6HLp3hueANwI1BunUVEtqsRuN0PnDutg0h8qNDlMzw3HEl09/pF1llE5DN+DVzjB06tdRCJFxW6bJfnhmOJxtzGWGcRERYSjaEttA4i8aRCl53y3PDbwB3AF6yziBShj4Eb/MD5D+sgEm8aW5Od8gPnYaCaaNOciBTO3YCjMpeu0BO6ZMVzw2rgAeBY6ywiKfYc8AM/cJZZB5HkUKFLt3hueBJwH/A31llEUmQp0Tz5LOsgkjwqdOkRzw2vBm4CBltnEUmwDPAjP3DutQ4iyaVClx7z3HAE0dWM37LOIpJA/wZc7wfOGusgkmwqdMkZzw3HEI25jbXOIpIAC4jG0Gqsg0g6qNAl5zw3vAi4C9jFOotIDP0FuM4PnMesg0i6aGxNcs4PnEeJxtymWGcRiZnbgb9RmUs+6Ald8spzwz0BHzjNOouIoRnAFX7gfGAdRNJLhS4F4bnheKJrWkdbZxEpoCXA9/zAmWsdRNJPhS4F5bmhB/wTMMQ4ikg+rQdu8QPnp9ZBpHio0KXgPDccRnQ2/Hets4jkwQPAZD9w1lkHkeKiQhcznhvuTzTmNs46i0gOzCcaQ1tsHUSKkwpdzHlueB7RJRS7W2cR6YYPgav9wJluHUSKmwpdYsFzwzLgBuAaoL9xHJGu2Eh03sJdfuA0W4cRUaFLrHhuuBvRpS9nW2cR2YEngav8wFlpHUSkkwpdYslzw3FE79f3t84ispXFRO/J51sHEdmWCl1izXPDS4FbgUrrLFLU1hDtXH/IOojI9ujoV4k1P3AeAEYBP7POIkXrfsBRmUvc6QldEsNzw9FEp82Nt84iRWEu0SlvS6yDiHSFCl0Sx3PDM4F7gL2ts0gqLSPa8PaMdRCRbKjQJbE8N7yRaNSt3DqLpEITcLsfOLolUBJJhS6J5rnhSKKn9Quss0iiPQpc6wfOKusgIt2lQpdU8NxwLNGY2xjrLJIoNURjaAusg4j0lApdUsVzw4uB24ER1lkk1j4BJvmB87B1EJFc0diapIofOL8CHKLT5kQ+zz1Atcpc0kZP6JJanhtWE11leax1FomFWcClfuAstQ4ikg8qdEk9zw1PIXpid6yziIn/Ba7wA+f31kFE8kmFLkXDc8NrgcnAIOssUhD1wK1+4NxjHUSkEFToUlQ8NxwB/Bj4hnUWyat/JxpDW2MdRKRQVOhSlDw3PIRozO0Q6yySUwuIxtBqrIOIFJoKXYqa54bfAKYAI62zSI98BFznB86j1kFErGhsTYqaHziPANXAXdZZpNumEI2hqcylqOkJXWQLzw33AX4CnGqdRbrkt4DnB84H1kFE4kCFLrINzw2PJZpfr7bOIp9rCdG1pnOtg4jEiQpdZDs8N7wCuAWosM4iANQBt/iBc791EJE4UqGL7IDnhlVE72gvts5S5B4iOnt9nXUQkbhSoYt0geeGY4hKZax1liIzn2gMbbF1EJG4U6GLZMFzw4lEB9PsZp0l5VYA1/iBM806iEhSqNBFsuS54QDgBuBqoMw4TtpsJPqF6U4/cJqtw4gkiQpdpJs8N9wTuBc40zpLSkwHrvQDZ6V1EJEkUqGL9JDnhuOBB4HR1lkSajHRe/L51kFEkkyFLpIjnhteBvwIGGadJSHWAjf5gfOAdRCRNFChi+SQ54bDgFuB71tnibmfAZP9wMlYBxFJCxW6SB54brg/0ZjbOOssMTOX6JS3JdZBRNJGhS6SR54bng3cA+xpncXY+8BVfuDMsA4iklYqdJE889ywDLgWuA4YYByn0JqAKX7g3G4dRCTtVOgiBeK54W7A3cD51lkK5HHgaj9wVlkHESkGKnSRAvPccBzR+/X9rbPkSQ3RGNoC6yAixUSFLmLEc8NLgNuBKussOVJLdIHKv1kHESlGpdYBRIqVHzi/ABzAt86SA/cCjspcxI6e0EViwHPDauAB4FjrLFmaBVzqB85S6yAixU6FLhIjnhtOIHraHWWdZSeWEp27PtM6iIhEVOgiMeS54fXAjcBA6yzbaABu9QPnbusgIvJpKnSRmPLccCRwF/D31lm2+E+iO8o/sQ4iIp+lQheJOc8N9wZuAr5lFOFh4DY/cN43+vdFpAtU6CIJseX+9RuBC4DyPP9zTUQHw9zmB86Hef63RCQHVOgiCbPlKNkJRMV+Wo7/+hlERT7TD5zmHP/dIpJHKnSRBPPcsAI4CjgQ+NKWr/26+Mff2errbWC2HzgNeYgpIgWgQhdJIc8Ndwd2BfYAdgc6gBVbvlb6gbPSMJ6I5IEKXUREJAVU6CIiIimgQhcREUkBFbqIiEgKqNBFRERSQIUuIiKSAip0ERGRFFChi4iIpIAKXUREJAX+D8d6Bglznm2zAAAAAElFTkSuQmCC;" parent="1" vertex="1">
          <mxGeometry x="116" y="442" width="36" height="36" as="geometry" />
        </mxCell>
        <mxCell id="k7bk-jx3exmMxuGghewi-5" value="KVCache Aware" style="rounded=1;whiteSpace=wrap;html=1;fillColor=#E5CCFF;strokeColor=#9673a6;" parent="1" vertex="1">
          <mxGeometry x="138.87" y="478" width="113.13" height="20" as="geometry" />
        </mxCell>
        <mxCell id="k7bk-jx3exmMxuGghewi-6" value="Prefix Cache" style="rounded=1;whiteSpace=wrap;html=1;fillColor=#E5CCFF;strokeColor=#9673a6;" parent="1" vertex="1">
          <mxGeometry x="260" y="478" width="113.13" height="20" as="geometry" />
        </mxCell>
        <mxCell id="k7bk-jx3exmMxuGghewi-7" value="P/D Disaggregation" style="rounded=1;whiteSpace=wrap;html=1;fillColor=#E5CCFF;strokeColor=#9673a6;" parent="1" vertex="1">
          <mxGeometry x="260" y="503" width="113.13" height="20" as="geometry" />
        </mxCell>
        <mxCell id="k7bk-jx3exmMxuGghewi-10" value="Load Aware" style="rounded=1;whiteSpace=wrap;html=1;fillColor=#E5CCFF;strokeColor=#9673a6;" parent="1" vertex="1">
          <mxGeometry x="138.87" y="503" width="113.13" height="20" as="geometry" />
        </mxCell>
        <mxCell id="eJ0dNW5iKm_XOctZmSjo-4" value="🌐" style="text;whiteSpace=wrap;html=1;fontSize=27;" parent="1" vertex="1">
          <mxGeometry x="460" y="420" width="20" height="30" as="geometry" />
        </mxCell>
      </root>
    </mxGraphModel>
  </diagram>
</mxfile>
